<?xml version="1.0" encoding="utf-8"?>
<!-- Generator: Adobe Illustrator 22.1.0, SVG Export Plug-In . SVG Version: 6.00 Build 0)  -->
<svg version="1.1" id="Слой_1" xmlns="http://www.w3.org/2000/svg" xmlns:xlink="http://www.w3.org/1999/xlink" x="0px" y="0px"
	 viewBox="0 0 100 31.6" style="enable-background:new 0 0 100 31.6;" xml:space="preserve">
<g>
	<g>
		<g>
			<g>
				<path d="M15.8,0C7.1,0,0,7.1,0,15.8c0,8.7,7.1,15.8,15.8,15.8c8.7,0,15.8-7.1,15.8-15.8C31.6,7.1,24.5,0,15.8,0z M14.5,8
					c-1.6,0.3-3.1,1-4.3,2.2C9,11.3,8.3,12.8,8,14.4v0h11.8v2.6H8c0.3,1.6,1,3.1,2.2,4.2c1.2,1.2,2.7,1.9,4.3,2.2l0,0v-3.8h2.6v3.8
					c1.6-0.3,3.1-1,4.2-2.2l0.5-0.5l1.5,1.5v0l0.3,0.3c-0.1,0.1-0.2,0.2-0.3,0.3c-0.2,0.2-0.4,0.4-0.7,0.6l0,0
					c-0.1,0.1-0.1,0.1-0.2,0.2L22.3,24c0,0-0.1,0.1-0.1,0.1c0,0-0.1,0.1-0.1,0.1l-0.2,0.1c-0.3,0.2-0.6,0.4-0.9,0.6c0,0,0,0,0,0
					c0,0,0,0,0,0l-0.2,0.1c-0.2,0.1-0.4,0.2-0.6,0.3c-0.1,0-0.1,0.1-0.2,0.1l-0.1,0c-0.5,0.2-1.1,0.4-1.6,0.5c0,0-0.1,0-0.1,0
					l-0.1,0c0,0-0.1,0-0.1,0c0,0-0.1,0-0.1,0l-0.3,0c-0.1,0-0.1,0-0.2,0c-0.2,0-0.3,0-0.5,0.1c-0.1,0-0.1,0-0.2,0l-0.1,0
					c0,0,0,0-0.1,0c-0.1,0-0.1,0-0.2,0c-0.1,0-0.3,0-0.4,0c-0.1,0-0.2,0-0.3,0c-0.2,0-0.3,0-0.5,0c0,0,0,0,0,0c-0.2,0-0.3,0-0.5,0
					c0,0,0,0,0,0c-0.2,0-0.3,0-0.5-0.1c-0.1,0-0.2,0-0.3-0.1c-0.1,0-0.2,0-0.3-0.1c-0.1,0-0.2,0-0.3-0.1c-0.8-0.2-1.6-0.5-2.4-0.9
					c-0.2-0.1-0.5-0.3-0.7-0.4c-0.1,0-0.1-0.1-0.2-0.1c-0.2-0.2-0.5-0.3-0.7-0.5c0,0-0.1-0.1-0.1-0.1c-0.1-0.1-0.2-0.1-0.2-0.2
					c-0.1-0.1-0.2-0.2-0.3-0.3c-0.1-0.1-0.1-0.1-0.2-0.2v0c-0.2-0.2-0.5-0.5-0.7-0.7c0,0,0,0,0,0c-0.5-0.7-1-1.4-1.3-2.1
					c0-0.1-0.1-0.2-0.1-0.2c-0.1-0.3-0.3-0.6-0.4-1c0-0.1-0.1-0.2-0.1-0.2c0-0.2-0.1-0.3-0.1-0.5c0-0.2-0.1-0.4-0.1-0.5
					c0-0.1,0-0.2,0-0.3c0-0.2-0.1-0.3-0.1-0.5c0-0.1,0-0.3,0-0.4l0-0.1c0,0,0-0.1,0-0.1c0-0.1,0-0.3,0-0.4c0-0.1,0-0.2,0-0.3
					c0-0.1,0-0.2,0-0.3c0-0.1,0-0.3,0-0.4c0,0,0-0.1,0-0.1c0,0,0-0.1,0-0.1c0-0.1,0-0.3,0-0.4c0-0.3,0.1-0.7,0.2-1
					c0-0.1,0-0.2,0.1-0.3c0,0,0-0.1,0-0.1c0-0.1,0-0.1,0.1-0.2c0.1-0.2,0.1-0.5,0.2-0.7C5.9,12.1,6,12,6,11.9
					c0.1-0.3,0.3-0.6,0.4-0.9c0-0.1,0.1-0.2,0.1-0.2c0-0.1,0.1-0.2,0.1-0.2c0-0.1,0.1-0.1,0.1-0.2c0-0.1,0.1-0.1,0.1-0.2
					C7,10,7,9.9,7.1,9.9c0-0.1,0.1-0.1,0.1-0.2c0.1-0.1,0.2-0.3,0.3-0.4c0-0.1,0.1-0.1,0.1-0.2C7.8,8.9,7.9,8.8,8,8.7
					c0.1-0.1,0.2-0.2,0.3-0.4h0c0.1-0.1,0.1-0.1,0.2-0.2C8.6,8,8.8,7.9,8.9,7.8c0,0,0,0,0,0C9,7.7,9.2,7.6,9.3,7.5
					c0.1-0.1,0.1-0.1,0.2-0.2c0.1,0,0.1-0.1,0.2-0.1C9.7,7.1,9.8,7.1,9.9,7C10,7,10,6.9,10.1,6.9c0.1,0,0.1-0.1,0.2-0.1
					c0.1,0,0.1-0.1,0.2-0.1c0.1,0,0.2-0.1,0.2-0.1c0.1,0,0.2-0.1,0.2-0.1c0.2-0.1,0.3-0.2,0.5-0.2c0.4-0.2,0.8-0.3,1.2-0.5
					c0.2-0.1,0.5-0.1,0.7-0.2c0.2,0,0.4-0.1,0.6-0.1c0.2,0,0.3,0,0.5-0.1c0.2,0,0.3,0,0.5-0.1c0,0,0,0,0,0c0.2,0,0.3,0,0.5,0
					c0.1,0,0.2,0,0.3,0c0.1,0,0.3,0,0.4,0c0.1,0,0.1,0,0.2,0c0,0,0.1,0,0.1,0c0,0,0.1,0,0.1,0c0.1,0,0.1,0,0.2,0c0.1,0,0.1,0,0.2,0
					c0.1,0,0.1,0,0.2,0c0.1,0,0.2,0,0.3,0.1l0.2,0c0.6,0.1,1.3,0.3,1.8,0.5C19.6,6,19.6,6,19.7,6c0.3,0.1,0.6,0.3,0.9,0.4l0.2,0.1
					c0,0,0.1,0,0.1,0.1c0.5,0.3,0.9,0.6,1.3,0.9l0.3,0.2c0.1,0.1,0.2,0.2,0.3,0.2c0.1,0,0.1,0.1,0.2,0.2c0.1,0.1,0.2,0.2,0.3,0.3
					l0,0c0.1,0.1,0.3,0.3,0.4,0.4l-0.4,0.4l-0.1,0.1l-0.9,0.9l-0.4,0.4l-0.4-0.4l-0.1-0.1C20.2,9,18.7,8.3,17.1,8h0v3.9h-2.6L14.5,8
					L14.5,8z"/>
			</g>
		</g>
	</g>
	<g>
		<g>
			<g>
				<path d="M36.9,14.7c0-2,1.4-3.7,3.5-3.7c2.3,0,3.4,1.8,3.4,3.8c0,0.1,0,0.4,0,0.5h-5.2c0.2,1.2,1,1.8,2.1,1.8
					c0.8,0,1.4-0.3,1.9-0.9l1,0.9c-0.7,0.8-1.6,1.3-2.9,1.3C38.5,18.4,36.9,16.9,36.9,14.7z M38.1,8.6L39.6,8l1.4,2.2h-1.3L38.1,8.6
					z M42.1,14.2c-0.1-1.1-0.7-1.9-1.8-1.9c-1,0-1.7,0.8-1.9,1.9H42.1z"/>
				<path d="M45.4,16.3v-3.8h-0.9v-1.4h0.9v-2h1.6v2H49v1.4h-1.9V16c0,0.6,0.3,0.9,0.9,0.9c0.4,0,0.7-0.1,1-0.2V18
					c-0.4,0.2-0.9,0.4-1.5,0.4C46.3,18.3,45.4,17.8,45.4,16.3z"/>
				<path d="M54.7,18.2v-0.9c-0.5,0.6-1.2,1-2.3,1c-1.4,0-2.5-0.8-2.5-2.2c0-1.6,1.2-2.3,2.9-2.3c0.9,0,1.4,0.1,2,0.3V14
					c0-1-0.6-1.5-1.8-1.5c-0.8,0-1.4,0.2-2,0.4l-0.4-1.3c0.8-0.4,1.6-0.6,2.7-0.6c2.1,0,3.1,1.1,3.1,3v4.2H54.7z M54.7,15.2
					c-0.4-0.2-1-0.3-1.6-0.3c-1,0-1.6,0.4-1.6,1.1c0,0.7,0.6,1.1,1.4,1.1c1.1,0,1.9-0.6,1.9-1.5V15.2z"/>
				<path d="M58,8.4h1.6v9.9H58V8.4z"/>
				<path d="M61.1,14.7c0-2,1.6-3.7,3.8-3.7c2.2,0,3.8,1.7,3.8,3.7c0,2-1.6,3.7-3.8,3.7C62.7,18.4,61.1,16.7,61.1,14.7z M67.1,14.7
					c0-1.3-0.9-2.3-2.2-2.3c-1.3,0-2.2,1-2.2,2.3c0,1.2,0.9,2.3,2.2,2.3C66.2,17,67.1,15.9,67.1,14.7z"/>
				<path d="M70,11.1h1.6v1.1c0.5-0.7,1.1-1.3,2.2-1.3c1.6,0,2.5,1.1,2.5,2.7v4.5h-1.6v-4.1c0-1.1-0.6-1.7-1.5-1.7
					c-0.9,0-1.6,0.7-1.6,1.8v4H70V11.1z"/>
				<path d="M78.1,8.4h1.8V10h-1.8V8.4z M78.2,11.1h1.6v7.1h-1.6V11.1z"/>
				<path d="M81.4,15.6v-4.5H83v4.1c0,1.1,0.6,1.7,1.5,1.7c0.9,0,1.6-0.7,1.6-1.8v-4h1.6v7.1h-1.6v-1.1c-0.5,0.7-1.1,1.3-2.2,1.3
					C82.3,18.4,81.4,17.3,81.4,15.6z"/>
				<path d="M89.2,11.1h1.6v1.1c0.5-0.6,1.1-1.2,2.2-1.2c1,0,1.7,0.5,2.1,1.3c0.6-0.8,1.3-1.3,2.4-1.3c1.6,0,2.5,1,2.5,2.7v4.6h-1.6
					v-4.1c0-1.1-0.5-1.7-1.4-1.7c-0.9,0-1.5,0.6-1.5,1.8v4h-1.6v-4.1c0-1.1-0.5-1.7-1.4-1.7c-0.9,0-1.5,0.7-1.5,1.8v4h-1.6V11.1z"/>
			</g>
		</g>
	</g>
	<g>
		<path d="M36.9,23.6v-2.5h0.9c0.4,0,0.7,0.1,0.9,0.3c0.2,0.2,0.3,0.5,0.3,0.9c0,0.4-0.1,0.6-0.3,0.9c-0.2,0.2-0.5,0.3-0.9,0.3H36.9
			z M37.8,21.6h-0.4v1.6h0.4c0.4,0,0.7-0.3,0.7-0.8C38.5,21.9,38.2,21.6,37.8,21.6z"/>
		<path d="M41.3,23.2v0.4h-1.7v-2.5h1.7v0.4h-1.1v0.5h1v0.4h-1v0.6H41.3z"/>
		<path d="M43.8,23.5c-0.2,0.1-0.4,0.1-0.7,0.1c-0.4,0-0.7-0.1-1-0.4c-0.2-0.2-0.3-0.5-0.3-0.9c0-0.4,0.1-0.7,0.4-0.9
			c0.2-0.2,0.6-0.4,1-0.4c0.3,0,0.5,0,0.6,0.1v0.5c-0.2-0.1-0.4-0.1-0.5-0.1c-0.2,0-0.4,0.1-0.6,0.2c-0.2,0.1-0.2,0.3-0.2,0.6
			c0,0.5,0.3,0.8,0.8,0.8c0.2,0,0.4-0.1,0.6-0.2L43.8,23.5z"/>
		<path d="M46.1,23.2v0.4h-1.7v-2.5H46v0.4h-1.1v0.5h1v0.4h-1v0.6H46.1z"/>
		<path d="M47.2,23.6h-0.5v-2.5h0.1c0.2,0.2,0.4,0.4,0.8,0.7c0.3,0.3,0.6,0.5,0.8,0.7h0v-1.4h0.5v2.5h-0.1l-1.5-1.5h0V23.6z"/>
		<path d="M51.3,21.6h-0.7v2H50v-2h-0.7v-0.4h2V21.6z"/>
		<path d="M52.7,21.2c0.3,0,0.5,0.1,0.6,0.2c0.2,0.1,0.3,0.3,0.3,0.6c0,0.3-0.2,0.6-0.5,0.7l0.6,0.9h-0.6l-0.6-1v-0.1
			c0.4,0,0.6-0.3,0.6-0.5c0-0.3-0.2-0.5-0.5-0.5h-0.3v2h-0.6v-2.4H52.7z"/>
		<path d="M55.9,23.6l-0.2-0.4h-0.9l-0.2,0.4h-0.5l1.2-2.5h0.1l1.1,2.5H55.9z M55.3,22.2L55,22.9h0.6L55.3,22.2L55.3,22.2z"/>
		<path d="M56.9,21.2h0.6v2h1.1v0.4h-1.7V21.2z"/>
		<path d="M59.6,23.6h-0.6v-2.5h0.6V23.6z"/>
		<path d="M62.1,21.2L62.1,21.2l-1.2,2h1.1v0.4h-2v-0.1l1.2-2h-1v-0.4H62.1z"/>
		<path d="M64.4,23.2v0.4h-1.7v-2.5h1.7v0.4h-1.1v0.5h1v0.4h-1v0.6H64.4z"/>
		<path d="M64.9,23.6v-2.5h0.9c0.4,0,0.7,0.1,0.9,0.3c0.2,0.2,0.3,0.5,0.3,0.9c0,0.4-0.1,0.6-0.3,0.9c-0.2,0.2-0.5,0.3-0.9,0.3H64.9
			z M65.8,21.6h-0.4v1.6h0.4c0.4,0,0.7-0.3,0.7-0.8C66.6,21.9,66.3,21.6,65.8,21.6z"/>
		<path d="M69.3,23.6h-0.6v-2.5h1.7v0.4h-1.1v0.6h1v0.4h-1V23.6z"/>
		<path d="M72.1,23.6L72,23.2H71l-0.2,0.4h-0.5l1.2-2.5h0.1l1.1,2.5H72.1z M71.5,22.2l-0.3,0.7h0.6L71.5,22.2L71.5,22.2z"/>
		<path d="M73,23c0.1,0.1,0.2,0.1,0.4,0.2c0.1,0,0.3,0.1,0.4,0.1c0.3,0,0.4-0.1,0.4-0.3c0-0.2-0.2-0.3-0.4-0.4
			c-0.3-0.1-0.8-0.3-0.8-0.8c0-0.2,0.1-0.4,0.2-0.5c0.2-0.1,0.4-0.2,0.6-0.2c0.3,0,0.5,0.1,0.7,0.2v0.5c-0.1-0.1-0.2-0.1-0.3-0.1
			s-0.2-0.1-0.3-0.1c-0.2,0-0.4,0.1-0.4,0.2c0,0.2,0.3,0.2,0.6,0.4c0.1,0.1,0.2,0.1,0.3,0.2c0.2,0.1,0.3,0.3,0.3,0.6
			c0,0.2-0.1,0.4-0.2,0.5c-0.2,0.1-0.4,0.2-0.7,0.2c-0.3,0-0.6-0.1-0.8-0.2V23z"/>
		<path d="M77.4,23.6h-0.6v-1.1h-1v1.1h-0.6v-2.5h0.6v1h1v-1h0.6V23.6z"/>
		<path d="M78.7,23.6h-0.6v-2.5h0.6V23.6z"/>
		<path d="M79.6,23.3c-0.2-0.2-0.4-0.5-0.4-0.9c0-0.4,0.1-0.7,0.4-0.9c0.3-0.2,0.6-0.4,0.9-0.4c0.4,0,0.7,0.1,0.9,0.4
			c0.2,0.2,0.4,0.5,0.4,0.9c0,0.4-0.1,0.7-0.4,0.9c-0.2,0.2-0.6,0.4-0.9,0.4C80.2,23.7,79.9,23.6,79.6,23.3z M80,21.8
			c-0.1,0.2-0.2,0.3-0.2,0.6c0,0.2,0.1,0.4,0.2,0.6c0.1,0.2,0.3,0.2,0.6,0.2c0.2,0,0.4-0.1,0.5-0.2c0.1-0.2,0.2-0.4,0.2-0.6
			c0-0.2-0.1-0.4-0.2-0.6c-0.1-0.2-0.3-0.2-0.5-0.2C80.4,21.6,80.2,21.7,80,21.8z"/>
		<path d="M83,23.6h-0.5v-2.5h0.1c0.2,0.2,0.4,0.4,0.8,0.7c0.3,0.3,0.6,0.5,0.8,0.7h0v-1.4h0.5v2.5h-0.1L83,22.2h0V23.6z"/>
		<path d="M87.9,22.2L87.9,22.2l-0.6,1.5h-0.1l-1-2.5h0.6l0.5,1.2h0l0.6-1.3H88l0.6,1.3h0l0.5-1.2h0.6l-1,2.5h-0.1L87.9,22.2z"/>
		<path d="M90.3,23.3c-0.2-0.2-0.4-0.5-0.4-0.9c0-0.4,0.1-0.7,0.4-0.9c0.3-0.2,0.6-0.4,0.9-0.4c0.4,0,0.7,0.1,0.9,0.4
			c0.2,0.2,0.4,0.5,0.4,0.9c0,0.4-0.1,0.7-0.4,0.9c-0.2,0.2-0.6,0.4-0.9,0.4C90.9,23.7,90.6,23.6,90.3,23.3z M90.7,21.8
			c-0.1,0.2-0.2,0.3-0.2,0.6c0,0.2,0.1,0.4,0.2,0.6c0.1,0.2,0.3,0.2,0.6,0.2c0.2,0,0.4-0.1,0.5-0.2c0.1-0.2,0.2-0.4,0.2-0.6
			c0-0.2-0.1-0.4-0.2-0.6c-0.1-0.2-0.3-0.2-0.5-0.2C91.1,21.6,90.9,21.7,90.7,21.8z"/>
		<path d="M94.2,21.2c0.3,0,0.5,0.1,0.6,0.2c0.2,0.1,0.3,0.3,0.3,0.6c0,0.3-0.2,0.6-0.5,0.7l0.6,0.9h-0.6l-0.6-1v-0.1
			c0.4,0,0.6-0.3,0.6-0.5c0-0.3-0.2-0.5-0.5-0.5h-0.3v2h-0.6v-2.4H94.2z"/>
		<path d="M95.7,21.2h0.6v2h1.1v0.4h-1.7V21.2z"/>
		<path d="M97.9,23.6v-2.5h0.9c0.4,0,0.7,0.1,0.9,0.3c0.2,0.2,0.3,0.5,0.3,0.9c0,0.4-0.1,0.6-0.3,0.9c-0.2,0.2-0.5,0.3-0.9,0.3H97.9
			z M98.8,21.6h-0.4v1.6h0.4c0.4,0,0.7-0.3,0.7-0.8C99.5,21.9,99.3,21.6,98.8,21.6z"/>
	</g>
</g>
</svg>
