<?xml version="1.0" encoding="utf-8"?>
<!-- Generator: Adobe Illustrator 22.1.0, SVG Export Plug-In . SVG Version: 6.00 Build 0)  -->
<svg version="1.1" id="Слой_1" xmlns="http://www.w3.org/2000/svg" xmlns:xlink="http://www.w3.org/1999/xlink" x="0px" y="0px"
	 viewBox="0 0 27 27" style="enable-background:new 0 0 27 27;" xml:space="preserve">
<style type="text/css">
	.st0{fill:#CECECE;}
</style>
<path class="st0" d="M27,24.5V10.6c0-0.8-0.3-1.5-0.9-2c-1.5-1.1-4.4-3.3-8.7-6.4l-0.5-0.4c-0.7-0.5-1.3-0.9-1.7-1.2
	C14.5,0.2,13.9,0,13.5,0c-0.5,0-1.1,0.2-1.7,0.6c-0.4,0.2-1,0.6-1.7,1.2L9.7,2.2C5.3,5.3,2.4,7.5,0.9,8.6C0.3,9.1,0,9.8,0,10.6v13.9
	c0,0.7,0.2,1.3,0.7,1.8C1.2,26.8,1.8,27,2.5,27h21.9c0.7,0,1.3-0.2,1.8-0.7C26.7,25.8,27,25.2,27,24.5z M23.5,14.1l0.5,0.7
	C24,14.9,24,15,24,15.1c0,0.1-0.1,0.2-0.1,0.3l-6.1,4.4c-0.8,0.6-1.5,1.1-2,1.4c-0.8,0.5-1.6,0.7-2.3,0.7c-0.7,0-1.5-0.2-2.3-0.7
	c-0.5-0.3-1.2-0.7-2-1.4l-6.1-4.4c-0.1-0.1-0.2-0.2-0.2-0.3c0-0.1,0-0.2,0.1-0.3l0.5-0.7C3.5,14,3.6,14,3.7,13.9
	c0.1,0,0.2,0,0.3,0.1l6.1,4.5c0.7,0.6,1.3,0.9,1.7,1.2c0.6,0.4,1.2,0.6,1.7,0.6c0.4,0,1-0.2,1.7-0.6c0.4-0.2,0.9-0.6,1.7-1.2
	l6.1-4.5c0.1-0.1,0.2-0.1,0.3-0.1C23.4,14,23.4,14,23.5,14.1z"/>
</svg>
