<svg width="1440" height="248" viewBox="0 0 1440 248" fill="none" xmlns="http://www.w3.org/2000/svg">
<path d="M66.3036 52.7257L32.1483 0L-3.27216 15.7861L36.1014 52.7257H66.3036ZM54.4441 248C85.7533 248 108.049 235.371 124.178 216.112L101.25 195.906C87.6508 209.166 74.21 216.112 55.0766 216.112C29.9345 216.112 10.3268 200.642 6.05733 173.016H131.136C131.452 171.122 131.768 164.649 131.768 162.123C131.768 113.187 104.412 70.7218 50.1747 70.7218C1.47165 70.7218 -33 110.661 -33 159.124C-33 212.323 5.10856 248 54.4441 248ZM49.8585 102.61C75.6331 102.61 90.497 122.185 93.0271 147.285H5.58295C9.21986 120.922 25.9813 102.61 49.8585 102.61ZM210.515 27.6257H171.458V74.1948H149.795V107.661H171.458V197.169C171.458 234.424 191.856 247.053 220.477 247.053C235.025 247.053 245.936 243.896 255.581 238.37V206.482C247.833 210.271 240.085 212.323 231.388 212.323C218.105 212.323 210.357 206.167 210.357 191.17V107.819H256.214V74.3526H210.357L210.515 27.6257ZM344.923 138.918C305.233 138.918 275.822 156.914 275.822 194.485C275.822 229.215 304.285 247.526 336.542 247.526C362.317 247.526 380.027 236.95 391.729 223.058V243.896H430.47V143.496C430.47 98.1897 405.96 71.8269 355.676 71.8269C328.004 71.8269 309.503 77.6677 290.844 86.0344L301.438 117.291C316.935 110.819 331.166 106.714 350.141 106.714C377.181 106.714 392.045 119.501 392.045 143.022V146.18C378.762 141.917 365.638 138.918 344.923 138.918ZM392.677 173.016V182.645C392.677 203.799 373.386 218.322 347.453 218.322C329.11 218.322 314.563 209.324 314.563 193.222C314.563 176.173 329.11 166.228 353.62 166.228C368.8 166.228 382.715 169.227 392.677 173.016ZM471.425 244.211H510.482V9.31381H471.425V244.211ZM635.244 70.7218C583.062 70.7218 544.321 110.976 544.321 159.44C544.321 208.377 582.746 247.842 634.612 247.842C687.11 247.842 725.851 207.588 725.851 159.44C725.851 110.345 687.426 70.7218 635.244 70.7218ZM635.244 214.218C604.884 214.218 583.378 189.118 583.378 159.598C583.378 129.446 603.302 104.978 634.612 104.978C665.288 104.978 686.793 129.762 686.793 159.598C686.793 189.433 666.869 214.218 635.244 214.218ZM910.701 244.211V136.076C910.701 96.4532 888.405 70.7218 849.98 70.7218C823.573 70.7218 807.76 84.6136 796.692 100.715V74.3526H757.634V244.211H796.692V148.232C796.692 121.869 812.504 106.083 835.116 106.083C858.361 106.083 871.485 121.237 871.485 147.6V244.053L910.701 244.211ZM992.611 11.2081H950.707V48.1477H992.611V11.2081ZM991.346 244.211V74.3526H952.288V244.211H991.346ZM1181.26 244.211V74.3526H1142.2V170.174C1142.2 196.537 1126.39 212.323 1103.77 212.323C1080.53 212.323 1067.25 197.169 1067.25 170.806V74.3526H1028.19V182.488C1028.19 222.111 1050.49 247.842 1088.91 247.842C1115.32 247.842 1131.13 233.95 1142.2 218.006V244.369H1181.26V244.211ZM1413.39 70.7218C1387.61 70.7218 1369.58 82.5614 1355.67 100.715C1346.66 82.7193 1329.58 70.7218 1305.07 70.7218C1278.98 70.7218 1264.11 84.9293 1253.2 99.9262V74.1948H1214.15V244.053H1253.2V148.547C1253.2 122.185 1268.07 106.083 1289.57 106.083C1311.24 106.083 1324.04 120.922 1324.04 147.285V244.053H1363.1V148.232C1363.1 120.922 1378.28 106.083 1399.47 106.083C1421.45 106.083 1433.94 120.606 1433.94 147.6V244.053H1473V135.603C1473 94.2432 1450.55 70.7218 1413.39 70.7218Z" fill="white"/>
</svg>
