<?xml version="1.0" encoding="utf-8"?>
<!-- Generator: Adobe Illustrator 22.1.0, SVG Export Plug-In . SVG Version: 6.00 Build 0)  -->
<svg version="1.1" id="Слой_1" xmlns="http://www.w3.org/2000/svg" xmlns:xlink="http://www.w3.org/1999/xlink" x="0px" y="0px"
	 viewBox="0 0 1504.9 248" style="enable-background:new 0 0 1504.9 248;" xml:space="preserve">
<style type="text/css">
	.st0{fill:#FFFFFF;}
</style>
<path class="st0" d="M99.4,52.7L65.3,0L29.9,15.8l39.4,36.9H99.4z M87.6,248c31.3,0,53.6-12.6,69.7-31.9l-22.9-20.2
	c-13.6,13.3-27,20.2-46.2,20.2c-25.1,0-44.7-15.5-49-43.1h125.1c0.3-1.9,0.6-8.4,0.6-10.9c0-48.9-27.4-91.4-81.6-91.4
	c-48.7,0-83.2,39.9-83.2,88.4C0.1,212.3,38.2,248,87.6,248z M83,102.6c25.8,0,40.6,19.6,43.2,44.7H38.7
	C42.3,120.9,59.1,102.6,83,102.6z M243.6,27.6h-39.1v46.6h-21.7v33.5h21.7v89.5c0,37.3,20.4,49.9,49,49.9c14.5,0,25.5-3.2,35.1-8.7
	v-31.9c-7.7,3.8-15.5,5.8-24.2,5.8c-13.3,0-21-6.2-21-21.2v-83.4h45.9V74.4h-45.9L243.6,27.6z M378.1,138.9
	c-39.7,0-69.1,18-69.1,55.6c0,34.7,28.5,53,60.7,53c25.8,0,43.5-10.6,55.2-24.5v20.8h38.7V143.5c0-45.3-24.5-71.7-74.8-71.7
	c-27.7,0-46.2,5.8-64.8,14.2l10.6,31.3c15.5-6.5,29.7-10.6,48.7-10.6c27,0,41.9,12.8,41.9,36.3v3.2
	C411.9,141.9,398.8,138.9,378.1,138.9z M425.8,173v9.6c0,21.2-19.3,35.7-45.2,35.7c-18.3,0-32.9-9-32.9-25.1c0-17,14.5-27,39.1-27
	C401.9,166.2,415.8,169.2,425.8,173z M504.6,244.2h39.1V9.3h-39.1V244.2z M668.4,70.7c-52.2,0-90.9,40.3-90.9,88.7
	c0,48.9,38.4,88.4,90.3,88.4c52.5,0,91.2-40.3,91.2-88.4C759,110.3,720.6,70.7,668.4,70.7z M668.4,214.2
	c-30.4,0-51.9-25.1-51.9-54.6c0-30.2,19.9-54.6,51.2-54.6c30.7,0,52.2,24.8,52.2,54.6C719.9,189.4,700,214.2,668.4,214.2z
	 M943.8,244.2V136.1c0-39.6-22.3-65.4-60.7-65.4c-26.4,0-42.2,13.9-53.3,30V74.4h-39.1v169.9h39.1v-96c0-26.4,15.8-42.1,38.4-42.1
	c23.2,0,36.4,15.2,36.4,41.5v96.5L943.8,244.2z M1025.7,11.2h-41.9v36.9h41.9V11.2z M1024.5,244.2V74.4h-39.1v169.9H1024.5z
	 M1214.4,244.2V74.4h-39.1v95.8c0,26.4-15.8,42.1-38.4,42.1c-23.2,0-36.5-15.2-36.5-41.5V74.4h-39.1v108.1
	c0,39.6,22.3,65.4,60.7,65.4c26.4,0,42.2-13.9,53.3-29.8v26.4h39.1V244.2z M1446.5,70.7c-25.8,0-43.8,11.8-57.7,30
	c-9-18-26.1-30-50.6-30c-26.1,0-41,14.2-51.9,29.2V74.2h-39v169.9h39v-95.5c0-26.4,14.9-42.5,36.4-42.5c21.7,0,34.5,14.8,34.5,41.2
	v96.8h39.1v-95.8c0-27.3,15.2-42.1,36.4-42.1c22,0,34.5,14.5,34.5,41.5v96.5h39.1V135.6C1506.1,94.2,1483.7,70.7,1446.5,70.7z"/>
</svg>
