<svg width="20" height="13" viewBox="0 0 20 13" fill="none" xmlns="http://www.w3.org/2000/svg">
<path d="M18.6992 2.24219C18.832 2.83984 18.9648 3.76953 19.0312 4.96484L19.0645 6.625L19.0312 8.28516C18.9648 9.54688 18.832 10.4434 18.6992 11.041C18.5664 11.4395 18.3672 11.7715 18.1016 12.0371C17.8027 12.3359 17.4707 12.5352 17.0723 12.6348C16.4746 12.8008 15.1465 12.9004 13.0215 12.9668L10 13L6.97852 12.9668C4.85352 12.9004 3.49219 12.8008 2.92773 12.6348C2.5293 12.5352 2.16406 12.3359 1.89844 12.0371C1.59961 11.7715 1.40039 11.4395 1.30078 11.041C1.13477 10.4434 1.03516 9.54688 0.96875 8.28516L0.935547 6.625C0.935547 6.16016 0.935547 5.5957 0.96875 4.96484C1.03516 3.76953 1.13477 2.83984 1.30078 2.24219C1.40039 1.84375 1.59961 1.51172 1.89844 1.21289C2.16406 0.947266 2.5293 0.748047 2.92773 0.615234C3.49219 0.482422 4.85352 0.349609 6.97852 0.283203L10 0.25L13.0215 0.283203C15.1465 0.349609 16.4746 0.482422 17.0723 0.615234C17.4707 0.748047 17.8027 0.947266 18.1016 1.21289C18.3672 1.51172 18.5664 1.84375 18.6992 2.24219ZM8.14062 9.34766L12.8887 6.625L8.14062 3.93555V9.34766Z" fill="black"/>
</svg>
