<?xml version="1.0" standalone="no"?>
<!DOCTYPE svg PUBLIC "-//W3C//DTD SVG 1.1//EN" "http://www.w3.org/Graphics/SVG/1.1/DTD/svg11.dtd" >
<svg xmlns="http://www.w3.org/2000/svg" xmlns:xlink="http://www.w3.org/1999/xlink" version="1.1">
<metadata>
Created by FontForge 20170910 at Mon Jul  4 10:26:03 2016
 By Jimmy Wärting
LCG stand for Latin, Cyrillic and Greek.
</metadata>
<defs>
<font id="GraphikLCG-Semibold" horiz-adv-x="612" >
  <font-face 
    font-family="Graphik LCG"
    font-weight="600"
    font-stretch="normal"
    units-per-em="1000"
    panose-1="2 11 7 3 3 2 2 6 2 3"
    ascent="822"
    descent="-178"
    x-height="523"
    cap-height="715"
    bbox="-232 -228 1165 1128"
    underline-thickness="50"
    underline-position="-100"
    stemh="126"
    stemv="144"
    unicode-range="U+000D-FB02"
  />
<missing-glyph horiz-adv-x="512" 
 />
    <glyph glyph-name="f_f" unicode="ff" horiz-adv-x="698" 
d="M94 420h-69v103h69v54c0 121 69 183 186 183c31 0 51 -4 74 -11v-108c-15 4 -31 8 -52 8c-45 0 -64 -28 -64 -69v-57h171v60c0 123 70 183 187 183c31 0 52 -3 75 -10v-109c-15 5 -32 9 -53 9c-47 0 -65 -29 -65 -69v-64h114v-103h-114v-420h-144v420h-171v-420h-144v420
z" />
    <glyph glyph-name=".notdef" horiz-adv-x="512" 
 />
    <glyph glyph-name="NULL" horiz-adv-x="0" 
 />
    <glyph glyph-name="NULL" horiz-adv-x="0" 
 />
    <glyph glyph-name="CR" unicode="&#xd;" horiz-adv-x="222" 
 />
    <glyph glyph-name="space" unicode=" " horiz-adv-x="222" 
 />
    <glyph glyph-name="exclam" unicode="!" horiz-adv-x="328" 
d="M164 -9c-25 0 -48 9 -64 25c-17 16 -27 37 -27 61c0 49 40 87 91 87s91 -38 91 -87c0 -24 -10 -45 -26 -61c-17 -16 -40 -25 -65 -25zM84 715h162l-22 -492h-118z" />
    <glyph glyph-name="quotedbl" unicode="&#x22;" horiz-adv-x="442" 
d="M54 715h140l-19 -264h-102zM248 715h140l-18 -264h-103z" />
    <glyph glyph-name="numbersign" unicode="#" horiz-adv-x="561" 
d="M293 256h-75l-23 -157h-102l23 157h-74v115h91l14 96h-80v111h96l21 137h101l-20 -137h75l21 137h101l-21 -137h78v-111h-94l-14 -96h83v-115h-100l-23 -157h-101zM235 371h75l14 96h-75z" />
    <glyph glyph-name="dollar" unicode="$" horiz-adv-x="652" 
d="M293 -10c-87 5 -149 33 -189 74c-41 40 -62 96 -66 159h148c4 -29 10 -55 26 -75c16 -21 41 -37 81 -42v193c-80 12 -138 33 -177 68c-39 33 -58 80 -58 147c0 57 23 108 64 145c41 36 99 60 171 65v89h71v-90c137 -12 218 -80 230 -209h-143c-9 52 -34 83 -87 94v-179
c75 -12 135 -30 178 -62c41 -33 64 -81 64 -150c0 -60 -21 -114 -61 -154c-41 -41 -102 -68 -181 -73v-125h-71v125zM458 200c0 48 -21 72 -94 88v-182c59 11 94 45 94 94zM202 527c0 -23 5 -41 18 -54c13 -15 36 -24 73 -32v169c-60 -8 -91 -40 -91 -83z" />
    <glyph glyph-name="percent" unicode="%" horiz-adv-x="823" 
d="M215 461c43 0 68 31 68 87c0 53 -25 86 -68 86s-70 -31 -70 -86c0 -57 27 -87 70 -87zM214 371c-53 0 -98 19 -130 51c-32 31 -50 74 -50 125c0 49 20 94 53 125c32 31 77 50 128 50c49 0 95 -18 127 -49s52 -73 52 -124s-19 -95 -51 -127s-77 -51 -129 -51zM605 715h90
l-475 -715h-90zM609 80c44 0 69 31 69 86s-25 86 -69 86c-43 0 -69 -30 -69 -86s26 -86 69 -86zM609 -11c-53 0 -98 19 -130 51c-32 31 -50 74 -50 125s20 94 53 126c32 31 76 50 127 50s96 -18 128 -49s52 -73 52 -124s-19 -96 -51 -128s-77 -51 -129 -51z" />
    <glyph glyph-name="ampersand" unicode="&#x26;" horiz-adv-x="746" 
d="M600 146l119 -146h-185l-52 64c-45 -41 -103 -74 -195 -74c-72 0 -134 20 -175 56c-43 36 -67 88 -67 153c0 99 62 163 159 210c-35 48 -50 95 -50 135c0 57 24 102 63 133c37 29 91 45 147 45c52 0 100 -14 136 -41c36 -28 58 -68 58 -119c0 -81 -50 -139 -146 -179
l112 -137l64 125h128zM308 109c39 0 72 16 99 48l-136 165c-43 -23 -74 -51 -74 -107c0 -64 39 -106 111 -106zM295 542c0 -31 17 -59 48 -95c60 28 86 58 86 107c0 37 -26 64 -63 64c-40 0 -71 -25 -71 -76z" />
    <glyph glyph-name="quotesingle" unicode="'" horiz-adv-x="252" 
d="M54 715h144l-19 -264h-106z" />
    <glyph glyph-name="parenleft" unicode="(" horiz-adv-x="355" 
d="M216 -148c-41 49 -83 111 -114 187c-32 76 -53 167 -53 274s21 198 53 274c31 76 73 138 114 187h119c-37 -52 -73 -116 -100 -192c-28 -76 -45 -165 -45 -269s17 -193 45 -269c27 -76 63 -139 100 -192h-119z" />
    <glyph glyph-name="parenright" unicode=")" horiz-adv-x="355" 
d="M21 -148c37 52 73 116 100 192s44 165 44 269s-17 193 -44 269s-63 139 -100 192h119c41 -49 82 -111 114 -187c31 -76 52 -166 52 -274c0 -107 -21 -198 -52 -274c-32 -76 -73 -138 -114 -187h-119z" />
    <glyph glyph-name="asterisk" unicode="*" horiz-adv-x="446" 
d="M72 448l87 97l-119 19l30 103l112 -51l-17 127h117l-18 -127l112 51l30 -103l-120 -19l87 -97l-89 -64l-62 117l-61 -117z" />
    <glyph glyph-name="plus" unicode="+" horiz-adv-x="563" 
d="M223 286h-180v109h180v195h118v-195h180v-109h-180v-195h-118v195z" />
    <glyph glyph-name="comma" unicode="," horiz-adv-x="310" 
d="M29 -86l88 247l136 -51l-136 -233z" />
    <glyph glyph-name="hyphen" unicode="-" horiz-adv-x="376" 
d="M60 339h256v-115h-256v115z" />
    <glyph glyph-name="period" unicode="." horiz-adv-x="305" 
d="M152 -9c-51 0 -89 39 -89 88c0 48 38 87 89 87s90 -39 90 -87c0 -24 -10 -46 -26 -62s-39 -26 -64 -26z" />
    <glyph glyph-name="slash" unicode="/" horiz-adv-x="435" 
d="M300 776h119l-308 -924h-118z" />
    <glyph glyph-name="zero" unicode="0" horiz-adv-x="725" 
d="M366 116c101 0 147 76 147 227v32c0 145 -49 225 -149 225s-151 -76 -151 -225v-34c0 -151 53 -225 153 -225zM362 -11c-95 0 -173 33 -226 94c-55 60 -85 148 -85 257v34c0 109 32 198 87 258s133 93 225 93s169 -31 225 -90c55 -60 86 -147 86 -258v-33
c0 -109 -30 -199 -83 -260c-55 -61 -133 -95 -229 -95z" />
    <glyph glyph-name="one" unicode="1" horiz-adv-x="443" 
d="M183 555l-145 -95v138l165 117h142v-715h-162v555z" />
    <glyph glyph-name="two" unicode="2" horiz-adv-x="605" 
d="M18 26l262 277c69 73 113 136 113 201c0 60 -32 97 -95 97c-64 0 -103 -36 -114 -131h-147c8 167 107 255 268 255c79 0 141 -23 184 -60c41 -39 64 -93 64 -157c0 -95 -55 -173 -138 -253l-135 -132h278v-123h-540v26z" />
    <glyph glyph-name="three" unicode="3" horiz-adv-x="647" 
d="M319 -11c-183 0 -274 93 -281 238h146c7 -69 42 -119 129 -119c81 0 119 39 119 103c0 69 -38 103 -115 103h-56v108h52c76 0 109 34 109 95c0 51 -32 89 -99 89c-68 0 -110 -40 -118 -108h-143c4 65 29 122 74 163c44 40 109 64 190 64c79 0 140 -20 183 -55
s66 -83 66 -139c0 -80 -46 -130 -118 -155c84 -19 139 -76 139 -168c0 -135 -102 -219 -277 -219z" />
    <glyph glyph-name="four" unicode="4" horiz-adv-x="668" 
d="M383 142h-351v59l309 514h199v-457h94v-116h-94v-142h-157v142zM386 258v335l-192 -335h192z" />
    <glyph glyph-name="five" unicode="5" horiz-adv-x="627" 
d="M303 -11c-88 0 -152 24 -195 64c-44 40 -66 96 -70 160h149c4 -31 13 -55 30 -72c17 -19 44 -28 85 -28c73 0 112 51 112 127c0 77 -44 125 -116 125c-68 0 -108 -24 -137 -57h-90l10 407h453v-123h-332l-3 -179c28 35 78 66 159 66c65 0 119 -23 158 -63
c39 -41 61 -102 61 -178s-27 -138 -75 -181c-48 -44 -116 -68 -199 -68z" />
    <glyph glyph-name="six" unicode="6" horiz-adv-x="666" 
d="M345 -11c-108 0 -181 37 -228 98c-47 60 -66 146 -66 243v18c0 121 32 215 87 279s131 98 219 98c143 0 232 -66 248 -198h-150c-11 47 -33 76 -96 76c-89 0 -144 -77 -148 -225c33 53 86 89 173 89c68 0 126 -22 169 -62c41 -40 67 -98 67 -170c0 -73 -26 -135 -73 -178
c-48 -43 -117 -68 -202 -68zM343 106c72 0 118 51 118 127s-45 127 -118 127c-36 0 -67 -13 -88 -34c-21 -23 -34 -52 -34 -88c0 -83 50 -132 122 -132z" />
    <glyph glyph-name="seven" unicode="7" horiz-adv-x="570" 
d="M348 584h-315v131h518v-18l-256 -697h-165z" />
    <glyph glyph-name="eight" unicode="8" horiz-adv-x="651" 
d="M326 -11c-79 0 -150 18 -199 54c-51 36 -81 88 -81 159c0 88 49 150 132 179c-65 27 -104 77 -104 149c0 61 29 111 76 144s110 51 177 51c68 0 132 -18 177 -51s74 -82 74 -143c0 -72 -40 -121 -104 -149c84 -29 131 -91 131 -176c0 -71 -30 -124 -79 -161
c-51 -37 -120 -56 -200 -56zM326 107c68 0 119 39 119 111c0 71 -50 109 -118 109c-33 0 -63 -9 -84 -28c-23 -19 -36 -46 -36 -82s14 -63 35 -82s51 -28 84 -28zM328 426c59 0 100 34 100 94c0 56 -44 92 -101 92s-102 -34 -102 -93s47 -93 103 -93z" />
    <glyph glyph-name="nine" unicode="9" horiz-adv-x="667" 
d="M316 -10c-156 0 -247 74 -263 203h151c11 -49 39 -80 107 -80c93 0 142 74 145 221c-33 -52 -84 -87 -171 -87c-69 0 -128 21 -171 61s-68 98 -68 170c0 73 26 136 74 180c48 43 118 68 203 68c99 0 172 -33 220 -92c48 -60 72 -144 72 -247v-32
c0 -236 -106 -365 -299 -365zM321 355c73 0 122 49 122 120c0 84 -49 134 -122 134c-72 0 -118 -51 -118 -127s46 -127 118 -127z" />
    <glyph glyph-name="colon" unicode=":" horiz-adv-x="312" 
d="M155 -9c-51 0 -88 39 -88 88c0 48 37 87 88 87s90 -39 90 -87c0 -24 -10 -46 -26 -62s-39 -26 -64 -26zM155 281c-51 0 -88 39 -88 88c0 48 37 87 88 87s90 -39 90 -87c0 -24 -10 -46 -26 -62s-39 -26 -64 -26z" />
    <glyph glyph-name="semicolon" unicode=";" horiz-adv-x="322" 
d="M20 -86l88 247l136 -51l-136 -233zM174 281c-51 0 -89 39 -89 88c0 48 38 87 89 87s90 -39 90 -87c0 -24 -10 -46 -26 -62s-39 -26 -64 -26z" />
    <glyph glyph-name="less" unicode="&#x3c;" horiz-adv-x="521" 
d="M52 308v29l408 235v-132l-217 -117l217 -121v-130z" />
    <glyph glyph-name="equal" unicode="=" horiz-adv-x="542" 
d="M45 281h452v-103h-452v103zM45 472h452v-104h-452v104z" />
    <glyph glyph-name="greater" unicode="&#x3e;" horiz-adv-x="521" 
d="M62 205l216 117l-216 121v130l408 -236v-29l-408 -235v132z" />
    <glyph glyph-name="question" unicode="?" horiz-adv-x="544" 
d="M179 253c0 39 13 71 32 99c19 27 43 51 67 74c36 35 68 67 68 107c0 47 -24 74 -77 74c-56 0 -92 -39 -99 -103h-139c3 69 29 124 73 163c43 37 103 58 174 58c73 0 129 -18 166 -50s56 -77 56 -130c0 -69 -39 -116 -82 -157c-24 -23 -49 -44 -68 -67
c-20 -23 -34 -46 -37 -73v-25h-134v30zM245 -9c-25 0 -49 9 -65 25c-17 16 -27 37 -27 61s10 46 27 62c16 16 40 25 65 25c51 0 91 -38 91 -87c0 -24 -10 -45 -26 -61c-17 -16 -40 -25 -65 -25z" />
    <glyph glyph-name="at" unicode="@" horiz-adv-x="931" 
d="M466 -154c-135 0 -241 46 -313 121c-73 75 -112 177 -112 288c0 128 52 237 133 314c80 76 191 121 308 121c119 0 221 -38 293 -102c72 -65 115 -156 115 -263c0 -97 -27 -165 -66 -206c-40 -43 -92 -61 -140 -61c-85 0 -123 30 -135 83c-27 -53 -76 -87 -140 -87
c-99 0 -162 68 -162 181c0 69 22 128 58 169c35 41 84 65 139 65c67 0 99 -28 114 -63l7 55h124l-32 -265c-7 -47 8 -71 45 -71c28 0 55 15 76 47s35 82 35 153c0 88 -32 163 -88 215c-57 52 -141 82 -242 82c-103 0 -192 -37 -256 -101c-65 -64 -104 -156 -104 -267
c0 -93 28 -179 87 -240c57 -61 143 -100 258 -100s194 35 249 86h86c-31 -47 -77 -84 -134 -112c-59 -27 -128 -42 -203 -42zM446 152c25 0 50 12 69 36c17 23 29 56 29 97c0 57 -26 86 -79 86c-51 0 -91 -51 -91 -131c0 -53 27 -88 72 -88z" />
    <glyph glyph-name="A" unicode="A" horiz-adv-x="732" 
d="M262 715h211l232 -715h-169l-49 159h-259l-49 -159h-152zM263 274h189l-94 309z" />
    <glyph glyph-name="B" unicode="B" horiz-adv-x="671" 
d="M83 715h281c157 0 237 -63 237 -186v-4c0 -76 -36 -130 -116 -153c93 -19 143 -72 143 -168v-4c0 -132 -84 -200 -251 -200h-294v715zM352 112c80 0 116 36 116 101v4c0 67 -36 100 -124 100h-103v-205h111zM338 421c79 0 109 28 109 92v4c0 60 -34 87 -110 87h-96v-183
h97z" />
    <glyph glyph-name="C" unicode="C" horiz-adv-x="760" 
d="M405 -11c-117 0 -207 36 -267 100c-61 63 -92 153 -92 264v8c0 108 38 200 102 264c63 64 152 101 253 101c85 0 161 -21 217 -64c55 -43 92 -108 100 -196h-166c-12 87 -59 132 -150 132c-113 0 -185 -87 -185 -236v-8c0 -149 67 -234 186 -234c89 0 151 45 164 137h159
c-9 -88 -45 -156 -101 -200c-56 -45 -132 -68 -220 -68z" />
    <glyph glyph-name="D" unicode="D" horiz-adv-x="738" 
d="M311 126c145 0 212 80 212 229v8c0 147 -63 226 -214 226h-64v-463h66zM83 715h234c125 0 219 -34 282 -94c61 -61 93 -149 93 -256v-8c0 -107 -31 -196 -94 -259s-157 -98 -282 -98h-233v715z" />
    <glyph glyph-name="E" unicode="E" horiz-adv-x="607" 
d="M83 715h466v-126h-305v-167h244v-118h-244v-178h321v-126h-482v715z" />
    <glyph glyph-name="F" unicode="F" horiz-adv-x="579" 
d="M83 715h459v-127h-297v-189h235v-122h-235v-277h-162v715z" />
    <glyph glyph-name="G" unicode="G" horiz-adv-x="792" 
d="M410 -11c-117 0 -208 38 -269 103c-63 64 -95 154 -95 261v8c0 108 38 199 103 263c64 64 156 102 261 102c80 0 155 -18 212 -58c57 -41 98 -104 106 -192h-161c-15 84 -68 122 -155 122c-125 0 -197 -92 -197 -239v-8c0 -69 15 -129 47 -170c32 -43 81 -67 152 -67
c60 0 102 17 130 45c28 27 41 65 42 106h-161v118h321v-76c0 -96 -31 -175 -88 -230c-57 -56 -141 -88 -248 -88z" />
    <glyph glyph-name="H" unicode="H" horiz-adv-x="776" 
d="M83 715h162v-292h287v292h162v-715h-162v295h-287v-295h-162v715z" />
    <glyph glyph-name="I" unicode="I" horiz-adv-x="337" 
d="M87 715h163v-715h-163v715z" />
    <glyph glyph-name="J" unicode="J" horiz-adv-x="469" 
d="M160 -9c-63 0 -94 9 -119 22v124c24 -9 47 -17 90 -17c61 0 101 30 101 113v482h163v-484c0 -163 -87 -240 -235 -240z" />
    <glyph glyph-name="K" unicode="K" horiz-adv-x="698" 
d="M83 715h162v-308l250 309h172l-283 -339l297 -377h-189l-247 321v-321h-162v715z" />
    <glyph glyph-name="L" unicode="L" horiz-adv-x="572" 
d="M83 715h162v-588h291v-127h-453v715z" />
    <glyph glyph-name="M" unicode="M" horiz-adv-x="923" 
d="M83 715h214l167 -445l165 445h210v-715h-161v502l-198 -502h-53l-199 502v-502h-145v715z" />
    <glyph glyph-name="N" unicode="N" horiz-adv-x="770" 
d="M83 715h188l272 -471v471h144v-715h-162l-298 509v-509h-144v715z" />
    <glyph glyph-name="O" unicode="O" horiz-adv-x="828" 
d="M416 118c60 0 109 24 144 65c33 40 53 100 53 172v8c0 69 -19 128 -52 169c-35 41 -84 65 -147 65s-111 -23 -146 -63c-35 -41 -53 -100 -53 -172v-8c0 -73 21 -132 57 -172c35 -41 85 -64 144 -64zM413 -11c-112 0 -204 39 -267 104c-64 64 -100 156 -100 260v8
c0 107 38 198 105 262c65 64 156 102 263 102c108 0 200 -36 265 -99c64 -64 103 -153 103 -261v-8c0 -107 -37 -199 -101 -264s-156 -104 -268 -104z" />
    <glyph glyph-name="P" unicode="P" horiz-adv-x="638" 
d="M83 715h247c175 0 273 -76 273 -228v-4c0 -76 -26 -131 -73 -168s-114 -55 -195 -55h-91v-260h-161v715zM326 373c81 0 121 37 121 109v4c0 76 -44 106 -121 106h-82v-219h82z" />
    <glyph glyph-name="Q" unicode="Q" horiz-adv-x="828" 
d="M548 10c-41 -13 -86 -21 -135 -21c-112 0 -204 39 -267 104c-64 64 -100 155 -100 260v8c0 107 38 198 105 262c65 64 156 102 263 102c108 0 200 -36 265 -99c64 -64 103 -154 103 -261v-8c0 -117 -42 -214 -118 -281l73 -78l-92 -91zM416 114c12 0 23 1 34 2l-68 74
l94 88l88 -95c31 43 49 100 49 172v8c0 69 -19 128 -52 169c-35 41 -84 65 -147 65c-125 0 -199 -90 -199 -235v-8c0 -76 21 -136 57 -176c35 -41 85 -64 144 -64z" />
    <glyph glyph-name="R" unicode="R" horiz-adv-x="684" 
d="M83 715h256c84 0 153 -17 201 -53s75 -91 75 -164v-4c0 -55 -15 -95 -42 -126s-64 -52 -105 -64l189 -304h-172l-171 276h-70v-276h-161v715zM335 386c81 0 122 35 122 103v4c0 73 -43 98 -122 98h-91v-205h91z" />
    <glyph glyph-name="S" unicode="S" horiz-adv-x="652" 
d="M333 -11c-99 0 -170 23 -218 64s-73 99 -77 171h155c4 -32 12 -62 33 -82c21 -21 54 -35 107 -35c72 0 118 39 118 95c0 28 -8 47 -28 62c-21 13 -55 23 -107 31c-92 12 -156 31 -197 66c-43 33 -61 82 -61 151c0 61 26 114 71 153c45 37 110 60 189 60
c161 0 255 -71 268 -214h-149c-9 64 -50 95 -119 95c-72 0 -107 -33 -107 -81c0 -25 6 -45 26 -58c19 -15 52 -25 107 -33c87 -11 152 -29 196 -61c44 -33 66 -83 66 -156c0 -64 -26 -121 -73 -161c-47 -41 -116 -67 -200 -67z" />
    <glyph glyph-name="T" unicode="T" horiz-adv-x="609" 
d="M223 589h-193v126h549v-126h-193v-589h-163v589z" />
    <glyph glyph-name="U" unicode="U" horiz-adv-x="751" 
d="M372 -11c-189 0 -295 99 -295 290v436h163v-426c0 -120 34 -171 133 -171c96 0 138 46 138 177v420h163v-430c0 -196 -107 -296 -302 -296z" />
    <glyph glyph-name="V" unicode="V" horiz-adv-x="713" 
d="M25 715h171l170 -549l170 549h152l-238 -715h-186z" />
    <glyph glyph-name="W" unicode="W" horiz-adv-x="983" 
d="M27 715h164l112 -494l122 494h138l127 -497l116 497h150l-174 -715h-165l-129 494l-131 -494h-156z" />
    <glyph glyph-name="X" unicode="X" horiz-adv-x="731" 
d="M263 367l-210 348h183l136 -238l135 238h166l-204 -343l226 -372h-184l-155 266l-154 -266h-166z" />
    <glyph glyph-name="Y" unicode="Y" horiz-adv-x="660" 
d="M255 308l-236 407h178l145 -274l142 274h157l-223 -407v-308h-163v308z" />
    <glyph glyph-name="Z" unicode="Z" horiz-adv-x="627" 
d="M24 20l341 569h-303v126h532v-19l-334 -569h322v-127h-558v20z" />
    <glyph glyph-name="bracketleft" unicode="[" horiz-adv-x="402" 
d="M80 776h276v-107h-131v-710h131v-107h-276v924z" />
    <glyph glyph-name="backslash" unicode="\" horiz-adv-x="435" 
d="M16 776h118l308 -924h-118z" />
    <glyph glyph-name="bracketright" unicode="]" horiz-adv-x="402" 
d="M47 -41h130v710h-130v107h275v-924h-275v107z" />
    <glyph glyph-name="asciicircum" unicode="^" horiz-adv-x="534" 
d="M202 715h130l166 -316h-129l-103 198l-104 -198h-125z" />
    <glyph glyph-name="underscore" unicode="_" horiz-adv-x="431" 
d="M5 -81h421v-79h-421v79z" />
    <glyph glyph-name="grave" unicode="`" horiz-adv-x="412" 
d="M57 753h152l57 -159h-105z" />
    <glyph glyph-name="a" unicode="a" horiz-adv-x="576" 
d="M211 -11c-48 0 -91 12 -123 37s-52 64 -52 119c0 61 28 103 76 130s116 38 196 38h59v21c0 63 -18 96 -85 96c-57 0 -82 -29 -89 -74h-137c4 61 32 107 73 136s98 43 162 43s118 -13 158 -44c39 -31 61 -79 61 -150v-341h-141v63c-31 -43 -75 -74 -158 -74zM254 90
c64 0 113 34 113 93v44h-56c-84 0 -133 -18 -133 -74c0 -39 23 -63 76 -63z" />
    <glyph glyph-name="b" unicode="b" horiz-adv-x="649" 
d="M382 -11c-81 0 -140 39 -167 94v-83h-145v760h145v-319c29 51 90 94 167 94c64 0 121 -24 162 -69s66 -112 66 -199v-8c0 -87 -25 -154 -65 -199c-41 -47 -98 -71 -163 -71zM339 102c80 0 124 53 124 156v8c0 107 -52 158 -125 158c-76 0 -128 -53 -128 -158v-8
c0 -105 49 -156 129 -156z" />
    <glyph glyph-name="c" unicode="c" horiz-adv-x="590" 
d="M307 -11c-76 0 -144 24 -192 69s-77 112 -77 197v8c0 84 30 152 79 200c49 47 116 72 191 72c60 0 119 -13 164 -45c44 -32 75 -83 82 -158h-137c-9 60 -45 89 -106 89c-76 0 -125 -56 -125 -156v-8c0 -105 47 -159 128 -159c59 0 105 33 112 101h131
c-4 -63 -28 -115 -71 -151c-43 -37 -103 -59 -179 -59z" />
    <glyph glyph-name="d" unicode="d" horiz-adv-x="649" 
d="M266 -11c-64 0 -120 23 -161 68c-41 44 -66 110 -66 197v8c0 85 25 154 66 201s99 72 164 72c84 0 136 -37 165 -90v315h144v-760h-144v87c-27 -53 -91 -98 -168 -98zM309 102c76 0 129 50 129 157v8c0 104 -45 157 -125 157c-81 0 -126 -55 -126 -159v-8
c0 -104 50 -155 122 -155z" />
    <glyph glyph-name="e" unicode="e" horiz-adv-x="599" 
d="M311 -11c-79 0 -147 24 -195 71c-49 45 -78 111 -78 195v8c0 83 29 150 78 198c48 47 115 74 191 74c68 0 131 -20 178 -63s77 -110 77 -203v-40h-377c4 -88 50 -137 130 -137c68 0 100 29 109 73h137c-17 -113 -106 -176 -250 -176zM421 318c-5 80 -45 117 -114 117
c-65 0 -109 -42 -120 -117h234z" />
    <glyph glyph-name="f" unicode="f" horiz-adv-x="383" 
d="M94 420h-69v103h69v60c0 123 70 183 187 183c31 0 52 -3 75 -10v-109c-15 5 -32 9 -53 9c-47 0 -65 -29 -65 -69v-64h114v-103h-114v-420h-144v420z" />
    <glyph glyph-name="g" unicode="g" horiz-adv-x="648" 
d="M302 -193c-84 0 -147 18 -188 50c-43 32 -65 77 -72 132h144c9 -47 41 -76 116 -76c88 0 132 45 132 128v79c-15 -25 -37 -50 -66 -67c-29 -19 -63 -30 -102 -30c-64 0 -121 24 -161 67c-41 43 -67 106 -67 183v7c0 75 25 139 66 184c41 44 99 71 164 71
c85 0 135 -37 166 -90v78h144v-482c-1 -156 -103 -234 -276 -234zM309 132c76 0 129 54 129 143v7c0 89 -46 143 -126 143c-81 0 -126 -57 -126 -144v-8c0 -88 51 -141 123 -141z" />
    <glyph glyph-name="h" unicode="h" horiz-adv-x="627" 
d="M70 760h145v-320c27 52 82 95 170 95c52 0 95 -16 127 -48c31 -33 49 -85 49 -154v-333h-145v312c0 72 -28 105 -92 105c-63 0 -109 -38 -109 -115v-302h-145v760z" />
    <glyph glyph-name="i" unicode="i" horiz-adv-x="293" 
d="M145 594c-47 0 -82 34 -82 79s35 79 82 79s83 -34 83 -79s-36 -79 -83 -79zM74 523h144v-523h-144v523z" />
    <glyph glyph-name="j" unicode="j" horiz-adv-x="293" 
d="M5 -79c51 4 69 26 69 69v533h144v-532c0 -55 -13 -98 -45 -129c-33 -31 -87 -48 -168 -49v108zM145 594c-47 0 -82 34 -82 79s35 79 82 79s83 -34 83 -79s-36 -79 -83 -79z" />
    <glyph glyph-name="k" unicode="k" horiz-adv-x="567" 
d="M70 760h145v-458l168 221h154l-190 -238l205 -285h-164l-173 247v-247h-145v760z" />
    <glyph glyph-name="l" unicode="l" horiz-adv-x="292" 
d="M74 760h144v-760h-144v760z" />
    <glyph glyph-name="m" unicode="m" horiz-adv-x="935" 
d="M70 523h145v-80c27 49 81 92 160 92c69 0 121 -28 146 -91c43 64 109 91 176 91c48 0 91 -15 123 -47c31 -33 49 -84 49 -153v-335h-144v319c0 68 -30 97 -82 97c-56 0 -101 -35 -101 -107v-309h-144v319c0 68 -31 97 -82 97c-56 0 -101 -35 -101 -107v-309h-145v523z
" />
    <glyph glyph-name="n" unicode="n" horiz-adv-x="627" 
d="M70 523h145v-83c27 52 82 95 170 95c52 0 95 -16 127 -48c31 -33 49 -85 49 -154v-333h-145v312c0 72 -28 105 -92 105c-63 0 -109 -38 -109 -115v-302h-145v523z" />
    <glyph glyph-name="o" unicode="o" horiz-adv-x="628" 
d="M314 99c81 0 128 59 128 159v7c0 100 -47 160 -128 160c-80 0 -128 -58 -128 -158v-8c0 -100 45 -160 128 -160zM313 -11c-79 0 -147 26 -196 73c-49 45 -79 113 -79 194v8c0 81 30 150 79 197s118 74 197 74s148 -26 197 -73c48 -47 78 -114 78 -195v-8
c0 -83 -30 -150 -79 -197s-118 -73 -197 -73z" />
    <glyph glyph-name="p" unicode="p" horiz-adv-x="649" 
d="M70 523h145v-82c29 51 90 94 167 94c64 0 121 -24 162 -69s66 -112 66 -199v-8c0 -87 -25 -154 -65 -199c-41 -47 -98 -71 -163 -71c-81 0 -140 40 -167 91v-258h-145v701zM339 102c80 0 124 53 124 156v8c0 107 -52 158 -125 158c-76 0 -128 -53 -128 -158v-8
c0 -105 49 -156 129 -156z" />
    <glyph glyph-name="q" unicode="q" horiz-adv-x="649" 
d="M434 84c-13 -25 -37 -49 -65 -66c-29 -17 -64 -29 -103 -29c-64 0 -120 23 -161 68c-41 44 -66 110 -66 197v8c0 85 25 154 66 201s99 72 164 72c84 0 136 -37 165 -90v78h144v-701h-144v262zM309 102c76 0 129 50 129 157v8c0 104 -45 157 -125 157
c-81 0 -126 -55 -126 -159v-8c0 -104 50 -155 122 -155z" />
    <glyph glyph-name="r" unicode="r" horiz-adv-x="421" 
d="M70 523h145v-100c33 71 84 107 169 108v-135c-108 1 -169 -34 -169 -134v-262h-145v523z" />
    <glyph glyph-name="s" unicode="s" horiz-adv-x="514" 
d="M260 -11c-141 0 -223 62 -228 175h135c7 -47 28 -74 92 -74c56 0 82 21 82 57s-30 51 -106 62c-69 11 -117 26 -148 51c-32 25 -45 61 -45 112c0 55 25 95 64 123c37 27 90 40 143 40c57 0 108 -11 147 -36c37 -25 62 -66 69 -126h-133c-8 43 -31 63 -82 63
c-47 0 -74 -22 -74 -54c0 -33 25 -46 101 -57c65 -9 116 -23 151 -47c33 -25 52 -61 52 -117c0 -113 -81 -172 -220 -172z" />
    <glyph glyph-name="t" unicode="t" horiz-adv-x="389" 
d="M261 -10c-111 0 -169 56 -169 165v265h-67v103h67v113h144v-113h110v-103h-110v-252c0 -41 19 -62 58 -62c21 0 39 3 55 10v-112c-20 -7 -49 -14 -88 -14z" />
    <glyph glyph-name="u" unicode="u" horiz-adv-x="624" 
d="M244 -11c-51 0 -95 15 -127 47s-51 82 -51 150v337h144v-317c0 -69 31 -105 91 -105c61 0 109 38 109 115v307h144v-523h-144v82c-27 -53 -79 -93 -166 -93z" />
    <glyph glyph-name="v" unicode="v" horiz-adv-x="584" 
d="M20 523h155l125 -374l124 374h140l-190 -523h-163z" />
    <glyph glyph-name="w" unicode="w" horiz-adv-x="838" 
d="M22 523h152l93 -352l101 352h119l92 -352l99 352h139l-165 -523h-142l-89 328l-96 -328h-144z" />
    <glyph glyph-name="x" unicode="x" horiz-adv-x="586" 
d="M202 267l-167 256h166l98 -157l96 157h150l-167 -245l184 -278h-167l-110 176l-113 -176h-149z" />
    <glyph glyph-name="y" unicode="y" horiz-adv-x="579" 
d="M228 53l-208 470h156l127 -314l117 314h139l-283 -701h-140z" />
    <glyph glyph-name="z" unicode="z" horiz-adv-x="511" 
d="M20 16l258 395h-232v112h442v-18l-260 -393h250v-112h-458v16z" />
    <glyph glyph-name="braceleft" unicode="{" horiz-adv-x="417" 
d="M370 -148c-183 0 -268 65 -241 222l16 92c9 52 -18 97 -105 97v103c87 0 114 45 105 97l-16 91c-15 80 1 136 42 172c40 36 108 51 199 51v-106c-84 -3 -113 -29 -100 -114l15 -107c11 -71 -30 -118 -101 -135c72 -16 112 -63 101 -135l-15 -106
c-13 -87 16 -114 100 -117v-105z" />
    <glyph glyph-name="bar" unicode="|" horiz-adv-x="274" 
d="M85 776h104v-924h-104v924z" />
    <glyph glyph-name="braceright" unicode="}" horiz-adv-x="417" 
d="M46 -43c85 3 113 30 101 117l-15 106c-11 72 29 119 101 135c-72 17 -112 64 -101 135l15 107c12 85 -16 111 -101 114v106c91 0 159 -15 200 -51c40 -36 55 -92 42 -172l-16 -91c-4 -27 0 -51 17 -68c16 -17 44 -29 87 -29v-103c-43 0 -71 -12 -87 -29
c-17 -17 -21 -43 -17 -68l16 -92c27 -157 -59 -222 -242 -222v105z" />
    <glyph glyph-name="asciitilde" unicode="~" horiz-adv-x="504" 
d="M40 218c4 61 21 104 45 132s55 40 87 40c35 0 64 -12 88 -23l33 -17c10 -5 19 -7 28 -7c24 0 41 17 45 49h98c-3 -59 -20 -102 -44 -130c-24 -29 -55 -43 -87 -43c-36 0 -65 12 -89 24c-24 11 -44 23 -61 23c-25 0 -41 -17 -45 -48h-98z" />
    <glyph glyph-name="uni00A0" unicode="&#xa0;" horiz-adv-x="266" 
 />
    <glyph glyph-name="exclamdown" unicode="&#xa1;" horiz-adv-x="329" 
d="M105 375h118l22 -492h-162zM165 434c-51 0 -92 38 -92 87c0 24 11 45 28 61c16 16 39 25 64 25s48 -9 65 -25c16 -16 26 -37 26 -61c0 -49 -40 -87 -91 -87z" />
    <glyph glyph-name="cent" unicode="&#xa2;" horiz-adv-x="596" 
d="M278 -9c-69 7 -129 33 -172 78c-43 44 -68 107 -68 186v8c0 77 26 141 69 188c43 45 103 74 171 82v96h71v-96c55 -5 105 -23 144 -55c37 -33 64 -81 69 -146h-134c-7 52 -36 80 -79 91v-328c47 11 83 44 88 104h128c-7 -116 -87 -196 -216 -208v-126h-71v126zM182 257
c0 -91 36 -144 96 -160v325c-59 -16 -96 -70 -96 -157v-8z" />
    <glyph glyph-name="sterling" unicode="&#xa3;" horiz-adv-x="647" 
d="M45 396h57c-9 32 -15 67 -15 108c0 69 27 124 74 163c45 37 109 58 181 58c81 0 142 -22 185 -61c41 -39 63 -94 67 -161h-149c-11 65 -38 98 -99 98c-59 0 -98 -40 -98 -104c0 -36 3 -69 10 -101h191v-99h-171c4 -27 7 -54 7 -83c0 -23 -5 -42 -12 -61
c48 -15 88 -34 121 -34c43 0 70 18 73 69h144c-3 -56 -20 -106 -52 -141s-77 -56 -136 -56c-48 0 -89 13 -124 28c-35 13 -65 28 -90 28c-36 0 -52 -22 -55 -47h-123c3 33 12 67 29 95s42 50 77 62c5 16 9 34 9 57c0 28 -6 55 -14 83h-87v99z" />
    <glyph glyph-name="yen" unicode="&#xa5;" horiz-adv-x="633" 
d="M77 356h144l-198 359h176l129 -266l126 266h155l-187 -359h145v-67h-164v-61h164v-66h-164v-162h-162v162h-164v66h164v61h-164v67z" />
    <glyph glyph-name="brokenbar" unicode="&#xa6;" horiz-adv-x="278" 
d="M85 300h104v-448h-104v448zM85 776h104v-406h-104v406z" />
    <glyph glyph-name="section" unicode="&#xa7;" horiz-adv-x="594" 
d="M289 -137c-129 0 -206 65 -210 176h135c3 -45 24 -74 76 -74c51 0 74 26 74 62c0 20 -7 33 -24 45c-19 12 -48 22 -95 34c-64 16 -116 34 -152 63c-37 29 -58 67 -58 123c0 68 42 113 110 136c-35 31 -51 68 -51 120c0 53 23 97 62 129c37 31 90 48 149 48
c128 0 202 -65 206 -174h-133c-4 44 -23 70 -75 70c-51 0 -73 -27 -73 -62c0 -20 6 -34 23 -46c16 -12 45 -21 92 -33c63 -15 115 -32 154 -60c37 -28 60 -67 60 -126c0 -64 -41 -112 -109 -137c33 -29 50 -67 50 -119c0 -51 -23 -95 -60 -126s-90 -49 -151 -49zM359 210
c43 11 60 32 60 64c0 21 -9 35 -26 47c-19 11 -46 20 -82 31l-76 23c-39 -7 -60 -30 -60 -65c0 -39 35 -54 110 -77z" />
    <glyph glyph-name="dieresis" unicode="&#xa8;" horiz-adv-x="412" 
d="M104 600c-41 0 -74 32 -74 72s33 72 74 72s74 -32 74 -72s-33 -72 -74 -72zM308 600c-41 0 -74 32 -74 72s33 72 74 72s74 -32 74 -72s-33 -72 -74 -72z" />
    <glyph glyph-name="copyright" unicode="&#xa9;" horiz-adv-x="855" 
d="M432 152c-135 0 -204 80 -204 201v8c0 61 21 111 57 147c36 35 87 55 144 55c101 0 174 -47 182 -150h-109c-5 44 -30 65 -73 65c-56 0 -89 -41 -89 -117v-7c0 -76 31 -116 91 -116c43 0 73 22 80 69h104c-4 -51 -24 -90 -56 -115c-32 -27 -76 -40 -127 -40zM427 32
c87 0 167 33 226 90s95 140 95 237c0 96 -36 177 -93 234c-59 57 -138 90 -226 90c-89 0 -171 -34 -228 -91c-59 -57 -94 -139 -94 -235c0 -97 37 -179 96 -235c57 -57 137 -90 224 -90zM427 -16c-104 0 -199 40 -267 108c-68 67 -110 160 -110 265c0 104 42 197 110 265
s162 109 269 109s201 -41 269 -108c67 -68 108 -160 108 -264c0 -107 -42 -200 -110 -267c-69 -67 -164 -108 -269 -108z" />
    <glyph glyph-name="ordfeminine" unicode="&#xaa;" horiz-adv-x="472" 
d="M175 288c-39 0 -74 9 -99 30c-25 20 -42 51 -42 95c0 49 22 82 59 103c37 20 91 29 158 29h47v19c0 44 -16 67 -61 67c-43 0 -60 -22 -65 -53h-122c4 49 24 86 59 110c33 24 79 36 134 36s100 -12 132 -36c32 -25 50 -65 50 -121v-269h-125v49c-23 -32 -58 -59 -125 -59z
M216 378c47 0 82 23 82 66v31h-43c-60 0 -93 -13 -93 -52c0 -29 15 -45 54 -45z" />
    <glyph glyph-name="guillemotleft" unicode="&#xab;" horiz-adv-x="499" 
d="M47 261l127 186h103l-122 -186l122 -186h-103zM226 261l127 186h103l-122 -186l122 -186h-103z" />
    <glyph glyph-name="uni00AD" unicode="&#xad;" horiz-adv-x="376" 
d="M60 339h256v-115h-256v115z" />
    <glyph glyph-name="registered" unicode="&#xae;" horiz-adv-x="528" 
d="M182 615h85c57 0 89 -22 89 -69v-1c0 -32 -17 -48 -40 -59l53 -90h-64l-45 79h-16v-79h-62v219zM264 515c21 0 32 10 32 27v1c0 17 -11 25 -32 25h-20v-53h20zM264 319c52 0 98 19 131 51s53 78 53 133s-19 101 -51 133c-33 32 -80 51 -133 51s-100 -19 -132 -51
c-33 -33 -52 -79 -52 -134s21 -101 54 -133c32 -32 78 -50 130 -50zM264 281c-63 0 -120 24 -161 64c-41 39 -66 94 -66 157c0 61 25 117 66 158c41 40 97 65 161 65s121 -25 161 -65s65 -96 65 -157c0 -63 -25 -118 -65 -158c-41 -40 -98 -64 -161 -64z" />
    <glyph glyph-name="macron" unicode="&#xaf;" horiz-adv-x="412" 
d="M60 712h291v-87h-291v87z" />
    <glyph glyph-name="degree" unicode="&#xb0;" horiz-adv-x="455" 
d="M228 456c53 0 90 44 90 100c0 59 -37 102 -90 102c-55 0 -93 -43 -93 -102c0 -56 38 -100 93 -100zM228 390c-48 0 -90 19 -121 50c-32 29 -51 71 -51 116s19 88 51 119c31 29 73 49 121 49s90 -20 121 -49c31 -31 50 -74 50 -119s-19 -87 -50 -116
c-31 -31 -73 -50 -121 -50z" />
    <glyph glyph-name="plusminus" unicode="&#xb1;" horiz-adv-x="563" 
d="M223 336h-180v108h180v172h118v-172h180v-108h-180v-171h-118v171zM43 100h480v-100h-480v100z" />
    <glyph glyph-name="twosuperior" unicode="&#xb2;" horiz-adv-x="341" 
d="M12 366l128 134c39 40 63 69 63 100c0 24 -13 39 -38 39c-27 0 -42 -17 -47 -57h-99c4 91 60 138 151 138c93 0 139 -48 139 -113c0 -51 -29 -88 -72 -129l-49 -48h124v-78h-300v14z" />
    <glyph glyph-name="threesuperior" unicode="&#xb3;" horiz-adv-x="363" 
d="M180 345c-53 0 -91 14 -116 35c-25 23 -38 54 -39 91h96c3 -28 18 -49 53 -49c32 0 48 16 48 41c0 28 -17 41 -50 41h-29v64h28c33 0 49 13 49 40c0 21 -13 36 -40 36s-45 -17 -49 -45h-96c5 71 55 121 147 121c89 0 141 -39 141 -100c0 -41 -24 -67 -64 -78
c43 -8 73 -38 73 -82c0 -69 -52 -115 -152 -115z" />
    <glyph glyph-name="acute" unicode="&#xb4;" horiz-adv-x="412" 
d="M203 753h152l-104 -159h-105z" />
    <glyph glyph-name="mu" unicode="&#xb5;" horiz-adv-x="615" 
d="M64 523h144v-323c0 -67 30 -101 91 -101c63 0 110 38 110 115v309h143v-523h-142v75c-19 -47 -59 -77 -119 -77c-32 0 -64 12 -83 43v-219h-144v701z" />
    <glyph glyph-name="paragraph" unicode="&#xb6;" horiz-adv-x="576" 
d="M269 335h-10c-65 0 -121 15 -158 47c-39 31 -61 77 -61 140c0 65 23 113 62 145s93 48 157 48h233v-815h-74v754h-76v-754h-73v435z" />
    <glyph glyph-name="periodcentered" unicode="&#xb7;" horiz-adv-x="305" 
d="M152 239c-51 0 -89 39 -89 88c0 48 38 87 89 87s90 -39 90 -87c0 -24 -10 -46 -26 -62s-39 -26 -64 -26z" />
    <glyph glyph-name="cedilla" unicode="&#xb8;" horiz-adv-x="412" 
d="M211 -222c-68 0 -110 34 -117 90h74c3 -16 15 -31 38 -31s35 14 35 33s-13 31 -34 31c-15 0 -24 -5 -31 -10l-36 35l45 74h65l-29 -48c27 3 52 -2 72 -17c19 -13 32 -35 32 -67c0 -59 -47 -90 -114 -90z" />
    <glyph glyph-name="onesuperior" unicode="&#xb9;" horiz-adv-x="278" 
d="M109 610l-82 -49v89l97 65h95v-363h-110v258z" />
    <glyph glyph-name="ordmasculine" unicode="&#xba;" horiz-adv-x="523" 
d="M262 386c60 0 91 43 91 118v6c0 73 -31 116 -91 116c-59 0 -92 -41 -92 -116v-6c0 -76 32 -118 92 -118zM261 288c-63 0 -119 20 -159 57c-40 36 -64 90 -64 155v6c0 67 24 121 64 160c40 37 96 58 160 58s119 -21 159 -57c40 -37 64 -91 64 -156v-6
c0 -67 -24 -122 -64 -159s-96 -58 -160 -58z" />
    <glyph glyph-name="guillemotright" unicode="&#xbb;" horiz-adv-x="499" 
d="M165 261l-121 186h103l126 -186l-126 -186h-103zM344 261l-121 186h103l126 -186l-126 -186h-103z" />
    <glyph glyph-name="onequarter" unicode="&#xbc;" horiz-adv-x="765" 
d="M112 610l-82 -49v89l97 65h95v-363h-110v258zM606 715h84l-540 -715h-84zM584 69h-181v40l155 254h131v-221h47v-73h-47v-69h-105v69zM587 142v147l-85 -147h85z" />
    <glyph glyph-name="onehalf" unicode="&#xbd;" horiz-adv-x="772" 
d="M112 610l-82 -49v89l97 65h95v-363h-110v258zM593 715h84l-540 -715h-84zM439 14l128 134c39 40 63 69 63 100c0 24 -13 39 -38 39c-27 0 -42 -17 -47 -57h-99c4 91 60 138 151 138c93 0 139 -48 139 -113c0 -51 -29 -88 -72 -129l-49 -48h124v-78h-300v14z" />
    <glyph glyph-name="threequarters" unicode="&#xbe;" horiz-adv-x="785" 
d="M183 345c-53 0 -91 14 -116 35c-25 23 -38 54 -39 91h96c3 -28 18 -49 53 -49c32 0 48 16 48 41c0 28 -17 41 -50 41h-29v64h28c33 0 49 13 49 40c0 21 -13 36 -40 36s-45 -17 -49 -45h-96c5 71 55 121 147 121c89 0 141 -39 141 -100c0 -41 -24 -67 -64 -78
c43 -8 73 -38 73 -82c0 -69 -52 -115 -152 -115zM649 715h84l-540 -715h-84zM602 69h-181v40l155 254h131v-221h47v-73h-47v-69h-105v69zM605 142v147l-85 -147h85z" />
    <glyph glyph-name="questiondown" unicode="&#xbf;" horiz-adv-x="544" 
d="M365 345c0 -39 -13 -71 -32 -98c-19 -28 -43 -51 -67 -74c-37 -35 -68 -67 -68 -107c0 -47 24 -75 77 -75c56 0 92 39 99 103h139c-3 -69 -29 -123 -72 -162c-44 -37 -104 -58 -175 -58c-75 0 -130 18 -167 50s-56 77 -56 130c0 33 10 63 25 88s36 47 57 68
c24 24 49 45 69 68s34 45 37 72v25h134v-30zM299 607c51 0 91 -38 91 -86c0 -24 -10 -46 -26 -61c-17 -16 -40 -26 -65 -26s-48 10 -64 26c-17 15 -27 37 -27 61s10 45 27 61c16 16 39 25 64 25z" />
    <glyph glyph-name="Agrave" unicode="&#xc0;" horiz-adv-x="732" 
d="M262 715h211l232 -715h-169l-49 159h-259l-49 -159h-152zM263 274h189l-94 309zM219 902h156l52 -139h-109z" />
    <glyph glyph-name="Aacute" unicode="&#xc1;" horiz-adv-x="732" 
d="M262 715h211l232 -715h-169l-49 159h-259l-49 -159h-152zM263 274h189l-94 309zM356 902h157l-101 -139h-109z" />
    <glyph glyph-name="Acircumflex" unicode="&#xc2;" horiz-adv-x="732" 
d="M262 715h211l232 -715h-169l-49 159h-259l-49 -159h-152zM263 274h189l-94 309zM305 902h123l108 -139h-104l-68 53l-69 -53h-102z" />
    <glyph glyph-name="Atilde" unicode="&#xc3;" horiz-adv-x="732" 
d="M262 715h211l232 -715h-169l-49 159h-259l-49 -159h-152zM263 274h189l-94 309zM426 764c-27 0 -47 10 -66 19c-19 8 -34 18 -49 18c-19 0 -31 -16 -35 -37h-86c7 92 54 140 114 140c24 0 45 -10 65 -19c19 -9 35 -19 51 -19c19 0 30 16 34 37h87
c-8 -92 -58 -139 -115 -139z" />
    <glyph glyph-name="Adieresis" unicode="&#xc4;" horiz-adv-x="732" 
d="M262 715h211l232 -715h-169l-49 159h-259l-49 -159h-152zM263 274h189l-94 309zM257 769c-41 0 -74 33 -74 73s33 72 74 72c40 0 74 -32 74 -72s-34 -73 -74 -73zM472 769c-40 0 -73 33 -73 73s33 72 73 72c41 0 74 -32 74 -72s-33 -73 -74 -73z" />
    <glyph glyph-name="Aring" unicode="&#xc5;" horiz-adv-x="732" 
d="M262 715h211l232 -715h-169l-49 159h-259l-49 -159h-152zM263 274h189l-94 309zM365 808c28 0 49 22 49 53s-21 54 -49 54c-29 0 -49 -23 -49 -54s20 -53 49 -53zM365 750c-32 0 -60 13 -81 33s-34 47 -34 78s13 59 34 79s49 33 81 33s60 -13 81 -33s34 -48 34 -79
s-13 -58 -34 -78s-49 -33 -81 -33z" />
    <glyph glyph-name="AE" unicode="&#xc6;" horiz-adv-x="995" 
d="M363 715h574v-126h-300v-167h239v-118h-239v-178h317v-126h-479v168h-218l-77 -168h-157zM309 280h166v309h-24z" />
    <glyph glyph-name="Ccedilla" unicode="&#xc7;" horiz-adv-x="760" 
d="M385 -222c-68 0 -110 34 -117 90h74c3 -16 15 -31 38 -31s35 14 35 33s-13 31 -34 31c-15 0 -24 -5 -31 -10l-36 35l40 66c-100 9 -177 48 -229 111s-79 147 -79 250v8c0 108 38 200 102 264c63 64 152 101 253 101c85 0 161 -21 217 -64c55 -43 92 -108 100 -196h-166
c-12 87 -59 132 -150 132c-113 0 -185 -87 -185 -236v-8c0 -149 67 -234 186 -234c89 0 151 45 164 137h159c-9 -87 -44 -152 -97 -197c-55 -45 -127 -68 -212 -71l-22 -37c27 3 52 -2 72 -17c19 -13 32 -35 32 -67c0 -59 -47 -90 -114 -90z" />
    <glyph glyph-name="Egrave" unicode="&#xc8;" horiz-adv-x="607" 
d="M83 715h466v-126h-305v-167h244v-118h-244v-178h321v-126h-482v715zM177 902h156l52 -139h-109z" />
    <glyph glyph-name="Eacute" unicode="&#xc9;" horiz-adv-x="607" 
d="M83 715h466v-126h-305v-167h244v-118h-244v-178h321v-126h-482v715zM314 902h157l-101 -139h-109z" />
    <glyph glyph-name="Ecircumflex" unicode="&#xca;" horiz-adv-x="607" 
d="M83 715h466v-126h-305v-167h244v-118h-244v-178h321v-126h-482v715zM263 902h123l108 -139h-104l-68 53l-69 -53h-102z" />
    <glyph glyph-name="Edieresis" unicode="&#xcb;" horiz-adv-x="607" 
d="M83 715h466v-126h-305v-167h244v-118h-244v-178h321v-126h-482v715zM215 769c-41 0 -74 33 -74 73s33 72 74 72c40 0 74 -32 74 -72s-34 -73 -74 -73zM430 769c-40 0 -73 33 -73 73s33 72 73 72c41 0 74 -32 74 -72s-33 -73 -74 -73z" />
    <glyph glyph-name="Igrave" unicode="&#xcc;" horiz-adv-x="337" 
d="M87 715h163v-715h-163v715zM22 902h156l52 -139h-109z" />
    <glyph glyph-name="Iacute" unicode="&#xcd;" horiz-adv-x="337" 
d="M87 715h163v-715h-163v715zM159 902h157l-101 -139h-109z" />
    <glyph glyph-name="Icircumflex" unicode="&#xce;" horiz-adv-x="337" 
d="M87 715h163v-715h-163v715zM108 902h123l108 -139h-104l-68 53l-69 -53h-102z" />
    <glyph glyph-name="Idieresis" unicode="&#xcf;" horiz-adv-x="337" 
d="M87 715h163v-715h-163v715zM60 769c-41 0 -74 33 -74 73s33 72 74 72c40 0 74 -32 74 -72s-34 -73 -74 -73zM275 769c-40 0 -73 33 -73 73s33 72 73 72c41 0 74 -32 74 -72s-33 -73 -74 -73z" />
    <glyph glyph-name="Eth" unicode="&#xd0;" horiz-adv-x="765" 
d="M37 415h65v300h234c125 0 219 -34 282 -94c61 -61 93 -149 93 -256v-8c0 -107 -31 -196 -94 -259s-157 -98 -282 -98h-233v303h-65v112zM330 126c145 0 212 80 212 229v8c0 148 -62 226 -213 226h-67v-174h151v-112h-151v-177h68z" />
    <glyph glyph-name="Ntilde" unicode="&#xd1;" horiz-adv-x="770" 
d="M83 715h188l272 -471v471h144v-715h-162l-298 509v-509h-144v715zM461 764c-27 0 -47 10 -66 19c-19 8 -34 18 -49 18c-19 0 -31 -16 -35 -37h-86c7 92 54 140 114 140c24 0 45 -10 65 -19c19 -9 35 -19 51 -19c19 0 30 16 34 37h87c-8 -92 -58 -139 -115 -139z" />
    <glyph glyph-name="Ograve" unicode="&#xd2;" horiz-adv-x="828" 
d="M416 118c60 0 109 24 144 65c33 40 53 100 53 172v8c0 69 -19 128 -52 169c-35 41 -84 65 -147 65s-111 -23 -146 -63c-35 -41 -53 -100 -53 -172v-8c0 -73 21 -132 57 -172c35 -41 85 -64 144 -64zM413 -11c-112 0 -204 39 -267 104c-64 64 -100 156 -100 260v8
c0 107 38 198 105 262c65 64 156 102 263 102c108 0 200 -36 265 -99c64 -64 103 -153 103 -261v-8c0 -107 -37 -199 -101 -264s-156 -104 -268 -104zM267 902h156l52 -139h-109z" />
    <glyph glyph-name="Oacute" unicode="&#xd3;" horiz-adv-x="828" 
d="M416 118c60 0 109 24 144 65c33 40 53 100 53 172v8c0 69 -19 128 -52 169c-35 41 -84 65 -147 65s-111 -23 -146 -63c-35 -41 -53 -100 -53 -172v-8c0 -73 21 -132 57 -172c35 -41 85 -64 144 -64zM413 -11c-112 0 -204 39 -267 104c-64 64 -100 156 -100 260v8
c0 107 38 198 105 262c65 64 156 102 263 102c108 0 200 -36 265 -99c64 -64 103 -153 103 -261v-8c0 -107 -37 -199 -101 -264s-156 -104 -268 -104zM404 902h157l-101 -139h-109z" />
    <glyph glyph-name="Ocircumflex" unicode="&#xd4;" horiz-adv-x="828" 
d="M416 118c60 0 109 24 144 65c33 40 53 100 53 172v8c0 69 -19 128 -52 169c-35 41 -84 65 -147 65s-111 -23 -146 -63c-35 -41 -53 -100 -53 -172v-8c0 -73 21 -132 57 -172c35 -41 85 -64 144 -64zM413 -11c-112 0 -204 39 -267 104c-64 64 -100 156 -100 260v8
c0 107 38 198 105 262c65 64 156 102 263 102c108 0 200 -36 265 -99c64 -64 103 -153 103 -261v-8c0 -107 -37 -199 -101 -264s-156 -104 -268 -104zM353 902h123l108 -139h-104l-68 53l-69 -53h-102z" />
    <glyph glyph-name="Otilde" unicode="&#xd5;" horiz-adv-x="828" 
d="M416 118c60 0 109 24 144 65c33 40 53 100 53 172v8c0 69 -19 128 -52 169c-35 41 -84 65 -147 65s-111 -23 -146 -63c-35 -41 -53 -100 -53 -172v-8c0 -73 21 -132 57 -172c35 -41 85 -64 144 -64zM413 -11c-112 0 -204 39 -267 104c-64 64 -100 156 -100 260v8
c0 107 38 198 105 262c65 64 156 102 263 102c108 0 200 -36 265 -99c64 -64 103 -153 103 -261v-8c0 -107 -37 -199 -101 -264s-156 -104 -268 -104zM474 764c-27 0 -47 10 -66 19c-19 8 -34 18 -49 18c-19 0 -31 -16 -35 -37h-86c7 92 54 140 114 140c24 0 45 -10 65 -19
c19 -9 35 -19 51 -19c19 0 30 16 34 37h87c-8 -92 -58 -139 -115 -139z" />
    <glyph glyph-name="Odieresis" unicode="&#xd6;" horiz-adv-x="828" 
d="M416 118c60 0 109 24 144 65c33 40 53 100 53 172v8c0 69 -19 128 -52 169c-35 41 -84 65 -147 65s-111 -23 -146 -63c-35 -41 -53 -100 -53 -172v-8c0 -73 21 -132 57 -172c35 -41 85 -64 144 -64zM413 -11c-112 0 -204 39 -267 104c-64 64 -100 156 -100 260v8
c0 107 38 198 105 262c65 64 156 102 263 102c108 0 200 -36 265 -99c64 -64 103 -153 103 -261v-8c0 -107 -37 -199 -101 -264s-156 -104 -268 -104zM305 769c-41 0 -74 33 -74 73s33 72 74 72c40 0 74 -32 74 -72s-34 -73 -74 -73zM520 769c-40 0 -73 33 -73 73
s33 72 73 72c41 0 74 -32 74 -72s-33 -73 -74 -73z" />
    <glyph glyph-name="multiply" unicode="&#xd7;" horiz-adv-x="546" 
d="M42 182l153 153l-154 154l77 78l154 -155l153 153l78 -77l-154 -153l155 -154l-78 -78l-154 155l-153 -153z" />
    <glyph glyph-name="Oslash" unicode="&#xd8;" horiz-adv-x="828" 
d="M39 21l87 93c-52 63 -80 144 -80 239v8c0 107 38 198 105 262c65 64 156 102 263 102c87 0 162 -24 222 -65l76 81l54 -54l-73 -78c56 -63 89 -145 89 -244v-8c0 -107 -37 -199 -101 -264s-156 -104 -268 -104c-93 0 -172 25 -233 72l-87 -93zM416 118
c61 0 110 24 145 65c35 40 54 100 54 172v8c0 51 -9 95 -28 132l-306 -327c36 -33 80 -50 135 -50zM213 354c0 -47 8 -87 23 -122l303 324c-33 28 -74 41 -125 41c-125 0 -201 -90 -201 -235v-8z" />
    <glyph glyph-name="Ugrave" unicode="&#xd9;" horiz-adv-x="751" 
d="M372 -11c-189 0 -295 99 -295 290v436h163v-426c0 -120 34 -171 133 -171c96 0 138 46 138 177v420h163v-430c0 -196 -107 -296 -302 -296zM228 902h156l52 -139h-109z" />
    <glyph glyph-name="Uacute" unicode="&#xda;" horiz-adv-x="751" 
d="M372 -11c-189 0 -295 99 -295 290v436h163v-426c0 -120 34 -171 133 -171c96 0 138 46 138 177v420h163v-430c0 -196 -107 -296 -302 -296zM365 902h157l-101 -139h-109z" />
    <glyph glyph-name="Ucircumflex" unicode="&#xdb;" horiz-adv-x="751" 
d="M372 -11c-189 0 -295 99 -295 290v436h163v-426c0 -120 34 -171 133 -171c96 0 138 46 138 177v420h163v-430c0 -196 -107 -296 -302 -296zM314 902h123l108 -139h-104l-68 53l-69 -53h-102z" />
    <glyph glyph-name="Udieresis" unicode="&#xdc;" horiz-adv-x="751" 
d="M372 -11c-189 0 -295 99 -295 290v436h163v-426c0 -120 34 -171 133 -171c96 0 138 46 138 177v420h163v-430c0 -196 -107 -296 -302 -296zM266 769c-41 0 -74 33 -74 73s33 72 74 72c40 0 74 -32 74 -72s-34 -73 -74 -73zM481 769c-40 0 -73 33 -73 73s33 72 73 72
c41 0 74 -32 74 -72s-33 -73 -74 -73z" />
    <glyph glyph-name="Yacute" unicode="&#xdd;" horiz-adv-x="660" 
d="M255 308l-236 407h178l145 -274l142 274h157l-223 -407v-308h-163v308zM325 902h157l-101 -139h-109z" />
    <glyph glyph-name="Thorn" unicode="&#xde;" horiz-adv-x="638" 
d="M83 715h161v-123h86c173 0 273 -69 273 -221v-4c0 -75 -26 -130 -73 -166c-47 -37 -114 -55 -195 -55h-91v-146h-161v715zM326 260c81 0 121 36 121 107v4c0 76 -44 103 -121 103h-82v-214h82z" />
    <glyph glyph-name="germandbls" unicode="&#xdf;" horiz-adv-x="631" 
d="M370 -10c-43 0 -77 8 -94 13v112c15 -7 36 -12 63 -12s54 6 74 26c20 19 34 50 34 102v6c0 97 -64 140 -159 139v110c41 0 70 12 89 31c17 17 25 42 25 66v4c0 55 -32 86 -92 86c-59 0 -96 -42 -96 -110v-563h-144v552c0 75 29 130 74 167c44 36 106 54 173 54
c68 0 123 -16 162 -47c39 -32 60 -78 60 -135v-2c0 -68 -47 -126 -119 -149c48 -12 92 -35 124 -70c31 -36 50 -83 50 -140v-7c0 -83 -25 -141 -65 -178c-41 -37 -98 -55 -159 -55z" />
    <glyph glyph-name="agrave" unicode="&#xe0;" horiz-adv-x="576" 
d="M211 -11c-48 0 -91 12 -123 37s-52 64 -52 119c0 61 28 103 76 130s116 38 196 38h59v21c0 63 -18 96 -85 96c-57 0 -82 -29 -89 -74h-137c4 61 32 107 73 136s98 43 162 43s118 -13 158 -44c39 -31 61 -79 61 -150v-341h-141v63c-31 -43 -75 -74 -158 -74zM254 90
c64 0 113 34 113 93v44h-56c-84 0 -133 -18 -133 -74c0 -39 23 -63 76 -63zM139 753h152l57 -159h-105z" />
    <glyph glyph-name="aacute" unicode="&#xe1;" horiz-adv-x="576" 
d="M211 -11c-48 0 -91 12 -123 37s-52 64 -52 119c0 61 28 103 76 130s116 38 196 38h59v21c0 63 -18 96 -85 96c-57 0 -82 -29 -89 -74h-137c4 61 32 107 73 136s98 43 162 43s118 -13 158 -44c39 -31 61 -79 61 -150v-341h-141v63c-31 -43 -75 -74 -158 -74zM254 90
c64 0 113 34 113 93v44h-56c-84 0 -133 -18 -133 -74c0 -39 23 -63 76 -63zM289 753h152l-104 -159h-105z" />
    <glyph glyph-name="acircumflex" unicode="&#xe2;" horiz-adv-x="576" 
d="M211 -11c-48 0 -91 12 -123 37s-52 64 -52 119c0 61 28 103 76 130s116 38 196 38h59v21c0 63 -18 96 -85 96c-57 0 -82 -29 -89 -74h-137c4 61 32 107 73 136s98 43 162 43s118 -13 158 -44c39 -31 61 -79 61 -150v-341h-141v63c-31 -43 -75 -74 -158 -74zM254 90
c64 0 113 34 113 93v44h-56c-84 0 -133 -18 -133 -74c0 -39 23 -63 76 -63zM230 751h109l114 -156h-102l-69 63l-70 -63h-99z" />
    <glyph glyph-name="atilde" unicode="&#xe3;" horiz-adv-x="576" 
d="M211 -11c-48 0 -91 12 -123 37s-52 64 -52 119c0 61 28 103 76 130s116 38 196 38h59v21c0 63 -18 96 -85 96c-57 0 -82 -29 -89 -74h-137c4 61 32 107 73 136s98 43 162 43s118 -13 158 -44c39 -31 61 -79 61 -150v-341h-141v63c-31 -43 -75 -74 -158 -74zM254 90
c64 0 113 34 113 93v44h-56c-84 0 -133 -18 -133 -74c0 -39 23 -63 76 -63zM350 598c-25 0 -47 10 -64 19l-26 13c-8 4 -16 6 -23 6c-17 0 -31 -16 -35 -37h-83c7 92 50 141 110 141c24 0 45 -10 64 -18c19 -9 35 -19 51 -19c19 0 30 14 34 37h84c-8 -93 -55 -142 -112 -142
z" />
    <glyph glyph-name="adieresis" unicode="&#xe4;" horiz-adv-x="576" 
d="M211 -11c-48 0 -91 12 -123 37s-52 64 -52 119c0 61 28 103 76 130s116 38 196 38h59v21c0 63 -18 96 -85 96c-57 0 -82 -29 -89 -74h-137c4 61 32 107 73 136s98 43 162 43s118 -13 158 -44c39 -31 61 -79 61 -150v-341h-141v63c-31 -43 -75 -74 -158 -74zM254 90
c64 0 113 34 113 93v44h-56c-84 0 -133 -18 -133 -74c0 -39 23 -63 76 -63zM188 600c-41 0 -74 32 -74 72s33 72 74 72s74 -32 74 -72s-33 -72 -74 -72zM392 600c-41 0 -74 32 -74 72s33 72 74 72s74 -32 74 -72s-33 -72 -74 -72z" />
    <glyph glyph-name="aring" unicode="&#xe5;" horiz-adv-x="576" 
d="M211 -11c-48 0 -91 12 -123 37s-52 64 -52 119c0 61 28 103 76 130s116 38 196 38h59v21c0 63 -18 96 -85 96c-57 0 -82 -29 -89 -74h-137c4 61 32 107 73 136s98 43 162 43s118 -13 158 -44c39 -31 61 -79 61 -150v-341h-141v63c-31 -43 -75 -74 -158 -74zM254 90
c64 0 113 34 113 93v44h-56c-84 0 -133 -18 -133 -74c0 -39 23 -63 76 -63zM292 643c28 0 49 22 49 53s-21 54 -49 54c-29 0 -49 -23 -49 -54s20 -53 49 -53zM292 585c-32 0 -60 13 -81 33s-34 47 -34 78s13 59 34 79s49 33 81 33s60 -13 81 -33s34 -48 34 -79
s-13 -58 -34 -78s-49 -33 -81 -33z" />
    <glyph glyph-name="ae" unicode="&#xe6;" horiz-adv-x="910" 
d="M629 -11c-92 0 -160 33 -201 97c-45 -64 -106 -97 -206 -97c-51 0 -98 12 -131 37c-35 25 -55 64 -55 119c0 61 28 104 76 132c47 27 114 39 194 39h62v18c0 63 -21 96 -85 96c-59 0 -83 -27 -90 -74h-137c4 61 32 107 73 136c40 29 96 43 157 43c77 0 135 -19 167 -70
c43 45 99 70 171 70c65 0 129 -19 174 -62s75 -110 75 -202v-39h-367c5 -91 45 -140 124 -140c65 0 97 29 105 73h136c-16 -113 -103 -176 -242 -176zM254 90c68 0 114 34 114 93v46h-59c-81 0 -131 -17 -131 -73c0 -41 23 -66 76 -66zM732 318c-5 77 -41 117 -108 117
c-64 0 -107 -44 -116 -117h224z" />
    <glyph glyph-name="ccedilla" unicode="&#xe7;" horiz-adv-x="590" 
d="M288 -222c-68 0 -110 34 -117 90h74c3 -16 15 -31 38 -31s35 14 35 33s-13 31 -34 31c-15 0 -24 -5 -31 -10l-36 35l40 67c-64 9 -118 37 -157 81c-40 44 -62 105 -62 181v8c0 84 30 152 79 200c49 47 116 72 191 72c60 0 119 -13 164 -45c44 -32 75 -83 82 -158h-137
c-9 60 -45 89 -106 89c-76 0 -125 -56 -125 -156v-8c0 -105 47 -159 128 -159c59 0 105 33 112 101h131c-8 -121 -93 -205 -237 -210l-22 -37c27 3 52 -2 72 -17c19 -13 32 -35 32 -67c0 -59 -47 -90 -114 -90z" />
    <glyph glyph-name="egrave" unicode="&#xe8;" horiz-adv-x="599" 
d="M311 -11c-79 0 -147 24 -195 71c-49 45 -78 111 -78 195v8c0 83 29 150 78 198c48 47 115 74 191 74c68 0 131 -20 178 -63s77 -110 77 -203v-40h-377c4 -88 50 -137 130 -137c68 0 100 29 109 73h137c-17 -113 -106 -176 -250 -176zM421 318c-5 80 -45 117 -114 117
c-65 0 -109 -42 -120 -117h234zM153 753h152l57 -159h-105z" />
    <glyph glyph-name="eacute" unicode="&#xe9;" horiz-adv-x="599" 
d="M311 -11c-79 0 -147 24 -195 71c-49 45 -78 111 -78 195v8c0 83 29 150 78 198c48 47 115 74 191 74c68 0 131 -20 178 -63s77 -110 77 -203v-40h-377c4 -88 50 -137 130 -137c68 0 100 29 109 73h137c-17 -113 -106 -176 -250 -176zM421 318c-5 80 -45 117 -114 117
c-65 0 -109 -42 -120 -117h234zM303 753h152l-104 -159h-105z" />
    <glyph glyph-name="ecircumflex" unicode="&#xea;" horiz-adv-x="599" 
d="M311 -11c-79 0 -147 24 -195 71c-49 45 -78 111 -78 195v8c0 83 29 150 78 198c48 47 115 74 191 74c68 0 131 -20 178 -63s77 -110 77 -203v-40h-377c4 -88 50 -137 130 -137c68 0 100 29 109 73h137c-17 -113 -106 -176 -250 -176zM421 318c-5 80 -45 117 -114 117
c-65 0 -109 -42 -120 -117h234zM251 751h109l114 -156h-102l-69 63l-70 -63h-99z" />
    <glyph glyph-name="edieresis" unicode="&#xeb;" horiz-adv-x="599" 
d="M311 -11c-79 0 -147 24 -195 71c-49 45 -78 111 -78 195v8c0 83 29 150 78 198c48 47 115 74 191 74c68 0 131 -20 178 -63s77 -110 77 -203v-40h-377c4 -88 50 -137 130 -137c68 0 100 29 109 73h137c-17 -113 -106 -176 -250 -176zM421 318c-5 80 -45 117 -114 117
c-65 0 -109 -42 -120 -117h234zM202 600c-41 0 -74 32 -74 72s33 72 74 72s74 -32 74 -72s-33 -72 -74 -72zM406 600c-41 0 -74 32 -74 72s33 72 74 72s74 -32 74 -72s-33 -72 -74 -72z" />
    <glyph glyph-name="igrave" unicode="&#xec;" horiz-adv-x="293" 
d="M74 523h144v-523h-144v523zM-4 753h152l57 -159h-105z" />
    <glyph glyph-name="iacute" unicode="&#xed;" horiz-adv-x="293" 
d="M74 523h144v-523h-144v523zM146 753h152l-104 -159h-105z" />
    <glyph glyph-name="icircumflex" unicode="&#xee;" horiz-adv-x="293" 
d="M74 523h144v-523h-144v523zM94 751h109l114 -156h-102l-69 63l-70 -63h-99z" />
    <glyph glyph-name="idieresis" unicode="&#xef;" horiz-adv-x="293" 
d="M46 600c-40 0 -73 32 -73 72s33 72 73 72c41 0 74 -32 74 -72s-33 -72 -74 -72zM245 600c-40 0 -73 32 -73 72s33 72 73 72c41 0 74 -32 74 -72s-33 -72 -74 -72zM74 523h144v-523h-144v523z" />
    <glyph glyph-name="eth" unicode="&#xf0;" horiz-adv-x="628" 
d="M137 619l106 46c-41 35 -84 67 -123 95h165c23 -13 46 -28 70 -47l99 43l25 -58l-69 -30c45 -43 91 -97 124 -158c33 -63 55 -134 55 -213v-22c0 -87 -28 -159 -77 -208c-49 -51 -118 -78 -201 -78c-79 0 -146 26 -195 74c-49 47 -78 114 -78 198v10c0 80 29 144 73 189
s103 70 163 70c57 0 92 -19 123 -54c-24 51 -61 98 -104 142l-130 -56zM314 99c81 0 128 59 128 159v7c0 100 -46 160 -127 160c-80 0 -129 -58 -129 -158v-8c0 -101 45 -160 128 -160z" />
    <glyph glyph-name="ntilde" unicode="&#xf1;" horiz-adv-x="627" 
d="M70 523h145v-83c27 52 82 95 170 95c52 0 95 -16 127 -48c31 -33 49 -85 49 -154v-333h-145v312c0 72 -28 105 -92 105c-63 0 -109 -38 -109 -115v-302h-145v523zM373 598c-25 0 -47 10 -64 19l-26 13c-8 4 -16 6 -23 6c-17 0 -31 -16 -35 -37h-83c7 92 50 141 110 141
c24 0 45 -10 64 -18c19 -9 35 -19 51 -19c19 0 30 14 34 37h84c-8 -93 -55 -142 -112 -142z" />
    <glyph glyph-name="ograve" unicode="&#xf2;" horiz-adv-x="628" 
d="M314 99c81 0 128 59 128 159v7c0 100 -47 160 -128 160c-80 0 -128 -58 -128 -158v-8c0 -100 45 -160 128 -160zM313 -11c-79 0 -147 26 -196 73c-49 45 -79 113 -79 194v8c0 81 30 150 79 197s118 74 197 74s148 -26 197 -73c48 -47 78 -114 78 -195v-8
c0 -83 -30 -150 -79 -197s-118 -73 -197 -73zM162 753h152l57 -159h-105z" />
    <glyph glyph-name="oacute" unicode="&#xf3;" horiz-adv-x="628" 
d="M314 99c81 0 128 59 128 159v7c0 100 -47 160 -128 160c-80 0 -128 -58 -128 -158v-8c0 -100 45 -160 128 -160zM313 -11c-79 0 -147 26 -196 73c-49 45 -79 113 -79 194v8c0 81 30 150 79 197s118 74 197 74s148 -26 197 -73c48 -47 78 -114 78 -195v-8
c0 -83 -30 -150 -79 -197s-118 -73 -197 -73zM312 753h152l-104 -159h-105z" />
    <glyph glyph-name="ocircumflex" unicode="&#xf4;" horiz-adv-x="628" 
d="M314 99c81 0 128 59 128 159v7c0 100 -47 160 -128 160c-80 0 -128 -58 -128 -158v-8c0 -100 45 -160 128 -160zM313 -11c-79 0 -147 26 -196 73c-49 45 -79 113 -79 194v8c0 81 30 150 79 197s118 74 197 74s148 -26 197 -73c48 -47 78 -114 78 -195v-8
c0 -83 -30 -150 -79 -197s-118 -73 -197 -73zM260 751h109l114 -156h-102l-69 63l-70 -63h-99z" />
    <glyph glyph-name="otilde" unicode="&#xf5;" horiz-adv-x="628" 
d="M314 99c81 0 128 59 128 159v7c0 100 -47 160 -128 160c-80 0 -128 -58 -128 -158v-8c0 -100 45 -160 128 -160zM313 -11c-79 0 -147 26 -196 73c-49 45 -79 113 -79 194v8c0 81 30 150 79 197s118 74 197 74s148 -26 197 -73c48 -47 78 -114 78 -195v-8
c0 -83 -30 -150 -79 -197s-118 -73 -197 -73zM373 598c-25 0 -47 10 -64 19l-26 13c-8 4 -16 6 -23 6c-17 0 -31 -16 -35 -37h-83c7 92 50 141 110 141c24 0 45 -10 64 -18c19 -9 35 -19 51 -19c19 0 30 14 34 37h84c-8 -93 -55 -142 -112 -142z" />
    <glyph glyph-name="odieresis" unicode="&#xf6;" horiz-adv-x="628" 
d="M314 99c81 0 128 59 128 159v7c0 100 -47 160 -128 160c-80 0 -128 -58 -128 -158v-8c0 -100 45 -160 128 -160zM313 -11c-79 0 -147 26 -196 73c-49 45 -79 113 -79 194v8c0 81 30 150 79 197s118 74 197 74s148 -26 197 -73c48 -47 78 -114 78 -195v-8
c0 -83 -30 -150 -79 -197s-118 -73 -197 -73zM211 600c-41 0 -74 32 -74 72s33 72 74 72s74 -32 74 -72s-33 -72 -74 -72zM415 600c-41 0 -74 32 -74 72s33 72 74 72s74 -32 74 -72s-33 -72 -74 -72z" />
    <glyph glyph-name="divide" unicode="&#xf7;" horiz-adv-x="565" 
d="M282 60c-47 0 -83 35 -83 82c0 45 36 82 83 82s83 -37 83 -82c0 -47 -36 -82 -83 -82zM43 393h479v-104h-479v104zM282 458c-47 0 -83 35 -83 82s36 82 83 82s83 -35 83 -82s-36 -82 -83 -82z" />
    <glyph glyph-name="oslash" unicode="&#xf8;" horiz-adv-x="628" 
d="M28 6l70 75c-39 45 -60 103 -60 175v8c0 81 30 150 79 197s118 74 197 74c63 0 117 -15 161 -46l66 71l49 -44l-65 -70c40 -45 64 -106 64 -179v-8c0 -83 -30 -150 -79 -197s-118 -73 -197 -73c-64 0 -121 17 -166 48l-70 -75zM314 98c83 0 129 60 129 160v7
c0 31 -5 55 -13 78l-200 -216c21 -19 49 -29 84 -29zM185 259c0 -28 3 -53 10 -73l197 213c-20 17 -46 26 -78 26c-81 0 -129 -58 -129 -158v-8z" />
    <glyph glyph-name="ugrave" unicode="&#xf9;" horiz-adv-x="624" 
d="M244 -11c-51 0 -95 15 -127 47s-51 82 -51 150v337h144v-317c0 -69 31 -105 91 -105c61 0 109 38 109 115v307h144v-523h-144v82c-27 -53 -79 -93 -166 -93zM160 753h152l57 -159h-105z" />
    <glyph glyph-name="uacute" unicode="&#xfa;" horiz-adv-x="624" 
d="M244 -11c-51 0 -95 15 -127 47s-51 82 -51 150v337h144v-317c0 -69 31 -105 91 -105c61 0 109 38 109 115v307h144v-523h-144v82c-27 -53 -79 -93 -166 -93zM310 753h152l-104 -159h-105z" />
    <glyph glyph-name="ucircumflex" unicode="&#xfb;" horiz-adv-x="624" 
d="M244 -11c-51 0 -95 15 -127 47s-51 82 -51 150v337h144v-317c0 -69 31 -105 91 -105c61 0 109 38 109 115v307h144v-523h-144v82c-27 -53 -79 -93 -166 -93zM258 751h109l114 -156h-102l-69 63l-70 -63h-99z" />
    <glyph glyph-name="udieresis" unicode="&#xfc;" horiz-adv-x="624" 
d="M244 -11c-51 0 -95 15 -127 47s-51 82 -51 150v337h144v-317c0 -69 31 -105 91 -105c61 0 109 38 109 115v307h144v-523h-144v82c-27 -53 -79 -93 -166 -93zM209 600c-41 0 -74 32 -74 72s33 72 74 72s74 -32 74 -72s-33 -72 -74 -72zM413 600c-41 0 -74 32 -74 72
s33 72 74 72s74 -32 74 -72s-33 -72 -74 -72z" />
    <glyph glyph-name="yacute" unicode="&#xfd;" horiz-adv-x="579" 
d="M228 53l-208 470h156l127 -314l117 314h139l-283 -701h-140zM298 753h152l-104 -159h-105z" />
    <glyph glyph-name="thorn" unicode="&#xfe;" horiz-adv-x="649" 
d="M70 760h145v-319c29 51 90 94 167 94c64 0 121 -24 162 -69s66 -112 66 -199v-8c0 -87 -25 -154 -65 -199c-41 -47 -98 -71 -163 -71c-81 0 -140 40 -167 91v-258h-145v938zM339 102c80 0 124 53 124 156v8c0 107 -52 158 -125 158c-76 0 -128 -53 -128 -158v-8
c0 -105 49 -156 129 -156z" />
    <glyph glyph-name="ydieresis" unicode="&#xff;" horiz-adv-x="579" 
d="M228 53l-208 470h156l127 -314l117 314h139l-283 -701h-140zM197 600c-41 0 -74 32 -74 72s33 72 74 72s74 -32 74 -72s-33 -72 -74 -72zM401 600c-41 0 -74 32 -74 72s33 72 74 72s74 -32 74 -72s-33 -72 -74 -72z" />
    <glyph glyph-name="Amacron" unicode="&#x100;" horiz-adv-x="720" 
d="M262 715h211l232 -715h-169l-49 159h-259l-49 -159h-152zM263 274h189l-94 309zM214 868h302v-91h-302v91z" />
    <glyph glyph-name="amacron" unicode="&#x101;" horiz-adv-x="564" 
d="M211 -11c-48 0 -91 12 -123 37s-52 64 -52 119c0 61 28 103 76 130s116 38 196 38h59v21c0 63 -18 96 -85 96c-57 0 -82 -29 -89 -74h-137c4 61 32 107 73 136s98 43 162 43s118 -13 158 -44c39 -31 61 -79 61 -150v-341h-141v63c-31 -43 -75 -74 -158 -74zM254 90
c64 0 113 34 113 93v44h-56c-84 0 -133 -18 -133 -74c0 -39 23 -63 76 -63zM144 712h291v-87h-291v87z" />
    <glyph glyph-name="Abreve" unicode="&#x102;" horiz-adv-x="720" 
d="M262 715h211l232 -715h-169l-49 159h-259l-49 -159h-152zM263 274h189l-94 309zM364 757c-89 0 -148 58 -153 146h97c5 -32 23 -52 56 -52s52 20 59 52h96c-7 -88 -67 -146 -155 -146z" />
    <glyph glyph-name="abreve" unicode="&#x103;" horiz-adv-x="564" 
d="M211 -11c-48 0 -91 12 -123 37s-52 64 -52 119c0 61 28 103 76 130s116 38 196 38h59v21c0 63 -18 96 -85 96c-57 0 -82 -29 -89 -74h-137c4 61 32 107 73 136s98 43 162 43s118 -13 158 -44c39 -31 61 -79 61 -150v-341h-141v63c-31 -43 -75 -74 -158 -74zM254 90
c64 0 113 34 113 93v44h-56c-84 0 -133 -18 -133 -74c0 -39 23 -63 76 -63zM289 598c-88 0 -147 57 -152 149h95c4 -33 22 -54 57 -54s54 21 61 54h93c-5 -92 -69 -149 -154 -149z" />
    <glyph glyph-name="Aogonek" unicode="&#x104;" horiz-adv-x="720" 
d="M618 -182c-72 0 -117 30 -117 81c0 47 40 80 83 101h-54l-49 159h-259l-49 -159h-152l235 715h211l229 -705c-47 -27 -68 -55 -68 -79c0 -20 11 -30 33 -30c15 0 28 2 38 7v-75c-19 -8 -44 -15 -81 -15zM257 274h189l-94 309z" />
    <glyph glyph-name="aogonek" unicode="&#x105;" horiz-adv-x="564" 
d="M430 -182c-68 0 -112 29 -112 80c0 48 40 82 83 102h-38v63c-31 -43 -75 -74 -158 -74c-95 0 -175 47 -175 156c0 123 112 168 272 168h59v21c0 63 -18 96 -85 96c-57 0 -82 -29 -89 -74h-137c8 124 108 179 235 179c128 0 219 -53 219 -194v-333
c-45 -29 -64 -54 -64 -79c0 -21 11 -31 33 -31c15 0 28 2 38 7v-72c-19 -8 -42 -15 -81 -15zM248 90c64 0 113 34 113 93v44h-56c-84 0 -133 -18 -133 -74c0 -39 23 -63 76 -63z" />
    <glyph glyph-name="Cacute" unicode="&#x106;" horiz-adv-x="748" 
d="M405 -11c-117 0 -207 36 -267 100c-61 63 -92 153 -92 264v8c0 108 38 200 102 264c63 64 152 101 253 101c85 0 161 -21 217 -64c55 -43 92 -108 100 -196h-166c-12 87 -59 132 -150 132c-113 0 -185 -87 -185 -236v-8c0 -149 67 -234 186 -234c89 0 151 45 164 137h159
c-9 -88 -45 -156 -101 -200c-56 -45 -132 -68 -220 -68zM391 902h157l-101 -139h-109z" />
    <glyph glyph-name="cacute" unicode="&#x107;" horiz-adv-x="578" 
d="M307 -11c-76 0 -144 24 -192 69s-77 112 -77 197v8c0 84 30 152 79 200c49 47 116 72 191 72c60 0 119 -13 164 -45c44 -32 75 -83 82 -158h-137c-9 60 -45 89 -106 89c-76 0 -125 -56 -125 -156v-8c0 -105 47 -159 128 -159c59 0 105 33 112 101h131
c-4 -63 -28 -115 -71 -151c-43 -37 -103 -59 -179 -59zM303 753h152l-104 -159h-105z" />
    <glyph glyph-name="Ccircumflex" unicode="&#x108;" horiz-adv-x="748" 
d="M405 -11c-117 0 -207 36 -267 100c-61 63 -92 153 -92 264v8c0 108 38 200 102 264c63 64 152 101 253 101c85 0 161 -21 217 -64c55 -43 92 -108 100 -196h-166c-12 87 -59 132 -150 132c-113 0 -185 -87 -185 -236v-8c0 -149 67 -234 186 -234c89 0 151 45 164 137h159
c-9 -88 -45 -156 -101 -200c-56 -45 -132 -68 -220 -68zM340 902h123l108 -139h-104l-68 53l-69 -53h-102z" />
    <glyph glyph-name="ccircumflex" unicode="&#x109;" horiz-adv-x="578" 
d="M307 -11c-76 0 -144 24 -192 69s-77 112 -77 197v8c0 84 30 152 79 200c49 47 116 72 191 72c60 0 119 -13 164 -45c44 -32 75 -83 82 -158h-137c-9 60 -45 89 -106 89c-76 0 -125 -56 -125 -156v-8c0 -105 47 -159 128 -159c59 0 105 33 112 101h131
c-4 -63 -28 -115 -71 -151c-43 -37 -103 -59 -179 -59zM252 751h109l114 -156h-102l-69 63l-70 -63h-99z" />
    <glyph glyph-name="Cdotaccent" unicode="&#x10a;" horiz-adv-x="748" 
d="M405 -11c-117 0 -207 36 -267 100c-61 63 -92 153 -92 264v8c0 108 38 200 102 264c63 64 152 101 253 101c85 0 161 -21 217 -64c55 -43 92 -108 100 -196h-166c-12 87 -59 132 -150 132c-113 0 -185 -87 -185 -236v-8c0 -149 67 -234 186 -234c89 0 151 45 164 137h159
c-9 -88 -45 -156 -101 -200c-56 -45 -132 -68 -220 -68zM398 768c-47 0 -81 34 -81 77s34 77 81 77c45 0 80 -34 80 -77s-35 -77 -80 -77z" />
    <glyph glyph-name="cdotaccent" unicode="&#x10b;" horiz-adv-x="578" 
d="M307 -11c-76 0 -144 24 -192 69s-77 112 -77 197v8c0 84 30 152 79 200c49 47 116 72 191 72c60 0 119 -13 164 -45c44 -32 75 -83 82 -158h-137c-9 60 -45 89 -106 89c-76 0 -125 -56 -125 -156v-8c0 -105 47 -159 128 -159c59 0 105 33 112 101h131
c-4 -63 -28 -115 -71 -151c-43 -37 -103 -59 -179 -59zM306 598c-47 0 -81 34 -81 77s34 77 81 77c45 0 80 -34 80 -77s-35 -77 -80 -77z" />
    <glyph glyph-name="Ccaron" unicode="&#x10c;" horiz-adv-x="748" 
d="M405 -11c-117 0 -207 36 -267 100c-61 63 -92 153 -92 264v8c0 108 38 200 102 264c63 64 152 101 253 101c85 0 161 -21 217 -64c55 -43 92 -108 100 -196h-166c-12 87 -59 132 -150 132c-113 0 -185 -87 -185 -236v-8c0 -149 67 -234 186 -234c89 0 151 45 164 137h159
c-9 -88 -45 -156 -101 -200c-56 -45 -132 -68 -220 -68zM228 902h104l69 -52l68 52h102l-112 -139h-123z" />
    <glyph glyph-name="ccaron" unicode="&#x10d;" horiz-adv-x="578" 
d="M307 -11c-76 0 -144 24 -192 69s-77 112 -77 197v8c0 84 30 152 79 200c49 47 116 72 191 72c60 0 119 -13 164 -45c44 -32 75 -83 82 -158h-137c-9 60 -45 89 -106 89c-76 0 -125 -56 -125 -156v-8c0 -105 47 -159 128 -159c59 0 105 33 112 101h131
c-4 -63 -28 -115 -71 -151c-43 -37 -103 -59 -179 -59zM135 751h102l69 -63l69 63h100l-117 -156h-109z" />
    <glyph glyph-name="Dcaron" unicode="&#x10e;" horiz-adv-x="726" 
d="M311 126c145 0 212 80 212 229v8c0 147 -63 226 -214 226h-64v-463h66zM83 715h234c125 0 219 -34 282 -94c61 -61 93 -149 93 -256v-8c0 -107 -31 -196 -94 -259s-157 -98 -282 -98h-233v715zM163 902h104l69 -52l68 52h102l-112 -139h-123z" />
    <glyph glyph-name="dcaron" unicode="&#x10f;" horiz-adv-x="637" 
d="M266 -11c-64 0 -120 23 -161 68c-41 44 -66 110 -66 197v8c0 85 25 154 66 201s99 72 164 72c84 0 136 -37 165 -90v315h144v-760h-144v87c-27 -53 -91 -98 -168 -98zM309 102c76 0 129 50 129 157v8c0 104 -45 157 -125 157c-81 0 -126 -55 -126 -159v-8
c0 -104 50 -155 122 -155zM629 760h119l-49 -174h-80z" />
    <glyph glyph-name="Dcroat" unicode="&#x110;" horiz-adv-x="753" 
d="M31 415h65v300h234c251 0 375 -136 375 -350v-8c0 -214 -125 -357 -376 -357h-233v303h-65v112zM324 126c145 0 212 80 212 229v8c0 148 -62 226 -213 226h-67v-174h151v-112h-151v-177h68z" />
    <glyph glyph-name="dcroat" unicode="&#x111;" horiz-adv-x="637" 
d="M265 680h163v80h144v-80h64v-83h-64v-597h-144v87c-27 -53 -91 -98 -168 -98c-127 0 -227 92 -227 265v8c0 172 99 273 230 273c84 0 136 -37 165 -90v152h-163v83zM303 102c76 0 129 50 129 157v8c0 104 -45 157 -125 157c-81 0 -126 -55 -126 -159v-8
c0 -104 50 -155 122 -155z" />
    <glyph glyph-name="Emacron" unicode="&#x112;" horiz-adv-x="595" 
d="M83 715h466v-126h-305v-167h244v-118h-244v-178h321v-126h-482v715zM172 868h302v-91h-302v91z" />
    <glyph glyph-name="emacron" unicode="&#x113;" horiz-adv-x="587" 
d="M311 -11c-79 0 -147 24 -195 71c-49 45 -78 111 -78 195v8c0 83 29 150 78 198c48 47 115 74 191 74c68 0 131 -20 178 -63s77 -110 77 -203v-40h-377c4 -88 50 -137 130 -137c68 0 100 29 109 73h137c-17 -113 -106 -176 -250 -176zM421 318c-5 80 -45 117 -114 117
c-65 0 -109 -42 -120 -117h234zM158 712h291v-87h-291v87z" />
    <glyph glyph-name="Ebreve" unicode="&#x114;" horiz-adv-x="595" 
d="M83 715h466v-126h-305v-167h244v-118h-244v-178h321v-126h-482v715zM324 757c-89 0 -148 58 -153 146h97c5 -32 23 -52 56 -52s52 20 59 52h96c-7 -88 -67 -146 -155 -146z" />
    <glyph glyph-name="ebreve" unicode="&#x115;" horiz-adv-x="587" 
d="M311 -11c-79 0 -147 24 -195 71c-49 45 -78 111 -78 195v8c0 83 29 150 78 198c48 47 115 74 191 74c68 0 131 -20 178 -63s77 -110 77 -203v-40h-377c4 -88 50 -137 130 -137c68 0 100 29 109 73h137c-17 -113 -106 -176 -250 -176zM421 318c-5 80 -45 117 -114 117
c-65 0 -109 -42 -120 -117h234zM297 598c-88 0 -147 57 -152 149h95c4 -33 22 -54 57 -54s54 21 61 54h93c-5 -92 -69 -149 -154 -149z" />
    <glyph glyph-name="Edotaccent" unicode="&#x116;" horiz-adv-x="595" 
d="M83 715h466v-126h-305v-167h244v-118h-244v-178h321v-126h-482v715zM323 768c-47 0 -81 34 -81 77s34 77 81 77c45 0 80 -34 80 -77s-35 -77 -80 -77z" />
    <glyph glyph-name="edotaccent" unicode="&#x117;" horiz-adv-x="587" 
d="M311 -11c-79 0 -147 24 -195 71c-49 45 -78 111 -78 195v8c0 83 29 150 78 198c48 47 115 74 191 74c68 0 131 -20 178 -63s77 -110 77 -203v-40h-377c4 -88 50 -137 130 -137c68 0 100 29 109 73h137c-17 -113 -106 -176 -250 -176zM421 318c-5 80 -45 117 -114 117
c-65 0 -109 -42 -120 -117h234zM305 598c-47 0 -81 34 -81 77s34 77 81 77c45 0 80 -34 80 -77s-35 -77 -80 -77z" />
    <glyph glyph-name="Eogonek" unicode="&#x118;" horiz-adv-x="595" 
d="M462 -182c-71 0 -115 30 -115 81c0 47 40 80 83 101h-353v715h466v-126h-305v-167h244v-118h-244v-178h321v-126h-34c-35 -25 -51 -45 -51 -69c0 -20 11 -30 33 -30c15 0 28 2 38 7v-75c-19 -8 -44 -15 -83 -15z" />
    <glyph glyph-name="eogonek" unicode="&#x119;" horiz-adv-x="587" 
d="M399 -182c-68 0 -113 28 -113 79c0 43 38 73 77 96c-17 -3 -39 -4 -58 -4c-157 0 -273 99 -273 266v8c0 164 117 272 269 272c135 0 255 -79 255 -266v-40h-377c4 -88 50 -137 130 -137c68 0 100 29 109 73h137c-11 -73 -52 -110 -79 -137c-41 -39 -69 -68 -69 -99
c0 -21 13 -31 33 -31c15 0 28 2 38 7v-72c-17 -8 -39 -15 -79 -15zM415 318c-5 80 -45 117 -114 117c-65 0 -109 -42 -120 -117h234z" />
    <glyph glyph-name="Ecaron" unicode="&#x11a;" horiz-adv-x="595" 
d="M83 715h466v-126h-305v-167h244v-118h-244v-178h321v-126h-482v715zM153 902h104l69 -52l68 52h102l-112 -139h-123z" />
    <glyph glyph-name="ecaron" unicode="&#x11b;" horiz-adv-x="587" 
d="M311 -11c-79 0 -147 24 -195 71c-49 45 -78 111 -78 195v8c0 83 29 150 78 198c48 47 115 74 191 74c68 0 131 -20 178 -63s77 -110 77 -203v-40h-377c4 -88 50 -137 130 -137c68 0 100 29 109 73h137c-17 -113 -106 -176 -250 -176zM421 318c-5 80 -45 117 -114 117
c-65 0 -109 -42 -120 -117h234zM134 751h102l69 -63l69 63h100l-117 -156h-109z" />
    <glyph glyph-name="Gcircumflex" unicode="&#x11c;" horiz-adv-x="780" 
d="M410 -11c-117 0 -208 38 -269 103c-63 64 -95 154 -95 261v8c0 108 38 199 103 263c64 64 156 102 261 102c80 0 155 -18 212 -58c57 -41 98 -104 106 -192h-161c-15 84 -68 122 -155 122c-125 0 -197 -92 -197 -239v-8c0 -69 15 -129 47 -170c32 -43 81 -67 152 -67
c60 0 102 17 130 45c28 27 41 65 42 106h-161v118h321v-76c0 -96 -31 -175 -88 -230c-57 -56 -141 -88 -248 -88zM346 902h123l108 -139h-104l-68 53l-69 -53h-102z" />
    <glyph glyph-name="gcircumflex" unicode="&#x11d;" horiz-adv-x="636" 
d="M302 -193c-84 0 -147 18 -188 50c-43 32 -65 77 -72 132h144c9 -47 41 -76 116 -76c88 0 132 45 132 128v79c-15 -25 -37 -50 -66 -67c-29 -19 -63 -30 -102 -30c-64 0 -121 24 -161 67c-41 43 -67 106 -67 183v7c0 75 25 139 66 184c41 44 99 71 164 71
c85 0 135 -37 166 -90v78h144v-482c-1 -156 -103 -234 -276 -234zM309 132c76 0 129 54 129 143v7c0 89 -46 143 -126 143c-81 0 -126 -57 -126 -144v-8c0 -88 51 -141 123 -141zM254 751h109l114 -156h-102l-69 63l-70 -63h-99z" />
    <glyph glyph-name="Gbreve" unicode="&#x11e;" horiz-adv-x="780" 
d="M410 -11c-117 0 -208 38 -269 103c-63 64 -95 154 -95 261v8c0 108 38 199 103 263c64 64 156 102 261 102c80 0 155 -18 212 -58c57 -41 98 -104 106 -192h-161c-15 84 -68 122 -155 122c-125 0 -197 -92 -197 -239v-8c0 -69 15 -129 47 -170c32 -43 81 -67 152 -67
c60 0 102 17 130 45c28 27 41 65 42 106h-161v118h321v-76c0 -96 -31 -175 -88 -230c-57 -56 -141 -88 -248 -88zM405 757c-89 0 -148 58 -153 146h97c5 -32 23 -52 56 -52s52 20 59 52h96c-7 -88 -67 -146 -155 -146z" />
    <glyph glyph-name="gbreve" unicode="&#x11f;" horiz-adv-x="636" 
d="M302 -193c-84 0 -147 18 -188 50c-43 32 -65 77 -72 132h144c9 -47 41 -76 116 -76c88 0 132 45 132 128v79c-15 -25 -37 -50 -66 -67c-29 -19 -63 -30 -102 -30c-64 0 -121 24 -161 67c-41 43 -67 106 -67 183v7c0 75 25 139 66 184c41 44 99 71 164 71
c85 0 135 -37 166 -90v78h144v-482c-1 -156 -103 -234 -276 -234zM309 132c76 0 129 54 129 143v7c0 89 -46 143 -126 143c-81 0 -126 -57 -126 -144v-8c0 -88 51 -141 123 -141zM306 598c-88 0 -147 57 -152 149h95c4 -33 22 -54 57 -54s54 21 61 54h93
c-5 -92 -69 -149 -154 -149z" />
    <glyph glyph-name="Gdotaccent" unicode="&#x120;" horiz-adv-x="780" 
d="M410 -11c-117 0 -208 38 -269 103c-63 64 -95 154 -95 261v8c0 108 38 199 103 263c64 64 156 102 261 102c80 0 155 -18 212 -58c57 -41 98 -104 106 -192h-161c-15 84 -68 122 -155 122c-125 0 -197 -92 -197 -239v-8c0 -69 15 -129 47 -170c32 -43 81 -67 152 -67
c60 0 102 17 130 45c28 27 41 65 42 106h-161v118h321v-76c0 -96 -31 -175 -88 -230c-57 -56 -141 -88 -248 -88zM406 768c-47 0 -81 34 -81 77s34 77 81 77c45 0 80 -34 80 -77s-35 -77 -80 -77z" />
    <glyph glyph-name="gdotaccent" unicode="&#x121;" horiz-adv-x="636" 
d="M302 -193c-84 0 -147 18 -188 50c-43 32 -65 77 -72 132h144c9 -47 41 -76 116 -76c88 0 132 45 132 128v79c-15 -25 -37 -50 -66 -67c-29 -19 -63 -30 -102 -30c-64 0 -121 24 -161 67c-41 43 -67 106 -67 183v7c0 75 25 139 66 184c41 44 99 71 164 71
c85 0 135 -37 166 -90v78h144v-482c-1 -156 -103 -234 -276 -234zM309 132c76 0 129 54 129 143v7c0 89 -46 143 -126 143c-81 0 -126 -57 -126 -144v-8c0 -88 51 -141 123 -141zM307 598c-47 0 -81 34 -81 77s34 77 81 77c45 0 80 -34 80 -77s-35 -77 -80 -77z" />
    <glyph glyph-name="uni0122" unicode="&#x122;" horiz-adv-x="780" 
d="M410 -11c-117 0 -208 38 -269 103c-63 64 -95 154 -95 261v8c0 108 38 199 103 263c64 64 156 102 261 102c80 0 155 -18 212 -58c57 -41 98 -104 106 -192h-161c-15 84 -68 122 -155 122c-125 0 -197 -92 -197 -239v-8c0 -69 15 -129 47 -170c32 -43 81 -67 152 -67
c60 0 102 17 130 45c28 27 41 65 42 106h-161v118h321v-76c0 -96 -31 -175 -88 -230c-57 -56 -141 -88 -248 -88zM302 -201l47 170l130 -21l-95 -176z" />
    <glyph glyph-name="uni0123" unicode="&#x123;" horiz-adv-x="636" 
d="M302 -193c-84 0 -147 18 -188 50c-43 32 -65 77 -72 132h144c9 -47 41 -76 116 -76c88 0 132 45 132 128v79c-15 -25 -37 -50 -66 -67c-29 -19 -63 -30 -102 -30c-64 0 -121 24 -161 67c-41 43 -67 106 -67 183v7c0 75 25 139 66 184c41 44 99 71 164 71
c85 0 135 -37 166 -90v78h144v-482c-1 -156 -103 -234 -276 -234zM309 132c76 0 129 54 129 143v7c0 89 -46 143 -126 143c-81 0 -126 -57 -126 -144v-8c0 -88 51 -141 123 -141zM244 600l95 175l82 -26l-47 -170z" />
    <glyph glyph-name="Hcircumflex" unicode="&#x124;" horiz-adv-x="764" 
d="M83 715h162v-292h287v292h162v-715h-162v295h-287v-295h-162v715zM328 902h123l108 -139h-104l-68 53l-69 -53h-102z" />
    <glyph glyph-name="hcircumflex" unicode="&#x125;" horiz-adv-x="615" 
d="M70 760h145v-320c27 52 82 95 170 95c52 0 95 -16 127 -48c31 -33 49 -85 49 -154v-333h-145v312c0 72 -28 105 -92 105c-63 0 -109 -38 -109 -115v-302h-145v760zM261 937h123l108 -139h-104l-68 53l-69 -53h-102z" />
    <glyph glyph-name="Hbar" unicode="&#x126;" horiz-adv-x="764" 
d="M13 596h64v119h162v-119h287v119h162v-119h64v-85h-64v-511h-162v295h-287v-295h-162v511h-64v85zM526 423v88h-287v-88h287z" />
    <glyph glyph-name="hbar" unicode="&#x127;" horiz-adv-x="615" 
d="M1 680h63v80h145v-80h163v-83h-163v-157c27 52 82 95 170 95c103 0 176 -62 176 -202v-333h-145v312c0 72 -28 105 -92 105c-63 0 -109 -38 -109 -115v-302h-145v597h-63v83z" />
    <glyph glyph-name="Itilde" unicode="&#x128;" horiz-adv-x="325" 
d="M87 715h163v-715h-163v715zM231 764c-27 0 -47 10 -66 19c-19 8 -34 18 -49 18c-19 0 -31 -16 -35 -37h-86c7 92 54 140 114 140c24 0 45 -10 65 -19c19 -9 35 -19 51 -19c19 0 30 16 34 37h87c-8 -92 -58 -139 -115 -139z" />
    <glyph glyph-name="itilde" unicode="&#x129;" horiz-adv-x="281" 
d="M74 523h144v-523h-144v523zM207 598c-25 0 -47 10 -64 19l-26 13c-8 4 -16 6 -23 6c-17 0 -31 -16 -35 -37h-83c7 92 50 141 110 141c24 0 45 -10 64 -18c19 -9 35 -19 51 -19c19 0 30 14 34 37h84c-8 -93 -55 -142 -112 -142z" />
    <glyph glyph-name="Imacron" unicode="&#x12a;" horiz-adv-x="325" 
d="M87 715h163v-715h-163v715zM17 868h302v-91h-302v91z" />
    <glyph glyph-name="imacron" unicode="&#x12b;" horiz-adv-x="281" 
d="M27 712h226v-87h-226v87zM68 523h144v-523h-144v523z" />
    <glyph glyph-name="Ibreve" unicode="&#x12c;" horiz-adv-x="325" 
d="M87 715h163v-715h-163v715zM169 757c-89 0 -148 58 -153 146h97c5 -32 23 -52 56 -52s52 20 59 52h96c-7 -88 -67 -146 -155 -146z" />
    <glyph glyph-name="ibreve" unicode="&#x12d;" horiz-adv-x="281" 
d="M74 523h144v-523h-144v523zM146 598c-88 0 -147 57 -152 149h95c4 -33 22 -54 57 -54s54 21 61 54h93c-5 -92 -69 -149 -154 -149z" />
    <glyph glyph-name="Iogonek" unicode="&#x12e;" horiz-adv-x="325" 
d="M170 -182c-72 0 -116 30 -116 81c0 47 40 80 83 101h-56v715h163v-706c-42 -27 -63 -53 -63 -78c0 -20 11 -30 33 -30c15 0 28 2 38 7v-75c-19 -8 -43 -15 -82 -15z" />
    <glyph glyph-name="iogonek" unicode="&#x12f;" horiz-adv-x="281" 
d="M142 -182c-68 0 -112 30 -112 81c0 47 40 80 83 101h-45v523h144v-516c-44 -31 -61 -53 -61 -78c0 -21 11 -31 34 -31c13 0 26 2 37 7v-72c-17 -8 -40 -15 -80 -15zM139 594c-47 0 -82 34 -82 79s35 79 82 79s83 -34 83 -79s-36 -79 -83 -79z" />
    <glyph glyph-name="Idotaccent" unicode="&#x130;" horiz-adv-x="325" 
d="M87 715h163v-715h-163v715zM169 768c-47 0 -81 34 -81 77s34 77 81 77c45 0 80 -34 80 -77s-35 -77 -80 -77z" />
    <glyph glyph-name="dotlessi" unicode="&#x131;" horiz-adv-x="293" 
d="M74 523h144v-523h-144v523z" />
    <glyph glyph-name="IJ" unicode="&#x132;" horiz-adv-x="750" 
d="M87 715h163v-715h-163v715zM453 -9c-63 0 -94 9 -119 22v124c24 -9 47 -17 90 -17c61 0 101 30 101 113v482h163v-484c0 -163 -87 -240 -235 -240z" />
    <glyph glyph-name="ij" unicode="&#x133;" horiz-adv-x="281" 
d="M145 594c-47 0 -82 34 -82 79s35 79 82 79s83 -34 83 -79s-36 -79 -83 -79zM74 523h144v-523h-144v523zM285 -79c51 4 69 26 69 69v533h144v-532c0 -55 -13 -98 -45 -129c-33 -31 -87 -48 -168 -49v108zM425 594c-47 0 -82 34 -82 79s35 79 82 79s83 -34 83 -79
s-36 -79 -83 -79z" />
    <glyph glyph-name="Jcircumflex" unicode="&#x134;" horiz-adv-x="457" 
d="M160 -9c-63 0 -94 9 -119 22v124c24 -9 47 -17 90 -17c61 0 101 30 101 113v482h163v-484c0 -163 -87 -240 -235 -240zM251 902h123l108 -139h-104l-68 53l-69 -53h-102z" />
    <glyph glyph-name="jcircumflex" unicode="&#x135;" horiz-adv-x="281" 
d="M-1 -79c51 4 69 26 69 69v533h144v-532c0 -109 -50 -175 -213 -178v108zM93 751h109l114 -156h-102l-69 63l-70 -63h-99z" />
    <glyph glyph-name="uni0136" unicode="&#x136;" horiz-adv-x="686" 
d="M83 715h162v-308l250 309h172l-283 -339l297 -377h-189l-247 321v-321h-162v715zM256 -201l47 170l130 -21l-95 -176z" />
    <glyph glyph-name="uni0137" unicode="&#x137;" horiz-adv-x="555" 
d="M70 760h145v-458l168 221h154l-190 -238l205 -285h-164l-173 247v-247h-145v760zM192 -201l47 170l130 -21l-95 -176z" />
    <glyph glyph-name="Lacute" unicode="&#x139;" horiz-adv-x="560" 
d="M83 715h162v-588h291v-127h-453v715zM158 902h157l-101 -139h-109z" />
    <glyph glyph-name="lacute" unicode="&#x13a;" horiz-adv-x="280" 
d="M74 760h144v-760h-144v760zM140 937h157l-101 -139h-109z" />
    <glyph glyph-name="uni013B" unicode="&#x13b;" horiz-adv-x="560" 
d="M83 715h162v-588h291v-127h-453v715zM204 -201l47 170l130 -21l-95 -176z" />
    <glyph glyph-name="uni013C" unicode="&#x13c;" horiz-adv-x="280" 
d="M74 760h144v-760h-144v760zM43 -201l47 170l130 -21l-95 -176z" />
    <glyph glyph-name="Lcaron" unicode="&#x13d;" horiz-adv-x="560" 
d="M344 715h128l-60 -169h-87zM77 715h162v-588h291v-127h-453v715z" />
    <glyph glyph-name="lcaron" unicode="&#x13e;" horiz-adv-x="280" 
d="M74 760h144v-760h-144v760zM269 760h119l-49 -174h-80z" />
    <glyph glyph-name="Ldot" unicode="&#x13f;" horiz-adv-x="577" 
d="M83 715h162v-588h291v-127h-453v715z" />
    <glyph glyph-name="ldot" unicode="&#x140;" horiz-adv-x="409" 
d="M74 760h144v-760h-144v760z" />
    <glyph glyph-name="Lslash" unicode="&#x141;" horiz-adv-x="591" 
d="M37 330l65 23v362h162v-305l187 67v-94l-187 -66v-190h291v-127h-453v260l-65 -23v93z" />
    <glyph glyph-name="lslash" unicode="&#x142;" horiz-adv-x="325" 
d="M24 378l66 33v349h144v-275l70 36v-99l-70 -36v-386h-144v312l-66 -33v99z" />
    <glyph glyph-name="Nacute" unicode="&#x143;" horiz-adv-x="758" 
d="M83 715h188l272 -471v471h144v-715h-162l-298 509v-509h-144v715zM391 902h157l-101 -139h-109z" />
    <glyph glyph-name="nacute" unicode="&#x144;" horiz-adv-x="615" 
d="M70 523h145v-83c27 52 82 95 170 95c52 0 95 -16 127 -48c31 -33 49 -85 49 -154v-333h-145v312c0 72 -28 105 -92 105c-63 0 -109 -38 -109 -115v-302h-145v523zM312 753h152l-104 -159h-105z" />
    <glyph glyph-name="uni0145" unicode="&#x145;" horiz-adv-x="758" 
d="M83 715h188l272 -471v471h144v-715h-162l-298 509v-509h-144v715zM274 -201l47 170l130 -21l-95 -176z" />
    <glyph glyph-name="uni0146" unicode="&#x146;" horiz-adv-x="615" 
d="M70 523h145v-83c27 52 82 95 170 95c52 0 95 -16 127 -48c31 -33 49 -85 49 -154v-333h-145v312c0 72 -28 105 -92 105c-63 0 -109 -38 -109 -115v-302h-145v523zM209 -201l47 170l130 -21l-95 -176z" />
    <glyph glyph-name="Ncaron" unicode="&#x147;" horiz-adv-x="758" 
d="M83 715h188l272 -471v471h144v-715h-162l-298 509v-509h-144v715zM228 902h104l69 -52l68 52h102l-112 -139h-123z" />
    <glyph glyph-name="ncaron" unicode="&#x148;" horiz-adv-x="615" 
d="M70 523h145v-83c27 52 82 95 170 95c52 0 95 -16 127 -48c31 -33 49 -85 49 -154v-333h-145v312c0 72 -28 105 -92 105c-63 0 -109 -38 -109 -115v-302h-145v523zM143 751h102l69 -63l69 63h100l-117 -156h-109z" />
    <glyph glyph-name="napostrophe" unicode="&#x149;" horiz-adv-x="690" 
d="M145 523h145v-83c27 52 82 95 170 95c52 0 95 -16 127 -48c31 -33 49 -85 49 -154v-333h-145v312c0 72 -28 105 -92 105c-63 0 -109 -38 -109 -115v-302h-145v523z" />
    <glyph glyph-name="Eng" unicode="&#x14a;" horiz-adv-x="758" 
d="M456 -193c-60 0 -90 10 -115 22v119c24 -9 45 -17 84 -17c53 0 88 24 95 79l-296 509v-519h-147v715h190l267 -469v469h147v-697c0 -135 -84 -211 -225 -211z" />
    <glyph glyph-name="eng" unicode="&#x14b;" horiz-adv-x="615" 
d="M342 -79c51 4 68 26 68 69v322c0 72 -28 105 -92 105c-63 0 -109 -38 -109 -115v-302h-145v523h145v-83c27 52 82 95 170 95c103 0 176 -62 176 -202v-342c0 -109 -50 -175 -213 -178v108z" />
    <glyph glyph-name="Omacron" unicode="&#x14c;" horiz-adv-x="816" 
d="M416 118c60 0 109 24 144 65c33 40 53 100 53 172v8c0 69 -19 128 -52 169c-35 41 -84 65 -147 65s-111 -23 -146 -63c-35 -41 -53 -100 -53 -172v-8c0 -73 21 -132 57 -172c35 -41 85 -64 144 -64zM413 -11c-112 0 -204 39 -267 104c-64 64 -100 156 -100 260v8
c0 107 38 198 105 262c65 64 156 102 263 102c108 0 200 -36 265 -99c64 -64 103 -153 103 -261v-8c0 -107 -37 -199 -101 -264s-156 -104 -268 -104zM262 868h302v-91h-302v91z" />
    <glyph glyph-name="omacron" unicode="&#x14d;" horiz-adv-x="616" 
d="M314 99c81 0 128 59 128 159v7c0 100 -47 160 -128 160c-80 0 -128 -58 -128 -158v-8c0 -100 45 -160 128 -160zM313 -11c-79 0 -147 26 -196 73c-49 45 -79 113 -79 194v8c0 81 30 150 79 197s118 74 197 74s148 -26 197 -73c48 -47 78 -114 78 -195v-8
c0 -83 -30 -150 -79 -197s-118 -73 -197 -73zM167 712h291v-87h-291v87z" />
    <glyph glyph-name="Obreve" unicode="&#x14e;" horiz-adv-x="816" 
d="M416 118c60 0 109 24 144 65c33 40 53 100 53 172v8c0 69 -19 128 -52 169c-35 41 -84 65 -147 65s-111 -23 -146 -63c-35 -41 -53 -100 -53 -172v-8c0 -73 21 -132 57 -172c35 -41 85 -64 144 -64zM413 -11c-112 0 -204 39 -267 104c-64 64 -100 156 -100 260v8
c0 107 38 198 105 262c65 64 156 102 263 102c108 0 200 -36 265 -99c64 -64 103 -153 103 -261v-8c0 -107 -37 -199 -101 -264s-156 -104 -268 -104zM412 757c-89 0 -148 58 -153 146h97c5 -32 23 -52 56 -52s52 20 59 52h96c-7 -88 -67 -146 -155 -146z" />
    <glyph glyph-name="obreve" unicode="&#x14f;" horiz-adv-x="616" 
d="M314 99c81 0 128 59 128 159v7c0 100 -47 160 -128 160c-80 0 -128 -58 -128 -158v-8c0 -100 45 -160 128 -160zM313 -11c-79 0 -147 26 -196 73c-49 45 -79 113 -79 194v8c0 81 30 150 79 197s118 74 197 74s148 -26 197 -73c48 -47 78 -114 78 -195v-8
c0 -83 -30 -150 -79 -197s-118 -73 -197 -73zM312 598c-88 0 -147 57 -152 149h95c4 -33 22 -54 57 -54s54 21 61 54h93c-5 -92 -69 -149 -154 -149z" />
    <glyph glyph-name="Ohungarumlaut" unicode="&#x150;" horiz-adv-x="816" 
d="M416 118c60 0 109 24 144 65c33 40 53 100 53 172v8c0 69 -19 128 -52 169c-35 41 -84 65 -147 65s-111 -23 -146 -63c-35 -41 -53 -100 -53 -172v-8c0 -73 21 -132 57 -172c35 -41 85 -64 144 -64zM413 -11c-112 0 -204 39 -267 104c-64 64 -100 156 -100 260v8
c0 107 38 198 105 262c65 64 156 102 263 102c108 0 200 -36 265 -99c64 -64 103 -153 103 -261v-8c0 -107 -37 -199 -101 -264s-156 -104 -268 -104zM304 902h132l-73 -139h-98zM484 902h132l-74 -139h-97z" />
    <glyph glyph-name="ohungarumlaut" unicode="&#x151;" horiz-adv-x="616" 
d="M314 99c81 0 128 59 128 159v7c0 100 -47 160 -128 160c-80 0 -128 -58 -128 -158v-8c0 -100 45 -160 128 -160zM313 -11c-79 0 -147 26 -196 73c-49 45 -79 113 -79 194v8c0 81 30 150 79 197s118 74 197 74s148 -26 197 -73c48 -47 78 -114 78 -195v-8
c0 -83 -30 -150 -79 -197s-118 -73 -197 -73zM217 753h123l-76 -159h-89zM385 753h124l-76 -159h-90z" />
    <glyph glyph-name="OE" unicode="&#x152;" horiz-adv-x="982" 
d="M46 358c0 107 31 196 94 259s157 98 281 98h503v-126h-289v-167h228v-118h-228v-178h306v-126h-521c-124 0 -219 34 -280 95c-63 60 -94 148 -94 255v8zM426 589c-145 0 -211 -80 -211 -229v-8c0 -147 62 -226 213 -226h46v463h-48z" />
    <glyph glyph-name="oe" unicode="&#x153;" horiz-adv-x="1001" 
d="M313 -11c-79 0 -147 26 -196 73c-49 45 -79 113 -79 194v8c0 81 30 150 79 197s118 74 197 74c87 0 156 -33 200 -92c44 59 111 92 195 92c68 0 131 -20 178 -63s77 -110 77 -203v-40h-378c5 -88 51 -137 131 -137c68 0 100 29 108 73h137c-16 -113 -105 -176 -249 -176
c-88 0 -157 31 -201 90c-45 -59 -114 -90 -199 -90zM314 99c81 0 128 59 128 159v7c0 100 -47 160 -128 160c-80 0 -128 -58 -128 -158v-8c0 -101 45 -160 128 -160zM822 318c-5 80 -45 117 -113 117c-65 0 -109 -42 -120 -117h233z" />
    <glyph glyph-name="Racute" unicode="&#x154;" horiz-adv-x="672" 
d="M83 715h256c84 0 153 -17 201 -53s75 -91 75 -164v-4c0 -55 -15 -95 -42 -126s-64 -52 -105 -64l189 -304h-172l-171 276h-70v-276h-161v715zM335 386c81 0 122 35 122 103v4c0 73 -43 98 -122 98h-91v-205h91zM324 902h157l-101 -139h-109z" />
    <glyph glyph-name="racute" unicode="&#x155;" horiz-adv-x="409" 
d="M70 523h145v-100c33 71 84 107 169 108v-135c-108 1 -169 -34 -169 -134v-262h-145v523zM228 753h152l-104 -159h-105z" />
    <glyph glyph-name="uni0156" unicode="&#x156;" horiz-adv-x="672" 
d="M83 715h256c84 0 153 -17 201 -53s75 -91 75 -164v-4c0 -55 -15 -95 -42 -126s-64 -52 -105 -64l189 -304h-172l-171 276h-70v-276h-161v715zM335 386c81 0 122 35 122 103v4c0 73 -43 98 -122 98h-91v-205h91zM248 -201l47 170l130 -21l-95 -176z" />
    <glyph glyph-name="uni0157" unicode="&#x157;" horiz-adv-x="409" 
d="M70 523h145v-100c33 71 84 107 169 108v-135c-108 1 -169 -34 -169 -134v-262h-145v523zM40 -201l47 170l130 -21l-95 -176z" />
    <glyph glyph-name="Rcaron" unicode="&#x158;" horiz-adv-x="672" 
d="M83 715h256c84 0 153 -17 201 -53s75 -91 75 -164v-4c0 -55 -15 -95 -42 -126s-64 -52 -105 -64l189 -304h-172l-171 276h-70v-276h-161v715zM335 386c81 0 122 35 122 103v4c0 73 -43 98 -122 98h-91v-205h91zM161 902h104l69 -52l68 52h102l-112 -139h-123z" />
    <glyph glyph-name="rcaron" unicode="&#x159;" horiz-adv-x="409" 
d="M70 523h145v-100c33 71 84 107 169 108v-135c-108 1 -169 -34 -169 -134v-262h-145v523zM59 751h102l69 -63l69 63h100l-117 -156h-109z" />
    <glyph glyph-name="Sacute" unicode="&#x15a;" horiz-adv-x="640" 
d="M333 -11c-99 0 -170 23 -218 64s-73 99 -77 171h155c4 -32 12 -62 33 -82c21 -21 54 -35 107 -35c72 0 118 39 118 95c0 28 -8 47 -28 62c-21 13 -55 23 -107 31c-92 12 -156 31 -197 66c-43 33 -61 82 -61 151c0 61 26 114 71 153c45 37 110 60 189 60
c161 0 255 -71 268 -214h-149c-9 64 -50 95 -119 95c-72 0 -107 -33 -107 -81c0 -25 6 -45 26 -58c19 -15 52 -25 107 -33c87 -11 152 -29 196 -61c44 -33 66 -83 66 -156c0 -64 -26 -121 -73 -161c-47 -41 -116 -67 -200 -67zM311 902h157l-101 -139h-109z" />
    <glyph glyph-name="sacute" unicode="&#x15b;" horiz-adv-x="502" 
d="M260 -11c-141 0 -223 62 -228 175h135c7 -47 28 -74 92 -74c56 0 82 21 82 57s-30 51 -106 62c-69 11 -117 26 -148 51c-32 25 -45 61 -45 112c0 55 25 95 64 123c37 27 90 40 143 40c57 0 108 -11 147 -36c37 -25 62 -66 69 -126h-133c-8 43 -31 63 -82 63
c-47 0 -74 -22 -74 -54c0 -33 25 -46 101 -57c65 -9 116 -23 151 -47c33 -25 52 -61 52 -117c0 -113 -81 -172 -220 -172zM254 753h152l-104 -159h-105z" />
    <glyph glyph-name="Scircumflex" unicode="&#x15c;" horiz-adv-x="640" 
d="M333 -11c-99 0 -170 23 -218 64s-73 99 -77 171h155c4 -32 12 -62 33 -82c21 -21 54 -35 107 -35c72 0 118 39 118 95c0 28 -8 47 -28 62c-21 13 -55 23 -107 31c-92 12 -156 31 -197 66c-43 33 -61 82 -61 151c0 61 26 114 71 153c45 37 110 60 189 60
c161 0 255 -71 268 -214h-149c-9 64 -50 95 -119 95c-72 0 -107 -33 -107 -81c0 -25 6 -45 26 -58c19 -15 52 -25 107 -33c87 -11 152 -29 196 -61c44 -33 66 -83 66 -156c0 -64 -26 -121 -73 -161c-47 -41 -116 -67 -200 -67zM260 902h123l108 -139h-104l-68 53l-69 -53
h-102z" />
    <glyph glyph-name="scircumflex" unicode="&#x15d;" horiz-adv-x="502" 
d="M260 -11c-141 0 -223 62 -228 175h135c7 -47 28 -74 92 -74c56 0 82 21 82 57s-30 51 -106 62c-69 11 -117 26 -148 51c-32 25 -45 61 -45 112c0 55 25 95 64 123c37 27 90 40 143 40c57 0 108 -11 147 -36c37 -25 62 -66 69 -126h-133c-8 43 -31 63 -82 63
c-47 0 -74 -22 -74 -54c0 -33 25 -46 101 -57c65 -9 116 -23 151 -47c33 -25 52 -61 52 -117c0 -113 -81 -172 -220 -172zM201 751h109l114 -156h-102l-69 63l-70 -63h-99z" />
    <glyph glyph-name="uni015E" unicode="&#x15e;" horiz-adv-x="640" 
d="M299 -222c-68 0 -110 34 -117 90h74c3 -16 15 -31 38 -31s35 14 35 33s-13 31 -34 31c-15 0 -24 -5 -31 -10l-36 35l40 66c-155 17 -228 104 -236 232h155c8 -64 34 -117 140 -117c72 0 118 39 118 95s-31 77 -135 93c-183 24 -258 78 -258 217c0 123 103 213 260 213
c161 0 255 -71 268 -214h-149c-10 63 -50 95 -119 95c-72 0 -107 -33 -107 -81c0 -51 24 -75 133 -91c173 -21 262 -70 262 -217c0 -126 -102 -225 -269 -228l-22 -37c52 5 104 -21 104 -84c0 -59 -47 -90 -114 -90z" />
    <glyph glyph-name="uni015F" unicode="&#x15f;" horiz-adv-x="502" 
d="M235 -222c-68 0 -110 34 -117 90h74c3 -16 15 -31 38 -31s35 14 35 33s-13 31 -34 31c-15 0 -24 -5 -31 -10l-36 35l40 66c-111 13 -174 72 -178 172h135c7 -47 28 -74 92 -74c56 0 82 21 82 57s-30 51 -106 62c-139 21 -193 61 -193 163c0 109 100 163 207 163
c116 0 203 -42 216 -162h-133c-8 43 -31 63 -82 63c-47 0 -74 -22 -74 -54c0 -33 25 -46 101 -57c131 -19 203 -53 203 -164c0 -109 -76 -168 -207 -172l-22 -37c52 5 104 -21 104 -84c0 -59 -47 -90 -114 -90z" />
    <glyph glyph-name="Scaron" unicode="&#x160;" horiz-adv-x="652" 
d="M333 -11c-99 0 -170 23 -218 64s-73 99 -77 171h155c4 -32 12 -62 33 -82c21 -21 54 -35 107 -35c72 0 118 39 118 95c0 28 -8 47 -28 62c-21 13 -55 23 -107 31c-92 12 -156 31 -197 66c-43 33 -61 82 -61 151c0 61 26 114 71 153c45 37 110 60 189 60
c161 0 255 -71 268 -214h-149c-9 64 -50 95 -119 95c-72 0 -107 -33 -107 -81c0 -25 6 -45 26 -58c19 -15 52 -25 107 -33c87 -11 152 -29 196 -61c44 -33 66 -83 66 -156c0 -64 -26 -121 -73 -161c-47 -41 -116 -67 -200 -67zM148 902h104l69 -52l68 52h102l-112 -139h-123
z" />
    <glyph glyph-name="scaron" unicode="&#x161;" horiz-adv-x="514" 
d="M260 -11c-141 0 -223 62 -228 175h135c7 -47 28 -74 92 -74c56 0 82 21 82 57s-30 51 -106 62c-69 11 -117 26 -148 51c-32 25 -45 61 -45 112c0 55 25 95 64 123c37 27 90 40 143 40c57 0 108 -11 147 -36c37 -25 62 -66 69 -126h-133c-8 43 -31 63 -82 63
c-47 0 -74 -22 -74 -54c0 -33 25 -46 101 -57c65 -9 116 -23 151 -47c33 -25 52 -61 52 -117c0 -113 -81 -172 -220 -172zM82 751h102l69 -63l69 63h100l-117 -156h-109z" />
    <glyph glyph-name="Tcommaaccent" unicode="&#x162;" horiz-adv-x="598" 
d="M223 589h-193v126h549v-126h-193v-589h-163v589zM200 -201l47 170l130 -21l-95 -176z" />
    <glyph glyph-name="tcommaaccent" unicode="&#x163;" horiz-adv-x="377" 
d="M261 -10c-111 0 -169 56 -169 165v265h-67v103h67v113h144v-113h110v-103h-110v-252c0 -41 19 -62 58 -62c21 0 39 3 55 10v-112c-20 -7 -49 -14 -88 -14zM105 -201l47 170l130 -21l-95 -176z" />
    <glyph glyph-name="Tcaron" unicode="&#x164;" horiz-adv-x="597" 
d="M223 589h-193v126h549v-126h-193v-589h-163v589zM132 902h104l69 -52l68 52h102l-112 -139h-123z" />
    <glyph glyph-name="tcaron" unicode="&#x165;" horiz-adv-x="377" 
d="M261 -10c-111 0 -169 56 -169 165v265h-67v103h67v113h144v-113h110v-103h-110v-252c0 -41 19 -62 58 -62c21 0 39 3 55 10v-112c-20 -7 -49 -14 -88 -14zM301 760h119l-49 -174h-80z" />
    <glyph glyph-name="Tbar" unicode="&#x166;" horiz-adv-x="597" 
d="M84 406h133v183h-193v126h549v-126h-193v-183h133v-106h-133v-300h-163v300h-133v106z" />
    <glyph glyph-name="tbar" unicode="&#x167;" horiz-adv-x="377" 
d="M19 335h67v85h-67v103h67v113h144v-113h110v-103h-110v-85h110v-85h-110v-82c0 -41 19 -62 58 -62c21 0 39 3 55 9v-112c-21 -7 -49 -13 -89 -13c-109 0 -168 56 -168 165v95h-67v85z" />
    <glyph glyph-name="Utilde" unicode="&#x168;" horiz-adv-x="739" 
d="M372 -11c-189 0 -295 99 -295 290v436h163v-426c0 -120 34 -171 133 -171c96 0 138 46 138 177v420h163v-430c0 -196 -107 -296 -302 -296zM435 764c-27 0 -47 10 -66 19c-19 8 -34 18 -49 18c-19 0 -31 -16 -35 -37h-86c7 92 54 140 114 140c24 0 45 -10 65 -19
c19 -9 35 -19 51 -19c19 0 30 16 34 37h87c-8 -92 -58 -139 -115 -139z" />
    <glyph glyph-name="utilde" unicode="&#x169;" 
d="M244 -11c-51 0 -95 15 -127 47s-51 82 -51 150v337h144v-317c0 -69 31 -105 91 -105c61 0 109 38 109 115v307h144v-523h-144v82c-27 -53 -79 -93 -166 -93zM371 598c-25 0 -47 10 -64 19l-26 13c-8 4 -16 6 -23 6c-17 0 -31 -16 -35 -37h-83c7 92 50 141 110 141
c24 0 45 -10 64 -18c19 -9 35 -19 51 -19c19 0 30 14 34 37h84c-8 -93 -55 -142 -112 -142z" />
    <glyph glyph-name="Umacron" unicode="&#x16a;" horiz-adv-x="739" 
d="M372 -11c-189 0 -295 99 -295 290v436h163v-426c0 -120 34 -171 133 -171c96 0 138 46 138 177v420h163v-430c0 -196 -107 -296 -302 -296zM223 868h302v-91h-302v91z" />
    <glyph glyph-name="umacron" unicode="&#x16b;" 
d="M244 -11c-51 0 -95 15 -127 47s-51 82 -51 150v337h144v-317c0 -69 31 -105 91 -105c61 0 109 38 109 115v307h144v-523h-144v82c-27 -53 -79 -93 -166 -93zM165 712h291v-87h-291v87z" />
    <glyph glyph-name="Ubreve" unicode="&#x16c;" horiz-adv-x="739" 
d="M372 -11c-189 0 -295 99 -295 290v436h163v-426c0 -120 34 -171 133 -171c96 0 138 46 138 177v420h163v-430c0 -196 -107 -296 -302 -296zM373 757c-89 0 -148 58 -153 146h97c5 -32 23 -52 56 -52s52 20 59 52h96c-7 -88 -67 -146 -155 -146z" />
    <glyph glyph-name="ubreve" unicode="&#x16d;" 
d="M244 -11c-51 0 -95 15 -127 47s-51 82 -51 150v337h144v-317c0 -69 31 -105 91 -105c61 0 109 38 109 115v307h144v-523h-144v82c-27 -53 -79 -93 -166 -93zM310 598c-88 0 -147 57 -152 149h95c4 -33 22 -54 57 -54s54 21 61 54h93c-5 -92 -69 -149 -154 -149z" />
    <glyph glyph-name="Uring" unicode="&#x16e;" horiz-adv-x="739" 
d="M372 -11c-189 0 -295 99 -295 290v436h163v-426c0 -120 34 -171 133 -171c96 0 138 46 138 177v420h163v-430c0 -196 -107 -296 -302 -296zM374 788c28 0 49 22 49 53s-21 54 -49 54c-29 0 -49 -23 -49 -54s20 -53 49 -53zM374 730c-32 0 -60 13 -81 33s-34 47 -34 78
s13 59 34 79s49 33 81 33s60 -13 81 -33s34 -48 34 -79s-13 -58 -34 -78s-49 -33 -81 -33z" />
    <glyph glyph-name="uring" unicode="&#x16f;" 
d="M244 -11c-51 0 -95 15 -127 47s-51 82 -51 150v337h144v-317c0 -69 31 -105 91 -105c61 0 109 38 109 115v307h144v-523h-144v82c-27 -53 -79 -93 -166 -93zM310 618c28 0 49 22 49 53s-21 54 -49 54c-29 0 -49 -23 -49 -54s20 -53 49 -53zM310 560c-32 0 -60 13 -81 33
s-34 47 -34 78s13 59 34 79s49 33 81 33s60 -13 81 -33s34 -48 34 -79s-13 -58 -34 -78s-49 -33 -81 -33z" />
    <glyph glyph-name="Uhungarumlaut" unicode="&#x170;" horiz-adv-x="739" 
d="M372 -11c-189 0 -295 99 -295 290v436h163v-426c0 -120 34 -171 133 -171c96 0 138 46 138 177v420h163v-430c0 -196 -107 -296 -302 -296zM265 902h132l-73 -139h-98zM445 902h132l-74 -139h-97z" />
    <glyph glyph-name="uhungarumlaut" unicode="&#x171;" 
d="M244 -11c-51 0 -95 15 -127 47s-51 82 -51 150v337h144v-317c0 -69 31 -105 91 -105c61 0 109 38 109 115v307h144v-523h-144v82c-27 -53 -79 -93 -166 -93zM215 753h123l-76 -159h-89zM383 753h124l-76 -159h-90z" />
    <glyph glyph-name="Uogonek" unicode="&#x172;" horiz-adv-x="739" 
d="M407 -182c-69 0 -114 29 -114 80c0 39 28 70 63 91c-183 3 -285 102 -285 290v436h163v-426c0 -120 34 -171 133 -171c96 0 138 46 138 177v420h163v-430c0 -137 -54 -224 -147 -267c-56 -27 -102 -44 -102 -87c0 -20 13 -30 33 -30c15 0 28 2 38 7v-75
c-17 -8 -44 -15 -83 -15z" />
    <glyph glyph-name="uogonek" unicode="&#x173;" 
d="M476 -182c-68 0 -112 30 -112 81c0 47 40 80 83 101h-43v82c-27 -53 -79 -93 -166 -93c-101 0 -178 60 -178 197v337h144v-317c0 -70 30 -105 91 -105s109 38 109 115v307h144v-514c-45 -32 -63 -55 -63 -80c0 -21 11 -31 34 -31c13 0 26 2 37 7v-72
c-17 -8 -41 -15 -80 -15z" />
    <glyph glyph-name="Wcircumflex" unicode="&#x174;" horiz-adv-x="971" 
d="M27 715h164l112 -494l122 494h138l127 -497l116 497h150l-174 -715h-165l-129 494l-131 -494h-156zM432 902h123l108 -139h-104l-68 53l-69 -53h-102z" />
    <glyph glyph-name="wcircumflex" unicode="&#x175;" horiz-adv-x="826" 
d="M22 523h152l93 -352l101 352h119l92 -352l99 352h139l-165 -523h-142l-89 328l-96 -328h-144zM365 751h109l114 -156h-102l-69 63l-70 -63h-99z" />
    <glyph glyph-name="Ycircumflex" unicode="&#x176;" horiz-adv-x="648" 
d="M255 308l-236 407h178l145 -274l142 274h157l-223 -407v-308h-163v308zM274 902h123l108 -139h-104l-68 53l-69 -53h-102z" />
    <glyph glyph-name="ycircumflex" unicode="&#x177;" horiz-adv-x="567" 
d="M228 53l-208 470h156l127 -314l117 314h139l-283 -701h-140zM241 751h109l114 -156h-102l-69 63l-70 -63h-99z" />
    <glyph glyph-name="Ydieresis" unicode="&#x178;" horiz-adv-x="660" 
d="M255 308l-236 407h178l145 -274l142 274h157l-223 -407v-308h-163v308zM226 769c-41 0 -74 33 -74 73s33 72 74 72c40 0 74 -32 74 -72s-34 -73 -74 -73zM441 769c-40 0 -73 33 -73 73s33 72 73 72c41 0 74 -32 74 -72s-33 -73 -74 -73z" />
    <glyph glyph-name="Zacute" unicode="&#x179;" horiz-adv-x="615" 
d="M24 20l341 569h-303v126h532v-19l-334 -569h322v-127h-558v20zM308 902h157l-101 -139h-109z" />
    <glyph glyph-name="zacute" unicode="&#x17a;" horiz-adv-x="499" 
d="M20 16l258 395h-232v112h442v-18l-260 -393h250v-112h-458v16zM260 753h152l-104 -159h-105z" />
    <glyph glyph-name="Zdotaccent" unicode="&#x17b;" horiz-adv-x="615" 
d="M24 20l341 569h-303v126h532v-19l-334 -569h322v-127h-558v20zM318 768c-47 0 -81 34 -81 77s34 77 81 77c45 0 80 -34 80 -77s-35 -77 -80 -77z" />
    <glyph glyph-name="zdotaccent" unicode="&#x17c;" horiz-adv-x="499" 
d="M20 16l258 395h-232v112h442v-18l-260 -393h250v-112h-458v16zM262 598c-47 0 -81 34 -81 77s34 77 81 77c45 0 80 -34 80 -77s-35 -77 -80 -77z" />
    <glyph glyph-name="Zcaron" unicode="&#x17d;" horiz-adv-x="627" 
d="M24 20l341 569h-303v126h532v-19l-334 -569h322v-127h-558v20zM145 902h104l69 -52l68 52h102l-112 -139h-123z" />
    <glyph glyph-name="zcaron" unicode="&#x17e;" horiz-adv-x="511" 
d="M20 16l258 395h-232v112h442v-18l-260 -393h250v-112h-458v16zM91 751h102l69 -63l69 63h100l-117 -156h-109z" />
    <glyph glyph-name="uni0192" unicode="&#x192;" horiz-adv-x="429" 
d="M25 414h93l20 134c17 124 89 176 201 176c32 0 52 -3 75 -11v-110c-15 5 -32 9 -57 9c-47 0 -70 -28 -77 -75l-18 -123h120v-102h-135l-72 -494h-144l72 494h-78v102z" />
    <glyph glyph-name="Aringacute" unicode="&#x1fa;" horiz-adv-x="720" 
d="M262 715h211l232 -715h-169l-49 159h-259l-49 -159h-152zM263 274h189l-94 309zM370 803c28 0 49 22 49 53s-21 54 -49 54c-29 0 -49 -23 -49 -54s20 -53 49 -53zM370 745c-32 0 -60 13 -81 33s-34 47 -34 78s13 59 34 79s49 33 81 33s60 -13 81 -33s34 -48 34 -79
s-13 -58 -34 -78s-49 -33 -81 -33zM367 1128h157l-101 -139h-109z" />
    <glyph glyph-name="aringacute" unicode="&#x1fb;" horiz-adv-x="564" 
d="M211 -11c-48 0 -91 12 -123 37s-52 64 -52 119c0 61 28 103 76 130s116 38 196 38h59v21c0 63 -18 96 -85 96c-57 0 -82 -29 -89 -74h-137c4 61 32 107 73 136s98 43 162 43s118 -13 158 -44c39 -31 61 -79 61 -150v-341h-141v63c-31 -43 -75 -74 -158 -74zM254 90
c64 0 113 34 113 93v44h-56c-84 0 -133 -18 -133 -74c0 -39 23 -63 76 -63zM292 632c28 0 49 22 49 53s-21 54 -49 54c-29 0 -49 -23 -49 -54s20 -53 49 -53zM292 574c-32 0 -60 13 -81 33s-34 47 -34 78s13 59 34 79s49 33 81 33s60 -13 81 -33s34 -48 34 -79
s-13 -58 -34 -78s-49 -33 -81 -33zM294 967h157l-101 -139h-109z" />
    <glyph glyph-name="AEacute" unicode="&#x1fc;" horiz-adv-x="983" 
d="M363 715h574v-126h-300v-167h239v-118h-239v-178h317v-126h-479v168h-218l-77 -168h-157zM309 280h166v309h-24zM609 902h157l-101 -139h-109z" />
    <glyph glyph-name="aeacute" unicode="&#x1fd;" horiz-adv-x="898" 
d="M629 -11c-92 0 -160 33 -201 97c-45 -64 -106 -97 -206 -97c-51 0 -98 12 -131 37c-35 25 -55 64 -55 119c0 61 28 104 76 132c47 27 114 39 194 39h62v18c0 63 -21 96 -85 96c-59 0 -83 -27 -90 -74h-137c4 61 32 107 73 136c40 29 96 43 157 43c77 0 135 -19 167 -70
c43 45 99 70 171 70c65 0 129 -19 174 -62s75 -110 75 -202v-39h-367c5 -91 45 -140 124 -140c65 0 97 29 105 73h136c-16 -113 -103 -176 -242 -176zM254 90c68 0 114 34 114 93v46h-59c-81 0 -131 -17 -131 -73c0 -41 23 -66 76 -66zM732 318c-5 77 -41 117 -108 117
c-64 0 -107 -44 -116 -117h224zM465 753h152l-104 -159h-105z" />
    <glyph glyph-name="Oslashacute" unicode="&#x1fe;" horiz-adv-x="816" 
d="M39 21l87 93c-52 63 -80 144 -80 239v8c0 107 38 198 105 262c65 64 156 102 263 102c87 0 162 -24 222 -65l76 81l54 -54l-73 -78c56 -63 89 -145 89 -244v-8c0 -107 -37 -199 -101 -264s-156 -104 -268 -104c-93 0 -172 25 -233 72l-87 -93zM416 118
c61 0 110 24 145 65c35 40 54 100 54 172v8c0 51 -9 95 -28 132l-306 -327c36 -33 80 -50 135 -50zM213 354c0 -47 8 -87 23 -122l303 324c-33 28 -74 41 -125 41c-125 0 -201 -90 -201 -235v-8zM405 902h157l-101 -139h-109z" />
    <glyph glyph-name="oslashacute" unicode="&#x1ff;" horiz-adv-x="616" 
d="M28 6l70 75c-39 45 -60 103 -60 175v8c0 81 30 150 79 197s118 74 197 74c63 0 117 -15 161 -46l66 71l49 -44l-65 -70c40 -45 64 -106 64 -179v-8c0 -83 -30 -150 -79 -197s-118 -73 -197 -73c-64 0 -121 17 -166 48l-70 -75zM314 98c83 0 129 60 129 160v7
c0 31 -5 55 -13 78l-200 -216c21 -19 49 -29 84 -29zM185 259c0 -28 3 -53 10 -73l197 213c-20 17 -46 26 -78 26c-81 0 -129 -58 -129 -158v-8zM312 753h152l-104 -159h-105z" />
    <glyph glyph-name="uni0218" unicode="&#x218;" horiz-adv-x="642" 
d="M333 -11c-99 0 -170 23 -218 64s-73 99 -77 171h155c4 -32 12 -62 33 -82c21 -21 54 -35 107 -35c72 0 118 39 118 95c0 28 -8 47 -28 62c-21 13 -55 23 -107 31c-92 12 -156 31 -197 66c-43 33 -61 82 -61 151c0 61 26 114 71 153c45 37 110 60 189 60
c161 0 255 -71 268 -214h-149c-9 64 -50 95 -119 95c-72 0 -107 -33 -107 -81c0 -25 6 -45 26 -58c19 -15 52 -25 107 -33c87 -11 152 -29 196 -61c44 -33 66 -83 66 -156c0 -64 -26 -121 -73 -161c-47 -41 -116 -67 -200 -67zM216 -201l47 170l130 -21l-95 -176z" />
    <glyph glyph-name="uni0219" unicode="&#x219;" horiz-adv-x="502" 
d="M259 -11c-141 0 -223 62 -228 175h135c7 -47 28 -74 92 -74c56 0 82 21 82 57s-30 51 -106 62c-69 11 -117 26 -148 51c-32 25 -45 61 -45 112c0 55 25 95 64 123c37 27 90 40 143 40c57 0 108 -11 147 -36c37 -25 62 -66 69 -126h-133c-8 43 -31 63 -82 63
c-47 0 -74 -22 -74 -54c0 -33 25 -46 101 -57c65 -9 116 -23 151 -47c33 -25 52 -61 52 -117c0 -113 -81 -172 -220 -172zM150 -201l47 170l130 -21l-95 -176z" />
    <glyph glyph-name="uni021A" unicode="&#x21a;" horiz-adv-x="598" 
d="M223 589h-193v126h549v-126h-193v-589h-163v589zM200 -201l47 170l130 -21l-95 -176z" />
    <glyph glyph-name="uni021B" unicode="&#x21b;" horiz-adv-x="377" 
d="M261 -10c-111 0 -169 56 -169 165v265h-67v103h67v113h144v-113h110v-103h-110v-252c0 -41 19 -62 58 -62c21 0 39 3 55 10v-112c-20 -7 -49 -14 -88 -14zM105 -201l47 170l130 -21l-95 -176z" />
    <glyph glyph-name="uni0237" unicode="&#x237;" horiz-adv-x="281" 
d="M-1 -79c51 4 69 26 69 69v533h144v-532c0 -109 -50 -175 -213 -178v108z" />
    <glyph glyph-name="circumflex" unicode="&#x2c6;" horiz-adv-x="412" 
d="M153 751h109l114 -156h-102l-69 63l-70 -63h-99z" />
    <glyph glyph-name="caron" unicode="&#x2c7;" horiz-adv-x="412" 
d="M36 751h102l69 -63l69 63h100l-117 -156h-109z" />
    <glyph glyph-name="breve" unicode="&#x2d8;" horiz-adv-x="412" 
d="M205 598c-88 0 -147 57 -152 149h95c4 -33 22 -54 57 -54s54 21 61 54h93c-5 -92 -69 -149 -154 -149z" />
    <glyph glyph-name="dotaccent" unicode="&#x2d9;" horiz-adv-x="412" 
d="M206 598c-47 0 -81 34 -81 77s34 77 81 77c45 0 80 -34 80 -77s-35 -77 -80 -77z" />
    <glyph glyph-name="ring" unicode="&#x2da;" horiz-adv-x="412" 
d="M207 643c28 0 49 22 49 53s-21 54 -49 54c-29 0 -49 -23 -49 -54s20 -53 49 -53zM207 585c-32 0 -60 13 -81 33s-34 47 -34 78s13 59 34 79s49 33 81 33s60 -13 81 -33s34 -48 34 -79s-13 -58 -34 -78s-49 -33 -81 -33z" />
    <glyph glyph-name="ogonek" unicode="&#x2db;" horiz-adv-x="412" 
d="M213 -182c-64 0 -112 28 -112 79c0 24 10 45 26 61c16 17 37 31 58 42h90c-35 -25 -52 -46 -52 -71c0 -21 13 -31 33 -31c16 0 29 2 38 7v-72c-17 -8 -45 -15 -81 -15z" />
    <glyph glyph-name="tilde" unicode="&#x2dc;" horiz-adv-x="412" 
d="M266 598c-25 0 -47 10 -64 19l-26 13c-8 4 -16 6 -23 6c-17 0 -31 -16 -35 -37h-83c7 92 50 141 110 141c24 0 45 -10 64 -18c19 -9 35 -19 51 -19c19 0 30 14 34 37h84c-8 -93 -55 -142 -112 -142z" />
    <glyph glyph-name="hungarumlaut" unicode="&#x2dd;" horiz-adv-x="412" 
d="M118 753h123l-76 -159h-89zM286 753h124l-76 -159h-90z" />
    <glyph glyph-name="uni037E" unicode="&#x37e;" horiz-adv-x="310" 
d="M20 -86l88 247l136 -51l-136 -233zM174 281c-51 0 -89 39 -89 88c0 48 38 87 89 87s90 -39 90 -87c0 -24 -10 -46 -26 -62s-39 -26 -64 -26z" />
    <glyph glyph-name="tonos" unicode="&#x384;" horiz-adv-x="400" 
d="M203 753h152l-104 -159h-105z" />
    <glyph glyph-name="dieresistonos" unicode="&#x385;" horiz-adv-x="450" 
d="M201 776h121l-81 -167h-84zM378 604c-37 0 -67 30 -67 67c0 36 30 66 67 66c39 0 68 -30 68 -66c0 -37 -29 -67 -68 -67zM72 604c-39 0 -68 30 -68 67c0 36 29 66 68 66s67 -30 67 -66c0 -37 -28 -67 -67 -67z" />
    <glyph glyph-name="Alphatonos" unicode="&#x386;" horiz-adv-x="720" 
d="M262 715h211l232 -715h-169l-49 159h-259l-49 -159h-152zM263 274h189l-94 309zM33 715h152l-104 -159h-105z" />
    <glyph glyph-name="anoteleia" unicode="&#x387;" horiz-adv-x="293" 
 />
    <glyph glyph-name="Epsilontonos" unicode="&#x388;" horiz-adv-x="595" 
d="M83 715h466v-126h-305v-167h244v-118h-244v-178h321v-126h-482v715zM-103 715h152l-104 -159h-105z" />
    <glyph glyph-name="Etatonos" unicode="&#x389;" horiz-adv-x="764" 
d="M83 715h162v-292h287v292h162v-715h-162v295h-287v-295h-162v715zM-103 715h152l-104 -159h-105z" />
    <glyph glyph-name="Iotatonos" unicode="&#x38a;" horiz-adv-x="325" 
d="M87 715h163v-715h-163v715zM-103 715h152l-104 -159h-105z" />
    <glyph glyph-name="Omicrontonos" unicode="&#x38c;" horiz-adv-x="816" 
d="M416 118c60 0 109 24 144 65c33 40 53 100 53 172v8c0 69 -19 128 -52 169c-35 41 -84 65 -147 65s-111 -23 -146 -63c-35 -41 -53 -100 -53 -172v-8c0 -73 21 -132 57 -172c35 -41 85 -64 144 -64zM413 -11c-112 0 -204 39 -267 104c-64 64 -100 156 -100 260v8
c0 107 38 198 105 262c65 64 156 102 263 102c108 0 200 -36 265 -99c64 -64 103 -153 103 -261v-8c0 -107 -37 -199 -101 -264s-156 -104 -268 -104zM-38 715h152l-104 -159h-105z" />
    <glyph glyph-name="Upsilontonos" unicode="&#x38e;" horiz-adv-x="648" 
d="M255 308l-236 407h178l145 -274l142 274h157l-223 -407v-308h-163v308zM-148 715h152l-104 -159h-105z" />
    <glyph glyph-name="Omegatonos" unicode="&#x38f;" horiz-adv-x="822" 
d="M209 357c0 -128 54 -214 151 -279v-78h-316v121h121c-65 43 -123 138 -123 247v6c0 188 143 351 369 351c228 0 369 -155 369 -348v-7c0 -120 -62 -206 -123 -249h121v-121h-316v78c92 57 151 143 151 279v8c0 131 -67 233 -202 233s-202 -99 -202 -233v-8zM-38 715h152
l-104 -159h-105z" />
    <glyph glyph-name="iotadieresistonos" unicode="&#x390;" horiz-adv-x="280" 
d="M68 523h144v-523h-144v523zM139 776h121l-81 -167h-84zM316 604c-37 0 -67 30 -67 67c0 36 30 66 67 66c39 0 68 -30 68 -66c0 -37 -29 -67 -68 -67zM10 604c-39 0 -68 30 -68 67c0 36 29 66 68 66s67 -30 67 -66c0 -37 -28 -67 -67 -67z" />
    <glyph glyph-name="Alpha" unicode="&#x391;" horiz-adv-x="720" 
d="M262 715h211l232 -715h-169l-49 159h-259l-49 -159h-152zM263 274h189l-94 309z" />
    <glyph glyph-name="Beta" unicode="&#x392;" horiz-adv-x="658" 
d="M83 715h281c157 0 237 -63 237 -186v-4c0 -76 -36 -130 -116 -153c93 -19 143 -72 143 -168v-4c0 -132 -84 -200 -251 -200h-294v715zM352 112c80 0 116 36 116 101v4c0 67 -36 100 -124 100h-103v-205h111zM338 421c79 0 109 28 109 92v4c0 60 -34 87 -110 87h-96v-183
h97z" />
    <glyph glyph-name="Gamma" unicode="&#x393;" horiz-adv-x="554" 
d="M77 715h454v-127h-292v-588h-162v715z" />
    <glyph glyph-name="uni0394" unicode="&#x394;" horiz-adv-x="730" 
d="M28 20l226 695h225l223 -695v-20h-674v20zM209 127h297l-148 475z" />
    <glyph glyph-name="Epsilon" unicode="&#x395;" horiz-adv-x="595" 
d="M83 715h466v-126h-305v-167h244v-118h-244v-178h321v-126h-482v715z" />
    <glyph glyph-name="Zeta" unicode="&#x396;" horiz-adv-x="615" 
d="M24 20l341 569h-303v126h532v-19l-334 -569h322v-127h-558v20z" />
    <glyph glyph-name="Eta" unicode="&#x397;" horiz-adv-x="764" 
d="M83 715h162v-292h287v292h162v-715h-162v295h-287v-295h-162v715z" />
    <glyph glyph-name="Theta" unicode="&#x398;" horiz-adv-x="826" 
d="M412 -11c-228 0 -372 151 -372 364v8c0 216 157 364 373 364c219 0 373 -141 373 -360v-8c0 -217 -147 -368 -374 -368zM415 115c126 0 204 95 204 240v8c0 139 -77 237 -206 237c-128 0 -206 -94 -206 -238v-8c0 -146 87 -239 208 -239zM301 414h223v-107h-223v107z" />
    <glyph glyph-name="Iota" unicode="&#x399;" horiz-adv-x="325" 
d="M87 715h163v-715h-163v715z" />
    <glyph glyph-name="Kappa" unicode="&#x39a;" horiz-adv-x="686" 
d="M83 715h162v-308l250 309h172l-283 -339l297 -377h-189l-247 321v-321h-162v715z" />
    <glyph glyph-name="Lambda" unicode="&#x39b;" horiz-adv-x="706" 
d="M684 0h-170l-170 546l-171 -546h-152l238 715h189z" />
    <glyph glyph-name="Mu" unicode="&#x39c;" horiz-adv-x="910" 
d="M83 715h214l167 -445l165 445h210v-715h-161v502l-198 -502h-53l-199 502v-502h-145v715z" />
    <glyph glyph-name="Nu" unicode="&#x39d;" horiz-adv-x="758" 
d="M83 715h188l272 -471v471h144v-715h-162l-298 509v-509h-144v715z" />
    <glyph glyph-name="Xi" unicode="&#x39e;" horiz-adv-x="606" 
d="M564 715v-131h-521v131h521zM515 421v-123h-424v123h424zM36 131h535v-131h-535v131z" />
    <glyph glyph-name="Omicron" unicode="&#x39f;" horiz-adv-x="816" 
d="M416 118c60 0 109 24 144 65c33 40 53 100 53 172v8c0 69 -19 128 -52 169c-35 41 -84 65 -147 65s-111 -23 -146 -63c-35 -41 -53 -100 -53 -172v-8c0 -73 21 -132 57 -172c35 -41 85 -64 144 -64zM413 -11c-112 0 -204 39 -267 104c-64 64 -100 156 -100 260v8
c0 107 38 198 105 262c65 64 156 102 263 102c108 0 200 -36 265 -99c64 -64 103 -153 103 -261v-8c0 -107 -37 -199 -101 -264s-156 -104 -268 -104z" />
    <glyph glyph-name="Pi" unicode="&#x3a0;" horiz-adv-x="755" 
d="M77 715h602v-715h-162v584h-278v-584h-162v715z" />
    <glyph glyph-name="Rho" unicode="&#x3a1;" horiz-adv-x="626" 
d="M83 715h247c175 0 273 -76 273 -228v-4c0 -76 -26 -131 -73 -168s-114 -55 -195 -55h-91v-260h-161v715zM326 373c81 0 121 37 121 109v4c0 76 -44 106 -121 106h-82v-219h82z" />
    <glyph glyph-name="Sigma" unicode="&#x3a3;" horiz-adv-x="596" 
d="M49 590v125h495v-124h-310l184 -220l-184 -241h326v-130h-515v105l194 255z" />
    <glyph glyph-name="Tau" unicode="&#x3a4;" horiz-adv-x="597" 
d="M223 589h-193v126h549v-126h-193v-589h-163v589z" />
    <glyph glyph-name="Upsilon" unicode="&#x3a5;" horiz-adv-x="648" 
d="M255 308l-236 407h178l145 -274l142 274h157l-223 -407v-308h-163v308z" />
    <glyph glyph-name="Phi" unicode="&#x3a6;" horiz-adv-x="922" 
d="M387 46c-225 11 -347 149 -347 312v6c0 166 131 300 347 311v64h148v-64c217 -11 347 -138 347 -307v-6c0 -167 -121 -305 -347 -316v-70h-148v70zM201 359c0 -105 66 -177 186 -192v389c-128 -13 -186 -87 -186 -191v-6zM721 366c0 100 -59 177 -186 190v-390
c125 13 186 88 186 193v7z" />
    <glyph glyph-name="Chi" unicode="&#x3a7;" horiz-adv-x="719" 
d="M263 367l-210 348h183l136 -238l135 238h166l-204 -343l226 -372h-184l-155 266l-154 -266h-166z" />
    <glyph glyph-name="Psi" unicode="&#x3a8;" horiz-adv-x="852" 
d="M353 172c-208 11 -299 129 -299 289v254h155v-243c0 -107 37 -165 144 -174v417h148v-416c97 11 150 60 150 184v232h147v-243c0 -164 -87 -283 -297 -299v-173h-148v172z" />
    <glyph glyph-name="uni03A9" unicode="&#x3a9;" horiz-adv-x="822" 
d="M209 357c0 -128 54 -214 151 -279v-78h-316v121h121c-65 43 -123 138 -123 247v6c0 188 143 351 369 351c228 0 369 -155 369 -348v-7c0 -120 -62 -206 -123 -249h121v-121h-316v78c92 57 151 143 151 279v8c0 131 -67 233 -202 233s-202 -99 -202 -233v-8z" />
    <glyph glyph-name="Iotadieresis" unicode="&#x3aa;" horiz-adv-x="325" 
d="M87 715h163v-715h-163v715zM61 769c-41 0 -74 33 -74 73s33 72 74 72c40 0 74 -32 74 -72s-34 -73 -74 -73zM276 769c-40 0 -73 33 -73 73s33 72 73 72c41 0 74 -32 74 -72s-33 -73 -74 -73z" />
    <glyph glyph-name="Upsilondieresis" unicode="&#x3ab;" horiz-adv-x="648" 
d="M255 308l-236 407h178l145 -274l142 274h157l-223 -407v-308h-163v308zM231 769c-41 0 -74 33 -74 73s33 72 74 72c40 0 74 -32 74 -72s-34 -73 -74 -73zM446 769c-40 0 -73 33 -73 73s33 72 73 72c41 0 74 -32 74 -72s-33 -73 -74 -73z" />
    <glyph glyph-name="alphatonos" unicode="&#x3ac;" horiz-adv-x="627" 
d="M298 102c71 0 125 50 125 157v8c0 107 -47 157 -120 157c-76 0 -122 -55 -122 -159v-8c0 -104 49 -155 117 -155zM256 -11c-119 0 -223 92 -223 265v8c0 172 103 273 227 273c80 0 128 -36 159 -89v77h144v-523h-144v85c-28 -52 -88 -96 -163 -96zM329 753h152l-104 -159
h-105z" />
    <glyph glyph-name="epsilontonos" unicode="&#x3ad;" horiz-adv-x="569" 
d="M148 273c-57 9 -102 54 -102 111c0 76 62 151 241 151c149 0 234 -53 249 -164h-136c-5 35 -22 64 -106 64c-67 0 -101 -18 -101 -65c0 -25 17 -56 71 -56h98v-90h-97c-60 0 -85 -24 -85 -65c0 -49 43 -66 111 -66c79 0 113 29 118 74h132c-9 -116 -101 -178 -254 -178
c-169 0 -253 58 -253 157c0 64 43 112 114 127zM304 753h152l-104 -159h-105z" />
    <glyph glyph-name="etatonos" unicode="&#x3ae;" horiz-adv-x="614" 
d="M64 523h144v-84c27 53 83 96 171 96c103 0 175 -61 175 -202v-511h-143v490c0 72 -29 105 -93 105c-63 0 -110 -38 -110 -115v-302h-144v523zM316 753h152l-104 -159h-105z" />
    <glyph glyph-name="iotatonos" unicode="&#x3af;" horiz-adv-x="280" 
d="M68 523h144v-523h-144v523zM150 753h152l-104 -159h-105z" />
    <glyph glyph-name="upsilondieresistonos" unicode="&#x3b0;" horiz-adv-x="605" 
d="M302 -11c-152 0 -243 86 -243 234v300h144v-305c0 -75 29 -117 100 -117c69 0 100 43 100 116v306h144v-299c0 -148 -94 -235 -245 -235zM283 776h121l-81 -167h-84zM460 604c-37 0 -67 30 -67 67c0 36 30 66 67 66c39 0 68 -30 68 -66c0 -37 -29 -67 -68 -67zM154 604
c-39 0 -68 30 -68 67c0 36 29 66 68 66s67 -30 67 -66c0 -37 -28 -67 -67 -67z" />
    <glyph glyph-name="alpha" unicode="&#x3b1;" horiz-adv-x="627" 
d="M298 102c71 0 125 50 125 157v8c0 107 -47 157 -120 157c-76 0 -122 -55 -122 -159v-8c0 -104 49 -155 117 -155zM256 -11c-119 0 -223 92 -223 265v8c0 172 103 273 227 273c80 0 128 -36 159 -89v77h144v-523h-144v85c-28 -52 -88 -96 -163 -96z" />
    <glyph glyph-name="beta" unicode="&#x3b2;" horiz-adv-x="625" 
d="M296 455c91 -3 130 43 130 106v5c0 57 -39 96 -108 96c-65 0 -110 -45 -110 -121v-302c0 -95 64 -137 121 -137c68 0 119 39 119 123v6c0 81 -52 124 -152 120v104zM440 412c89 -20 155 -87 155 -190v-7c0 -135 -99 -223 -231 -223c-65 0 -127 33 -156 89v-259h-144v711
c0 155 104 234 253 234c147 0 243 -75 243 -191v-4c0 -75 -45 -137 -120 -160z" />
    <glyph glyph-name="gamma" unicode="&#x3b3;" horiz-adv-x="585" 
d="M432 523h141l-208 -516v-185h-143v185l-209 516h155l132 -357z" />
    <glyph glyph-name="delta" unicode="&#x3b4;" horiz-adv-x="610" 
d="M111 760h418v-111h-227l152 -159c75 -80 124 -140 124 -236v-8c0 -152 -119 -257 -274 -257c-156 0 -272 100 -272 256v6c0 126 89 233 220 233c9 0 29 -1 44 -5l-185 190v91zM431 254c0 84 -47 142 -126 142c-80 0 -125 -57 -125 -141v-6c0 -88 41 -150 125 -150
c80 0 126 56 126 148v7z" />
    <glyph glyph-name="epsilon" unicode="&#x3b5;" horiz-adv-x="569" 
d="M148 273c-57 9 -102 54 -102 111c0 76 62 151 241 151c149 0 234 -53 249 -164h-136c-5 35 -22 64 -106 64c-67 0 -101 -18 -101 -65c0 -25 17 -56 71 -56h98v-90h-97c-60 0 -85 -24 -85 -65c0 -49 43 -66 111 -66c79 0 113 29 118 74h132c-9 -116 -101 -178 -254 -178
c-169 0 -253 58 -253 157c0 64 43 112 114 127z" />
    <glyph glyph-name="zeta" unicode="&#x3b6;" horiz-adv-x="511" 
d="M261 0c-140 0 -229 82 -229 210c0 155 122 322 236 428h-202v122h439v-32c-192 -179 -324 -371 -324 -505c0 -75 45 -104 108 -104h58c105 0 154 -54 154 -134c0 -47 -14 -100 -25 -135h-116c8 27 16 71 16 94c0 37 -19 56 -57 56h-58z" />
    <glyph glyph-name="eta" unicode="&#x3b7;" horiz-adv-x="614" 
d="M64 523h144v-84c27 53 83 96 171 96c103 0 175 -61 175 -202v-511h-143v490c0 72 -29 105 -93 105c-63 0 -110 -38 -110 -115v-302h-144v523z" />
    <glyph glyph-name="theta" unicode="&#x3b8;" horiz-adv-x="631" 
d="M582 362c0 -233 -91 -373 -267 -373c-175 0 -266 137 -266 369v41c0 231 99 368 266 368c168 0 267 -127 267 -366v-39zM315 657c-84 0 -124 -78 -127 -223h253c-3 145 -42 223 -126 223zM316 97c85 0 123 82 126 231h-254c3 -151 40 -231 128 -231z" />
    <glyph glyph-name="iota" unicode="&#x3b9;" horiz-adv-x="280" 
d="M68 523h144v-523h-144v523z" />
    <glyph glyph-name="kappa" unicode="&#x3ba;" horiz-adv-x="557" 
d="M208 289l181 234h154l-201 -249l209 -274h-163l-180 239v-239h-144v523h144v-234z" />
    <glyph glyph-name="lambda" unicode="&#x3bb;" horiz-adv-x="581" 
d="M179 605c-15 37 -32 50 -67 50c-20 0 -45 -6 -64 -11v108c27 9 68 15 104 15c68 0 120 -31 157 -131l177 -482c8 -23 24 -44 49 -44c12 0 31 3 38 4v-111c-19 -7 -47 -10 -74 -10c-65 0 -110 36 -135 109l-86 251l-119 -353h-149l201 517z" />
    <glyph glyph-name="uni03BC" unicode="&#x3bc;" horiz-adv-x="615" 
d="M64 523h144v-323c0 -67 30 -101 91 -101c63 0 110 38 110 115v309h143v-523h-142v75c-19 -47 -59 -77 -119 -77c-32 0 -64 12 -83 43v-219h-144v701z" />
    <glyph glyph-name="nu" unicode="&#x3bd;" horiz-adv-x="571" 
d="M20 523h155l125 -374l124 374h140l-190 -523h-163z" />
    <glyph glyph-name="xi" unicode="&#x3be;" horiz-adv-x="527" 
d="M360 118c105 0 151 -53 151 -134c0 -47 -14 -99 -25 -134h-116c8 28 17 70 17 94c0 37 -19 56 -57 56h-46c-149 0 -252 77 -252 209c0 101 67 172 154 190c-69 24 -104 71 -104 131c0 56 30 103 98 126h-135v104h451v-115h-131c-80 0 -139 -31 -139 -102
c0 -52 40 -88 112 -88h113v-119h-133c-88 0 -138 -43 -138 -119c0 -68 51 -99 127 -99h53z" />
    <glyph glyph-name="omicron" unicode="&#x3bf;" horiz-adv-x="615" 
d="M314 99c81 0 128 59 128 159v7c0 100 -47 160 -128 160c-80 0 -128 -58 -128 -158v-8c0 -100 45 -160 128 -160zM313 -11c-79 0 -147 26 -196 73c-49 45 -79 113 -79 194v8c0 81 30 150 79 197s118 74 197 74s148 -26 197 -73c48 -47 78 -114 78 -195v-8
c0 -83 -30 -150 -79 -197s-118 -73 -197 -73z" />
    <glyph glyph-name="pi" unicode="&#x3c0;" horiz-adv-x="634" 
d="M403 415h-172v-415h-143v415h-69v108h596v-108h-69v-415h-143v415z" />
    <glyph glyph-name="rho" unicode="&#x3c1;" horiz-adv-x="620" 
d="M318 100c81 0 122 58 122 158v7c0 100 -44 160 -125 160s-126 -58 -126 -158v-8c0 -105 46 -159 129 -159zM342 -6c-61 0 -121 32 -150 85v-257h-144v443c0 164 110 270 267 270c156 0 272 -105 272 -268v-8c0 -163 -104 -265 -245 -265z" />
    <glyph glyph-name="uni03C2" unicode="&#x3c2;" horiz-adv-x="578" 
d="M180 260c0 -83 40 -145 132 -145h35c104 0 159 -50 159 -131c0 -47 -15 -99 -26 -134h-116c7 27 17 70 17 95c0 39 -18 55 -57 55h-31c-152 0 -261 99 -261 255v8c0 169 121 272 270 272c121 0 233 -55 246 -203h-138c-9 61 -48 90 -108 90c-73 0 -122 -57 -122 -153v-9z
" />
    <glyph glyph-name="sigma" unicode="&#x3c3;" horiz-adv-x="637" 
d="M307 -11c-156 0 -275 104 -275 267v8c0 163 111 259 274 259h311v-108h-126c53 -27 90 -85 90 -156v-7c0 -161 -117 -263 -274 -263zM308 99c81 0 128 59 128 159v8c0 100 -45 154 -128 154c-84 0 -128 -55 -128 -152v-9c0 -101 45 -160 128 -160z" />
    <glyph glyph-name="tau" unicode="&#x3c4;" horiz-adv-x="491" 
d="M340 -8c-123 0 -175 75 -175 183v240h-146v108h445v-108h-154v-230c0 -56 21 -80 70 -80c21 0 45 4 62 9v-111c-25 -7 -53 -11 -102 -11z" />
    <glyph glyph-name="upsilon" unicode="&#x3c5;" horiz-adv-x="605" 
d="M302 -11c-152 0 -243 86 -243 234v300h144v-305c0 -75 29 -117 100 -117c69 0 100 43 100 116v306h144v-299c0 -148 -94 -235 -245 -235z" />
    <glyph glyph-name="phi" unicode="&#x3c6;" horiz-adv-x="800" 
d="M768 264c0 -176 -125 -267 -298 -270v-172h-142v172c-183 5 -296 98 -296 263v8c0 148 87 245 236 265v-108c-60 -20 -92 -68 -92 -159v-8c0 -95 41 -149 152 -157v432c23 3 69 5 106 5c216 0 334 -112 334 -263v-8zM624 270c0 93 -47 156 -154 157v-329
c113 3 154 66 154 165v7z" />
    <glyph glyph-name="chi" unicode="&#x3c7;" horiz-adv-x="575" 
d="M211 189l-102 191c-15 27 -30 35 -53 35c-11 0 -25 -3 -37 -7v107c24 11 51 16 80 16c56 0 96 -17 127 -77l80 -156l104 225h148l-182 -344l110 -204c15 -28 29 -41 56 -41c8 0 20 1 31 4v-110c-27 -9 -56 -11 -75 -11c-56 0 -101 31 -137 99l-80 155l-121 -249h-143z
" />
    <glyph glyph-name="psi" unicode="&#x3c8;" horiz-adv-x="798" 
d="M196 250c0 -76 32 -140 132 -148v421h142v-421c99 9 132 69 132 148v273h143v-271c0 -156 -104 -248 -275 -256v-174h-142v174c-179 8 -275 98 -275 259v268h143v-273z" />
    <glyph glyph-name="omega" unicode="&#x3c9;" horiz-adv-x="805" 
d="M473 203c0 -69 27 -105 72 -105c52 0 81 51 81 143v7c0 84 -22 163 -110 179v109c173 -13 256 -128 256 -288v-8c0 -147 -77 -251 -209 -251c-92 0 -139 48 -160 106c-21 -56 -73 -106 -160 -106c-135 0 -211 104 -211 251v8c0 160 86 275 257 288v-109
c-85 -16 -109 -95 -109 -178v-8c0 -92 26 -143 81 -143c44 0 70 37 70 105v147h142v-147z" />
    <glyph glyph-name="iotadieresis" unicode="&#x3ca;" horiz-adv-x="280" 
d="M68 523h144v-523h-144v523zM45 600c-41 0 -74 32 -74 72s33 72 74 72s74 -32 74 -72s-33 -72 -74 -72zM249 600c-41 0 -74 32 -74 72s33 72 74 72s74 -32 74 -72s-33 -72 -74 -72z" />
    <glyph glyph-name="upsilondieresis" unicode="&#x3cb;" horiz-adv-x="605" 
d="M302 -11c-152 0 -243 86 -243 234v300h144v-305c0 -75 29 -117 100 -117c69 0 100 43 100 116v306h144v-299c0 -148 -94 -235 -245 -235zM206 600c-41 0 -74 32 -74 72s33 72 74 72s74 -32 74 -72s-33 -72 -74 -72zM410 600c-41 0 -74 32 -74 72s33 72 74 72
s74 -32 74 -72s-33 -72 -74 -72z" />
    <glyph glyph-name="omicrontonos" unicode="&#x3cc;" horiz-adv-x="615" 
d="M314 99c81 0 128 59 128 159v7c0 100 -47 160 -128 160c-80 0 -128 -58 -128 -158v-8c0 -100 45 -160 128 -160zM313 -11c-79 0 -147 26 -196 73c-49 45 -79 113 -79 194v8c0 81 30 150 79 197s118 74 197 74s148 -26 197 -73c48 -47 78 -114 78 -195v-8
c0 -83 -30 -150 -79 -197s-118 -73 -197 -73zM317 753h152l-104 -159h-105z" />
    <glyph glyph-name="upsilontonos" unicode="&#x3cd;" horiz-adv-x="605" 
d="M302 -11c-152 0 -243 86 -243 234v300h144v-305c0 -75 29 -117 100 -117c69 0 100 43 100 116v306h144v-299c0 -148 -94 -235 -245 -235zM309 753h152l-104 -159h-105z" />
    <glyph glyph-name="omegatonos" unicode="&#x3ce;" horiz-adv-x="805" 
d="M473 203c0 -69 27 -105 72 -105c52 0 81 51 81 143v7c0 84 -22 163 -110 179v109c173 -13 256 -128 256 -288v-8c0 -147 -77 -251 -209 -251c-92 0 -139 48 -160 106c-21 -56 -73 -106 -160 -106c-135 0 -211 104 -211 251v8c0 160 86 275 257 288v-109
c-85 -16 -109 -95 -109 -178v-8c0 -92 26 -143 81 -143c44 0 70 37 70 105v147h142v-147zM414 753h152l-104 -159h-105z" />
    <glyph glyph-name="uni0401" unicode="&#x401;" horiz-adv-x="595" 
d="M83 715h466v-126h-305v-167h244v-118h-244v-178h321v-126h-482v715zM215 769c-41 0 -74 33 -74 73s33 72 74 72c40 0 74 -32 74 -72s-34 -73 -74 -73zM430 769c-40 0 -73 33 -73 73s33 72 73 72c41 0 74 -32 74 -72s-33 -73 -74 -73z" />
    <glyph glyph-name="uni0402" unicode="&#x402;" horiz-adv-x="809" 
d="M380 392c12 12 70 53 169 53c153 0 224 -93 224 -230c0 -153 -74 -232 -209 -232c-47 0 -77 9 -101 21v124c13 -7 31 -16 70 -16c51 0 78 37 78 102c0 61 -27 104 -112 104c-64 0 -108 -35 -119 -49v-269h-163v589h-193v126h553v-126h-197v-197z" />
    <glyph glyph-name="uni0403" unicode="&#x403;" horiz-adv-x="557" 
d="M77 715h449v-128h-287v-587h-162v715zM303 902h157l-101 -139h-109z" />
    <glyph glyph-name="uni0404" unicode="&#x404;" horiz-adv-x="748" 
d="M720 254c-24 -176 -145 -265 -321 -265c-235 0 -359 145 -359 364v8c0 217 151 365 355 365c173 0 296 -81 317 -257h-166c-13 87 -59 129 -150 129c-96 0 -163 -65 -180 -174h275v-121h-276c12 -117 78 -184 182 -184c89 0 149 43 164 135h159z" />
    <glyph glyph-name="uni0405" unicode="&#x405;" horiz-adv-x="640" 
d="M333 -11c-99 0 -170 23 -218 64s-73 99 -77 171h155c4 -32 12 -62 33 -82c21 -21 54 -35 107 -35c72 0 118 39 118 95c0 28 -8 47 -28 62c-21 13 -55 23 -107 31c-92 12 -156 31 -197 66c-43 33 -61 82 -61 151c0 61 26 114 71 153c45 37 110 60 189 60
c161 0 255 -71 268 -214h-149c-9 64 -50 95 -119 95c-72 0 -107 -33 -107 -81c0 -25 6 -45 26 -58c19 -15 52 -25 107 -33c87 -11 152 -29 196 -61c44 -33 66 -83 66 -156c0 -64 -26 -121 -73 -161c-47 -41 -116 -67 -200 -67z" />
    <glyph glyph-name="uni0406" unicode="&#x406;" horiz-adv-x="325" 
d="M87 715h163v-715h-163v715z" />
    <glyph glyph-name="uni0407" unicode="&#x407;" horiz-adv-x="325" 
d="M87 715h163v-715h-163v715zM60 769c-41 0 -74 33 -74 73s33 72 74 72c40 0 74 -32 74 -72s-34 -73 -74 -73zM275 769c-40 0 -73 33 -73 73s33 72 73 72c41 0 74 -32 74 -72s-33 -73 -74 -73z" />
    <glyph glyph-name="uni0408" unicode="&#x408;" horiz-adv-x="457" 
d="M160 -9c-63 0 -94 9 -119 22v124c24 -9 47 -17 90 -17c61 0 101 30 101 113v482h163v-484c0 -163 -87 -240 -235 -240z" />
    <glyph glyph-name="uni0409" unicode="&#x409;" horiz-adv-x="1028" 
d="M488 587h-191c-3 -87 -5 -193 -12 -286c-13 -183 -58 -312 -207 -312c-19 0 -30 2 -41 5l-15 6v132c1 -1 3 -1 6 -2c5 -1 13 -2 22 -2c55 0 79 64 90 185c9 111 11 249 11 402h498v-266h82c162 0 267 -68 267 -219v-4c0 -152 -98 -226 -273 -226h-237v587zM722 123
c76 0 121 28 121 104v4c0 72 -42 104 -122 104h-72v-212h73z" />
    <glyph glyph-name="uni040A" unicode="&#x40a;" horiz-adv-x="1042" 
d="M737 123c76 0 120 28 120 104v4c0 69 -40 104 -121 104h-72v-212h73zM503 295h-264v-295h-162v715h162v-292h264v292h161v-266h81c163 0 268 -68 268 -219v-4c0 -152 -98 -226 -274 -226h-236v295z" />
    <glyph glyph-name="uni040B" unicode="&#x40b;" horiz-adv-x="819" 
d="M380 393c11 10 25 19 42 26c28 13 68 26 124 26c156 0 223 -94 223 -249v-196h-162v190c0 83 -24 128 -109 128c-40 0 -70 -12 -89 -23c-12 -7 -22 -15 -29 -23v-272h-163v589h-193v126h553v-126h-197v-196z" />
    <glyph glyph-name="uni040C" unicode="&#x40c;" horiz-adv-x="686" 
d="M353 902h157l-101 -139h-109zM83 715h162v-308l250 309h172l-283 -339l297 -377h-189l-247 321v-321h-162v715z" />
    <glyph glyph-name="uni040D" unicode="&#x40d;" horiz-adv-x="778" 
d="M77 0v715h162v-500l300 500h162v-715h-162v504l-300 -504h-162zM250 902h156l52 -139h-109z" />
    <glyph glyph-name="uni040E" unicode="&#x40e;" horiz-adv-x="635" 
d="M333 757c-92 0 -148 58 -153 146h103c3 -32 17 -60 50 -60c35 0 50 27 54 60h102c-7 -88 -65 -146 -156 -146zM166 -9c-35 0 -56 8 -63 12v129c7 -1 23 -7 51 -7c43 0 77 24 103 73l-245 517h170l151 -340l142 340h156l-237 -538c-50 -111 -103 -186 -228 -186z" />
    <glyph glyph-name="uni040F" unicode="&#x40f;" horiz-adv-x="754" 
d="M77 0v715h162v-587h277v587h162v-715h-230l-2 -130h-137l-2 130h-230z" />
    <glyph glyph-name="uni0410" unicode="&#x410;" horiz-adv-x="720" 
d="M262 715h211l232 -715h-169l-49 159h-259l-49 -159h-152zM263 274h189l-94 309z" />
    <glyph glyph-name="uni0411" unicode="&#x411;" horiz-adv-x="639" 
d="M607 221c0 -141 -89 -221 -268 -221h-262v715h466v-126h-305l-1 -150h107c167 0 263 -70 263 -214v-4zM333 123c79 0 119 33 119 99v4c0 64 -39 99 -123 99h-92v-202h96z" />
    <glyph glyph-name="uni0412" unicode="&#x412;" horiz-adv-x="658" 
d="M83 715h281c157 0 237 -63 237 -186v-4c0 -76 -36 -130 -116 -153c93 -19 143 -72 143 -168v-4c0 -132 -84 -200 -251 -200h-294v715zM352 112c80 0 116 36 116 101v4c0 67 -36 100 -124 100h-103v-205h111zM338 421c79 0 109 28 109 92v4c0 60 -34 87 -110 87h-96v-183
h97z" />
    <glyph glyph-name="uni0413" unicode="&#x413;" horiz-adv-x="557" 
d="M77 715h449v-128h-287v-587h-162v715z" />
    <glyph glyph-name="uni0414" unicode="&#x414;" horiz-adv-x="740" 
d="M264 308c-7 -73 -18 -133 -43 -180h264v459h-207c-3 -84 -7 -190 -14 -279zM139 -130h-141v258h45c47 19 66 82 77 189c9 108 12 245 12 398h514v-587h87v-258h-141l-5 130h-443z" />
    <glyph glyph-name="uni0415" unicode="&#x415;" horiz-adv-x="595" 
d="M83 715h466v-126h-305v-167h244v-118h-244v-178h321v-126h-482v715z" />
    <glyph glyph-name="uni0416" unicode="&#x416;" horiz-adv-x="973" 
d="M406 325l-219 -325h-175l262 373l-250 342h168l214 -313v313h159v-314l217 314h165l-250 -336l264 -379h-179l-217 327v-327h-159v325z" />
    <glyph glyph-name="uni0417" unicode="&#x417;" horiz-adv-x="645" 
d="M317 -11c-164 0 -270 91 -289 252h154c12 -72 48 -122 137 -122c79 0 120 38 120 103c0 64 -32 93 -115 93h-76v107h72c72 0 99 31 99 90c0 56 -38 85 -98 85c-76 0 -108 -38 -121 -109h-153c19 157 121 237 278 237c154 0 257 -81 257 -196c0 -80 -40 -137 -120 -158
c93 -15 146 -70 146 -161c0 -134 -119 -221 -291 -221z" />
    <glyph glyph-name="uni0418" unicode="&#x418;" horiz-adv-x="778" 
d="M77 0v715h162v-500l300 500h162v-715h-162v504l-300 -504h-162z" />
    <glyph glyph-name="uni0419" unicode="&#x419;" horiz-adv-x="778" 
d="M387 757c-92 0 -148 58 -153 146h103c3 -32 17 -60 50 -60s49 27 53 60h102c-7 -88 -66 -146 -155 -146zM77 0v715h162v-500l300 500h162v-715h-162v504l-300 -504h-162z" />
    <glyph glyph-name="uni041A" unicode="&#x41a;" horiz-adv-x="686" 
d="M83 715h162v-308l250 309h172l-283 -339l297 -377h-189l-247 321v-321h-162v715z" />
    <glyph glyph-name="uni041B" unicode="&#x41b;" horiz-adv-x="730" 
d="M281 264c-16 -160 -63 -275 -203 -275c-19 0 -30 2 -41 5l-15 6v132c1 -1 3 -1 6 -2c5 -1 13 -2 22 -2c53 0 77 58 88 171s13 255 13 416h503v-715h-162v587h-195c-3 -101 -5 -220 -16 -323z" />
    <glyph glyph-name="uni041C" unicode="&#x41c;" horiz-adv-x="911" 
d="M83 715h214l167 -445l165 445h210v-715h-161v502l-198 -502h-53l-199 502v-502h-145v715z" />
    <glyph glyph-name="uni041D" unicode="&#x41d;" horiz-adv-x="764" 
d="M83 715h162v-292h287v292h162v-715h-162v295h-287v-295h-162v715z" />
    <glyph glyph-name="uni041E" unicode="&#x41e;" horiz-adv-x="816" 
d="M416 118c60 0 109 24 144 65c33 40 53 100 53 172v8c0 69 -19 128 -52 169c-35 41 -84 65 -147 65s-111 -23 -146 -63c-35 -41 -53 -100 -53 -172v-8c0 -73 21 -132 57 -172c35 -41 85 -64 144 -64zM413 -11c-112 0 -204 39 -267 104c-64 64 -100 156 -100 260v8
c0 107 38 198 105 262c65 64 156 102 263 102c108 0 200 -36 265 -99c64 -64 103 -153 103 -261v-8c0 -107 -37 -199 -101 -264s-156 -104 -268 -104z" />
    <glyph glyph-name="uni041F" unicode="&#x41f;" horiz-adv-x="754" 
d="M516 587h-277v-587h-162v715h601v-715h-162v587z" />
    <glyph glyph-name="uni0420" unicode="&#x420;" horiz-adv-x="626" 
d="M83 715h247c175 0 273 -76 273 -228v-4c0 -76 -26 -131 -73 -168s-114 -55 -195 -55h-91v-260h-161v715zM326 373c81 0 121 37 121 109v4c0 76 -44 106 -121 106h-82v-219h82z" />
    <glyph glyph-name="uni0421" unicode="&#x421;" horiz-adv-x="748" 
d="M405 -11c-117 0 -207 36 -267 100c-61 63 -92 153 -92 264v8c0 108 38 200 102 264c63 64 152 101 253 101c85 0 161 -21 217 -64c55 -43 92 -108 100 -196h-166c-12 87 -59 132 -150 132c-113 0 -185 -87 -185 -236v-8c0 -149 67 -234 186 -234c89 0 151 45 164 137h159
c-9 -88 -45 -156 -101 -200c-56 -45 -132 -68 -220 -68z" />
    <glyph glyph-name="uni0422" unicode="&#x422;" horiz-adv-x="597" 
d="M223 589h-193v126h549v-126h-193v-589h-163v589z" />
    <glyph glyph-name="uni0423" unicode="&#x423;" horiz-adv-x="635" 
d="M166 -9c-35 0 -56 8 -63 12v129c7 -1 23 -7 51 -7c43 0 77 24 103 73l-245 517h170l151 -340l142 340h156l-237 -538c-50 -111 -103 -186 -228 -186z" />
    <glyph glyph-name="uni0424" unicode="&#x424;" horiz-adv-x="894" 
d="M527 641c192 -5 330 -96 330 -275v-8c0 -182 -149 -271 -330 -276v-92h-161v92c-192 5 -330 96 -330 275v7c0 181 149 272 330 277v90h161v-90zM366 525c-91 -5 -168 -45 -168 -161v-7c0 -112 73 -155 168 -158v326zM527 198c92 3 169 45 169 160v8
c0 114 -73 153 -169 158v-326z" />
    <glyph glyph-name="uni0425" unicode="&#x425;" horiz-adv-x="719" 
d="M263 367l-210 348h183l136 -238l135 238h166l-204 -343l226 -372h-184l-155 266l-154 -266h-166z" />
    <glyph glyph-name="uni0426" unicode="&#x426;" horiz-adv-x="771" 
d="M623 -130l-5 130h-541v715h162v-587h277v587h162v-587h86v-258h-141z" />
    <glyph glyph-name="uni0427" unicode="&#x427;" horiz-adv-x="716" 
d="M477 0v300c-12 -9 -27 -18 -44 -25c-29 -13 -73 -25 -130 -25c-165 0 -250 95 -250 282v183h162v-186c0 -107 40 -151 123 -151c48 0 82 12 105 25c13 7 25 16 34 25v287h162v-715h-162z" />
    <glyph glyph-name="uni0428" unicode="&#x428;" horiz-adv-x="1044" 
d="M77 715h162v-587h202v587h163v-587h202v587h162v-715h-891v715z" />
    <glyph glyph-name="uni0429" unicode="&#x429;" horiz-adv-x="1061" 
d="M913 -130l-5 130h-831v715h162v-587h202v587h163v-587h202v587h162v-587h86v-258h-141z" />
    <glyph glyph-name="uni042A" unicode="&#x42a;" horiz-adv-x="749" 
d="M200 588h-176v127h337v-259h91c163 0 268 -72 268 -222v-4c0 -152 -98 -230 -274 -230h-246v588zM444 123c76 0 120 31 120 107v4c0 72 -40 108 -121 108h-82v-219h83z" />
    <glyph glyph-name="uni042B" unicode="&#x42b;" horiz-adv-x="892" 
d="M816 0h-162v715h162v-715zM77 715h161v-259h83c163 0 268 -72 268 -222v-4c0 -152 -98 -230 -274 -230h-238v715zM312 123c76 0 121 31 121 107v4c0 72 -40 108 -121 108h-74v-219h74z" />
    <glyph glyph-name="uni042C" unicode="&#x42c;" horiz-adv-x="626" 
d="M77 715h161v-259h91c163 0 268 -72 268 -222v-4c0 -152 -98 -230 -273 -230h-247v715zM321 123c76 0 120 31 120 107v4c0 72 -40 108 -121 108h-82v-219h83z" />
    <glyph glyph-name="uni042D" unicode="&#x42d;" horiz-adv-x="748" 
d="M349 -11c-173 0 -301 89 -320 261h161c15 -89 70 -131 161 -131c101 0 167 62 182 182h-276v122h277c-15 113 -79 174 -175 174c-92 0 -144 -44 -157 -132h-164c23 179 142 261 323 261c202 0 347 -142 347 -354v-8c0 -226 -130 -375 -359 -375z" />
    <glyph glyph-name="uni042E" unicode="&#x42e;" horiz-adv-x="1070" 
d="M674 -11c-198 0 -328 126 -352 306h-83v-295h-162v715h162v-292h85c27 179 164 302 351 302c208 0 355 -146 355 -360v-8c0 -213 -141 -368 -356 -368zM676 118c116 0 185 93 185 237v8c0 139 -69 234 -186 234c-120 0 -187 -90 -187 -235v-8c0 -146 77 -236 188 -236z
" />
    <glyph glyph-name="uni042F" unicode="&#x42f;" horiz-adv-x="675" 
d="M350 592c-77 0 -122 -26 -122 -101v-4c0 -70 41 -105 123 -105h86v210h-87zM192 0h-173l199 302c-87 20 -148 81 -148 190v4c0 151 112 219 276 219h252v-715h-161v272h-73z" />
    <glyph glyph-name="uni0430" unicode="&#x430;" horiz-adv-x="564" 
d="M211 -11c-48 0 -91 12 -123 37s-52 64 -52 119c0 61 28 103 76 130s116 38 196 38h59v21c0 63 -18 96 -85 96c-57 0 -82 -29 -89 -74h-137c4 61 32 107 73 136s98 43 162 43s118 -13 158 -44c39 -31 61 -79 61 -150v-341h-141v63c-31 -43 -75 -74 -158 -74zM254 90
c64 0 113 34 113 93v44h-56c-84 0 -133 -18 -133 -74c0 -39 23 -63 76 -63z" />
    <glyph glyph-name="uni0431" unicode="&#x431;" horiz-adv-x="618" 
d="M310 -11c-168 0 -275 97 -275 327v33c0 248 96 395 311 406l39 1c77 4 124 8 152 19v-110c-29 -13 -65 -23 -156 -28l-33 -1c-133 -8 -190 -89 -203 -219h6c35 61 90 105 193 105c144 0 242 -111 242 -260v-7c0 -164 -119 -266 -276 -266zM311 99c81 0 128 56 128 155v6
c0 96 -43 152 -124 152c-84 0 -132 -57 -132 -154v-5c0 -96 45 -154 128 -154z" />
    <glyph glyph-name="uni0432" unicode="&#x432;" horiz-adv-x="544" 
d="M65 523h228c117 0 196 -38 196 -129v-2c0 -60 -32 -101 -100 -117c76 -13 121 -50 121 -119v-1c0 -99 -68 -155 -201 -155h-244v523zM208 432v-119h57c51 0 76 21 76 62v1c0 44 -29 56 -82 56h-51zM208 223v-133h69c57 0 86 19 86 66v1c0 44 -26 66 -79 66h-76z" />
    <glyph glyph-name="uni0433" unicode="&#x433;" horiz-adv-x="445" 
d="M208 420v-420h-143v523h359v-103h-216z" />
    <glyph glyph-name="uni0434" unicode="&#x434;" horiz-adv-x="607" 
d="M227 234c-5 -56 -13 -98 -29 -131h179v318h-140c-1 -61 -3 -131 -10 -187zM137 -127h-125v230h30c35 15 49 62 58 142c8 68 12 166 12 278h407v-420h74v-230h-125l-2 127h-327z" />
    <glyph glyph-name="uni0435" unicode="&#x435;" horiz-adv-x="587" 
d="M311 -11c-79 0 -147 24 -195 71c-49 45 -78 111 -78 195v8c0 83 29 150 78 198c48 47 115 74 191 74c68 0 131 -20 178 -63s77 -110 77 -203v-40h-377c4 -88 50 -137 130 -137c68 0 100 29 109 73h137c-17 -113 -106 -176 -250 -176zM421 318c-5 80 -45 117 -114 117
c-65 0 -109 -42 -120 -117h234z" />
    <glyph glyph-name="uni0436" unicode="&#x436;" horiz-adv-x="770" 
d="M313 250l-149 -250h-155l178 281l-165 242h149l142 -227v227h142v-228l143 228h148l-165 -239l180 -284h-158l-148 252v-252h-142v250z" />
    <glyph glyph-name="uni0437" unicode="&#x437;" horiz-adv-x="524" 
d="M473 392c0 -60 -32 -102 -100 -117c76 -12 118 -50 118 -117v-3c0 -95 -89 -166 -224 -166c-148 0 -224 72 -239 189h129c13 -55 44 -83 108 -83c52 0 78 23 78 66v3c0 39 -26 59 -77 59h-68v90h59c45 0 68 19 68 56v2c0 31 -18 53 -69 53c-47 0 -76 -23 -88 -68h-129
c13 125 113 179 221 179c123 0 213 -53 213 -141v-2z" />
    <glyph glyph-name="uni0438" unicode="&#x438;" horiz-adv-x="615" 
d="M65 0v523h143v-349l202 349h143v-523h-143v349l-202 -349h-143z" />
    <glyph glyph-name="uni0439" unicode="&#x439;" horiz-adv-x="615" 
d="M305 599c-92 0 -146 58 -153 146h104c3 -32 16 -60 49 -60c35 0 50 27 54 60h102c-7 -88 -65 -146 -156 -146zM65 0v523h143v-349l202 349h143v-523h-143v349l-202 -349h-143z" />
    <glyph glyph-name="uni043A" unicode="&#x43a;" horiz-adv-x="555" 
d="M208 247v-247h-144v523h144v-224l169 224h154l-191 -239l206 -284h-164z" />
    <glyph glyph-name="uni043B" unicode="&#x43b;" horiz-adv-x="585" 
d="M232 215c-16 -144 -53 -225 -159 -225c-19 0 -30 1 -38 4c-5 1 -9 3 -12 4v115c1 -1 2 -1 5 -2c4 -1 9 -2 17 -2c39 0 55 48 62 135c3 35 5 104 8 165c1 36 2 74 2 114h403v-523h-143v420h-135c-1 -68 -3 -144 -10 -205z" />
    <glyph glyph-name="uni043C" unicode="&#x43c;" horiz-adv-x="741" 
d="M173 374v-374h-109v523h191l119 -322l122 322h178v-523h-142v374l-144 -374h-73z" />
    <glyph glyph-name="uni043D" unicode="&#x43d;" horiz-adv-x="610" 
d="M402 215h-194v-215h-143v523h143v-205h194v205h143v-523h-143v215z" />
    <glyph glyph-name="uni043E" unicode="&#x43e;" horiz-adv-x="615" 
d="M314 99c81 0 128 59 128 159v7c0 100 -47 160 -128 160c-80 0 -128 -58 -128 -158v-8c0 -100 45 -160 128 -160zM313 -11c-79 0 -147 26 -196 73c-49 45 -79 113 -79 194v8c0 81 30 150 79 197s118 74 197 74s148 -26 197 -73c48 -47 78 -114 78 -195v-8
c0 -83 -30 -150 -79 -197s-118 -73 -197 -73z" />
    <glyph glyph-name="uni043F" unicode="&#x43f;" horiz-adv-x="600" 
d="M392 420h-184v-420h-143v523h470v-523h-143v420z" />
    <glyph glyph-name="uni0440" unicode="&#x440;" horiz-adv-x="637" 
d="M70 523h145v-82c29 51 90 94 167 94c64 0 121 -24 162 -69s66 -112 66 -199v-8c0 -87 -25 -154 -65 -199c-41 -47 -98 -71 -163 -71c-81 0 -140 40 -167 91v-258h-145v701zM339 102c80 0 124 53 124 156v8c0 107 -52 158 -125 158c-76 0 -128 -53 -128 -158v-8
c0 -105 49 -156 129 -156z" />
    <glyph glyph-name="uni0441" unicode="&#x441;" horiz-adv-x="578" 
d="M307 -11c-76 0 -144 24 -192 69s-77 112 -77 197v8c0 84 30 152 79 200c49 47 116 72 191 72c60 0 119 -13 164 -45c44 -32 75 -83 82 -158h-137c-9 60 -45 89 -106 89c-76 0 -125 -56 -125 -156v-8c0 -105 47 -159 128 -159c59 0 105 33 112 101h131
c-4 -63 -28 -115 -71 -151c-43 -37 -103 -59 -179 -59z" />
    <glyph glyph-name="uni0442" unicode="&#x442;" horiz-adv-x="488" 
d="M471 420h-155v-420h-144v420h-155v103h454v-103z" />
    <glyph glyph-name="uni0443" unicode="&#x443;" horiz-adv-x="567" 
d="M228 53l-208 470h156l127 -314l117 314h139l-283 -701h-140z" />
    <glyph glyph-name="uni0444" unicode="&#x444;" horiz-adv-x="779" 
d="M461 534c158 -8 280 -96 280 -265v-8c0 -168 -123 -266 -280 -271v-168h-142v168c-158 8 -280 97 -280 266v8c0 167 122 265 280 270v226h142v-226zM319 430c-83 -5 -134 -64 -134 -163v-7c0 -101 50 -159 134 -166v336zM461 94c81 7 133 66 133 163v8
c0 100 -49 158 -133 165v-336z" />
    <glyph glyph-name="uni0445" unicode="&#x445;" horiz-adv-x="574" 
d="M202 267l-167 256h166l98 -157l96 157h150l-167 -245l184 -278h-167l-110 176l-113 -176h-149z" />
    <glyph glyph-name="uni0446" unicode="&#x446;" horiz-adv-x="622" 
d="M488 -127l-6 127h-417v523h143v-420h184v420h143v-420h74v-230h-121z" />
    <glyph glyph-name="uni0447" unicode="&#x447;" horiz-adv-x="577" 
d="M368 0v225c-10 -12 -56 -59 -154 -59c-99 0 -169 60 -169 196v161h144v-141c0 -72 22 -104 82 -104c59 0 87 31 97 44v201h144v-523h-144z" />
    <glyph glyph-name="uni0448" unicode="&#x448;" horiz-adv-x="833" 
d="M65 523h143v-420h137v420h143v-420h137v420h143v-523h-703v523z" />
    <glyph glyph-name="uni0449" unicode="&#x449;" horiz-adv-x="856" 
d="M721 -127l-6 127h-650v523h143v-420h137v420h143v-420h137v420h143v-420h74v-230h-121z" />
    <glyph glyph-name="uni044A" unicode="&#x44a;" horiz-adv-x="613" 
d="M146 420h-129v103h272v-166h95c123 0 202 -62 202 -178v-3c0 -115 -74 -176 -206 -176h-234v420zM352 102c60 0 88 20 88 75v3c0 51 -27 76 -88 76h-63v-154h63z" />
    <glyph glyph-name="uni044B" unicode="&#x44b;" horiz-adv-x="754" 
d="M546 523h143v-523h-143v523zM65 523h143v-166h88c121 0 202 -62 202 -178v-3c0 -115 -75 -176 -207 -176h-226v523zM265 102c59 0 87 20 87 75v3c0 51 -27 76 -87 76h-57v-154h57z" />
    <glyph glyph-name="uni044C" unicode="&#x44c;" horiz-adv-x="532" 
d="M65 523h143v-166h95c123 0 202 -64 202 -180v-3c0 -116 -75 -174 -206 -174h-234v523zM271 101c59 0 88 25 88 74v3c0 52 -29 78 -88 78h-63v-155h63z" />
    <glyph glyph-name="uni044D" unicode="&#x44d;" horiz-adv-x="578" 
d="M281 -11c-151 0 -235 66 -252 199h132c15 -65 53 -90 113 -90c64 0 109 43 121 119h-196v95h196c-11 73 -54 110 -121 110c-60 0 -97 -33 -109 -89h-135c11 134 121 202 247 202c154 0 269 -97 269 -267v-8c0 -170 -117 -271 -265 -271z" />
    <glyph glyph-name="uni044E" unicode="&#x44e;" horiz-adv-x="822" 
d="M524 -10c-136 0 -233 78 -256 209c-1 7 -2 12 -2 16h-58v-215h-143v523h143v-205h59c21 132 123 218 258 218c154 0 265 -105 265 -268v-8c0 -165 -112 -270 -266 -270zM525 99c76 0 118 60 118 159v8c0 100 -42 159 -118 159c-75 0 -118 -57 -118 -157v-8
c0 -101 42 -161 118 -161z" />
    <glyph glyph-name="uni044F" unicode="&#x44f;" horiz-adv-x="541" 
d="M282 421c-59 0 -88 -23 -88 -69v-3c0 -48 27 -70 88 -70h59v142h-59zM170 0h-157l134 213c-59 21 -99 62 -99 138v3c0 107 74 169 206 169h231v-523h-144v183h-61z" />
    <glyph glyph-name="uni0451" unicode="&#x451;" horiz-adv-x="587" 
d="M311 -11c-79 0 -147 24 -195 71c-49 45 -78 111 -78 195v8c0 83 29 150 78 198c48 47 115 74 191 74c68 0 131 -20 178 -63s77 -110 77 -203v-40h-377c4 -88 50 -137 130 -137c68 0 100 29 109 73h137c-17 -113 -106 -176 -250 -176zM421 318c-5 80 -45 117 -114 117
c-65 0 -109 -42 -120 -117h234zM202 600c-41 0 -74 32 -74 72s33 72 74 72s74 -32 74 -72s-33 -72 -74 -72zM406 600c-41 0 -74 32 -74 72s33 72 74 72s74 -32 74 -72s-33 -72 -74 -72z" />
    <glyph glyph-name="uni0452" unicode="&#x452;" horiz-adv-x="615" 
d="M411 312c0 72 -29 105 -93 105c-63 0 -110 -38 -110 -115v-302h-144v597h-63v83h63v80h144v-80h164v-83h-164v-158c27 53 83 96 171 96c103 0 176 -61 176 -202v-311c0 -141 -50 -211 -213 -211v108c51 4 69 25 69 84v309z" />
    <glyph glyph-name="uni0453" unicode="&#x453;" horiz-adv-x="445" 
d="M208 420v-420h-143v523h359v-103h-216zM254 753h152l-104 -159h-105z" />
    <glyph glyph-name="uni0454" unicode="&#x454;" horiz-adv-x="578" 
d="M551 193c-16 -125 -96 -204 -251 -204c-152 0 -268 95 -268 266v8c0 169 121 272 270 272c120 0 232 -56 245 -197h-137c-11 56 -46 84 -105 84c-63 0 -108 -39 -120 -110h194v-94h-196c11 -80 54 -120 125 -120c57 0 100 30 112 95h131z" />
    <glyph glyph-name="uni0455" unicode="&#x455;" horiz-adv-x="502" 
d="M260 -11c-141 0 -223 62 -228 175h135c7 -47 28 -74 92 -74c56 0 82 21 82 57s-30 51 -106 62c-69 11 -117 26 -148 51c-32 25 -45 61 -45 112c0 55 25 95 64 123c37 27 90 40 143 40c57 0 108 -11 147 -36c37 -25 62 -66 69 -126h-133c-8 43 -31 63 -82 63
c-47 0 -74 -22 -74 -54c0 -33 25 -46 101 -57c65 -9 116 -23 151 -47c33 -25 52 -61 52 -117c0 -113 -81 -172 -220 -172z" />
    <glyph glyph-name="uni0456" unicode="&#x456;" horiz-adv-x="280" 
d="M145 594c-47 0 -82 34 -82 79s35 79 82 79s83 -34 83 -79s-36 -79 -83 -79zM74 523h144v-523h-144v523z" />
    <glyph glyph-name="uni0457" unicode="&#x457;" horiz-adv-x="280" 
d="M46 600c-40 0 -73 32 -73 72s33 72 73 72c41 0 74 -32 74 -72s-33 -72 -74 -72zM245 600c-40 0 -73 32 -73 72s33 72 73 72c41 0 74 -32 74 -72s-33 -72 -74 -72zM74 523h144v-523h-144v523z" />
    <glyph glyph-name="uni0458" unicode="&#x458;" horiz-adv-x="280" 
d="M5 -79c51 4 69 26 69 69v533h144v-532c0 -55 -13 -98 -45 -129c-33 -31 -87 -48 -168 -49v108zM145 594c-47 0 -82 34 -82 79s35 79 82 79s83 -34 83 -79s-36 -79 -83 -79z" />
    <glyph glyph-name="uni0459" unicode="&#x459;" horiz-adv-x="822" 
d="M366 420h-124c-1 -63 -4 -134 -9 -193c-13 -152 -52 -237 -160 -237c-19 0 -30 1 -38 4c-5 1 -9 3 -12 4v115c1 -1 2 -1 5 -2c4 -1 9 -2 17 -2c40 0 56 50 63 145c7 67 8 161 8 269h393v-166h85c123 0 202 -62 202 -178v-3c0 -115 -74 -176 -206 -176h-224v420zM562 102
c59 0 87 20 87 75v3c0 51 -26 76 -87 76h-53v-154h53z" />
    <glyph glyph-name="uni045A" unicode="&#x45a;" horiz-adv-x="848" 
d="M588 102c59 0 87 20 87 75v3c0 51 -27 76 -87 76h-53v-154h53zM391 215h-183v-215h-143v523h143v-205h183v205h144v-166h84c123 0 202 -62 202 -178v-3c0 -115 -74 -176 -206 -176h-224v215z" />
    <glyph glyph-name="uni045B" unicode="&#x45b;" horiz-adv-x="615" 
d="M1 680h63v80h145v-80h163v-83h-163v-157c27 52 82 95 170 95c103 0 176 -62 176 -202v-333h-145v312c0 72 -28 105 -92 105c-63 0 -109 -38 -109 -115v-302h-145v597h-63v83z" />
    <glyph glyph-name="uni045C" unicode="&#x45c;" horiz-adv-x="555" 
d="M297 753h152l-104 -159h-105zM208 247v-247h-144v523h144v-224l169 224h154l-191 -239l206 -284h-164z" />
    <glyph glyph-name="uni045D" unicode="&#x45d;" horiz-adv-x="618" 
d="M65 0v523h143v-349l202 349h143v-523h-143v349l-202 -349h-143zM170 753h152l57 -159h-105z" />
    <glyph glyph-name="uni045E" unicode="&#x45e;" horiz-adv-x="567" 
d="M294 599c-92 0 -148 58 -153 146h103c3 -32 17 -60 50 -60s50 27 54 60h101c-7 -88 -64 -146 -155 -146zM228 53l-208 470h156l127 -314l117 314h139l-283 -701h-140z" />
    <glyph glyph-name="uni045F" unicode="&#x45f;" horiz-adv-x="600" 
d="M65 0v523h143v-420h184v420h143v-523h-173l-2 -127h-119l-3 127h-173z" />
    <glyph glyph-name="uni0490" unicode="&#x490;" horiz-adv-x="559" 
d="M239 587v-587h-162v715h305l6 134h140v-262h-289z" />
    <glyph glyph-name="uni0491" unicode="&#x491;" horiz-adv-x="438" 
d="M208 420v-420h-143v523h219l5 134h122v-237h-203z" />
    <glyph glyph-name="Wgrave" unicode="&#x1e80;" horiz-adv-x="971" 
d="M27 715h164l112 -494l122 494h138l127 -497l116 497h150l-174 -715h-165l-129 494l-131 -494h-156zM348 902h156l52 -139h-109z" />
    <glyph glyph-name="wgrave" unicode="&#x1e81;" horiz-adv-x="826" 
d="M22 523h152l93 -352l101 352h119l92 -352l99 352h139l-165 -523h-142l-89 328l-96 -328h-144zM276 753h152l57 -159h-105z" />
    <glyph glyph-name="Wacute" unicode="&#x1e82;" horiz-adv-x="971" 
d="M27 715h164l112 -494l122 494h138l127 -497l116 497h150l-174 -715h-165l-129 494l-131 -494h-156zM492 902h157l-101 -139h-109z" />
    <glyph glyph-name="wacute" unicode="&#x1e83;" horiz-adv-x="826" 
d="M22 523h152l93 -352l101 352h119l92 -352l99 352h139l-165 -523h-142l-89 328l-96 -328h-144zM431 753h152l-104 -159h-105z" />
    <glyph glyph-name="Wdieresis" unicode="&#x1e84;" horiz-adv-x="971" 
d="M27 715h164l112 -494l122 494h138l127 -497l116 497h150l-174 -715h-165l-129 494l-131 -494h-156zM386 769c-41 0 -74 33 -74 73s33 72 74 72c40 0 74 -32 74 -72s-34 -73 -74 -73zM601 769c-40 0 -73 33 -73 73s33 72 73 72c41 0 74 -32 74 -72s-33 -73 -74 -73z" />
    <glyph glyph-name="wdieresis" unicode="&#x1e85;" horiz-adv-x="826" 
d="M22 523h152l93 -352l101 352h119l92 -352l99 352h139l-165 -523h-142l-89 328l-96 -328h-144zM324 600c-41 0 -74 32 -74 72s33 72 74 72s74 -32 74 -72s-33 -72 -74 -72zM528 600c-41 0 -74 32 -74 72s33 72 74 72s74 -32 74 -72s-33 -72 -74 -72z" />
    <glyph glyph-name="Ygrave" unicode="&#x1ef2;" horiz-adv-x="648" 
d="M255 308l-236 407h178l145 -274l142 274h157l-223 -407v-308h-163v308zM193 902h156l52 -139h-109z" />
    <glyph glyph-name="ygrave" unicode="&#x1ef3;" horiz-adv-x="567" 
d="M228 53l-208 470h156l127 -314l117 314h139l-283 -701h-140zM146 753h152l57 -159h-105z" />
    <glyph glyph-name="uni2009" unicode="&#x2009;" horiz-adv-x="95" 
 />
    <glyph glyph-name="endash" unicode="&#x2013;" horiz-adv-x="547" 
d="M51 332h445v-92h-445v92z" />
    <glyph glyph-name="emdash" unicode="&#x2014;" horiz-adv-x="936" 
d="M51 332h834v-92h-834v92z" />
    <glyph glyph-name="quoteleft" unicode="&#x2018;" horiz-adv-x="302" 
d="M40 497l129 230l83 -34l-83 -243z" />
    <glyph glyph-name="quoteright" unicode="&#x2019;" horiz-adv-x="302" 
d="M50 484l83 244l129 -47l-130 -231z" />
    <glyph glyph-name="quotesinglbase" unicode="&#x201a;" horiz-adv-x="301" 
d="M48 -75l83 244l129 -47l-130 -231z" />
    <glyph glyph-name="quotedblleft" unicode="&#x201c;" horiz-adv-x="510" 
d="M40 497l129 230l83 -34l-83 -243zM249 497l129 230l83 -34l-83 -243z" />
    <glyph glyph-name="quotedblright" unicode="&#x201d;" horiz-adv-x="510" 
d="M50 484l83 243l129 -46l-129 -231zM259 484l83 243l129 -46l-130 -231z" />
    <glyph glyph-name="quotedblbase" unicode="&#x201e;" horiz-adv-x="510" 
d="M48 -75l83 243l129 -46l-129 -231zM257 -75l83 243l129 -46l-130 -231z" />
    <glyph glyph-name="dagger" unicode="&#x2020;" horiz-adv-x="406" 
d="M143 489h-110v105h110v121h120v-121h109v-105h-109v-276h-120v276z" />
    <glyph glyph-name="daggerdbl" unicode="&#x2021;" horiz-adv-x="406" 
d="M143 507h-110v97h110v111h120v-111h109v-97h-109v-86h109v-97h-109v-111h-120v111h-110v97h110v86z" />
    <glyph glyph-name="bullet" unicode="&#x2022;" horiz-adv-x="369" 
d="M185 169c-39 0 -73 15 -97 40c-24 24 -39 58 -39 95s15 71 39 96c24 24 58 39 97 39s73 -15 97 -39c24 -25 38 -59 38 -96s-14 -71 -38 -95c-24 -25 -58 -40 -97 -40z" />
    <glyph glyph-name="ellipsis" unicode="&#x2026;" horiz-adv-x="873" 
d="M152 -9c-51 0 -89 39 -89 88c0 48 38 87 89 87s90 -39 90 -87c0 -24 -10 -46 -26 -62s-39 -26 -64 -26zM437 -9c-51 0 -89 39 -89 88c0 48 38 87 89 87s90 -39 90 -87c0 -24 -10 -46 -26 -62s-39 -26 -64 -26zM721 -9c-51 0 -89 39 -89 88c0 48 38 87 89 87
s90 -39 90 -87c0 -24 -10 -46 -26 -62s-39 -26 -64 -26z" />
    <glyph glyph-name="perthousand" unicode="&#x2030;" horiz-adv-x="1199" 
d="M212 467c41 0 66 32 66 84c0 51 -25 83 -66 83s-67 -31 -67 -83c0 -53 26 -84 67 -84zM211 378c-52 0 -96 18 -127 49c-32 31 -50 74 -50 123s20 92 52 123s77 49 126 49s94 -18 126 -47c32 -31 51 -73 51 -122c0 -51 -19 -94 -50 -125c-32 -31 -76 -50 -128 -50z
M600 715h90l-475 -715h-90zM597 79c43 0 66 32 66 84c0 51 -23 83 -66 83c-41 0 -67 -31 -67 -83c0 -55 26 -84 67 -84zM597 -11c-52 0 -97 18 -128 50c-31 31 -49 74 -49 123s19 92 51 123s77 49 126 49s94 -18 126 -47c32 -31 51 -73 51 -122c0 -51 -18 -94 -49 -125
c-32 -32 -76 -51 -128 -51zM988 79c43 0 67 32 67 84c0 51 -24 83 -67 83c-41 0 -67 -31 -67 -83c0 -55 26 -84 67 -84zM988 -11c-52 0 -97 18 -128 50c-31 31 -49 74 -49 123s19 92 51 123s77 49 126 49s94 -18 126 -47c32 -31 51 -73 51 -122c0 -51 -18 -94 -49 -125
c-32 -32 -76 -51 -128 -51z" />
    <glyph glyph-name="uni2032" unicode="&#x2032;" horiz-adv-x="248" 
d="M67 715h140l-60 -264h-102z" />
    <glyph glyph-name="uni2033" unicode="&#x2033;" horiz-adv-x="442" 
d="M67 715h140l-60 -264h-102zM261 715h140l-60 -264h-102z" />
    <glyph glyph-name="guilsinglleft" unicode="&#x2039;" horiz-adv-x="324" 
d="M47 261l127 186h107l-122 -186l122 -186h-107z" />
    <glyph glyph-name="guilsinglright" unicode="&#x203a;" horiz-adv-x="324" 
d="M165 261l-121 186h107l126 -186l-126 -186h-107z" />
    <glyph glyph-name="fraction" unicode="&#x2044;" horiz-adv-x="160" 
d="M308 715h84l-540 -715h-84z" />
    <glyph glyph-name="Euro" unicode="&#x20ac;" horiz-adv-x="715" 
d="M32 452h67c11 79 42 147 93 196c51 48 119 77 202 77c161 0 258 -85 274 -244h-151c-11 79 -53 121 -124 121c-80 0 -124 -58 -137 -150h186l-12 -66h-177v-62h166l-12 -66h-151c13 -92 55 -143 138 -143c76 0 119 45 131 134h149c-19 -165 -114 -260 -283 -260
c-85 0 -154 28 -202 76c-49 47 -81 114 -90 193h-67v66h63v62h-63v66z" />
    <glyph glyph-name="uni20B4" unicode="&#x20b4;" horiz-adv-x="643" 
d="M318 -11c-163 0 -261 74 -261 202c0 30 5 56 15 78h-45v66h100c31 24 74 43 127 62h-227v66h378c19 19 23 40 23 71c0 51 -34 72 -94 72c-67 0 -99 -28 -110 -91h-149c13 141 102 210 259 210c150 0 248 -69 248 -186c0 -29 -4 -55 -13 -76h47v-66h-93
c-27 -23 -65 -44 -113 -62h206v-66h-367c-27 -21 -36 -44 -36 -79c0 -56 41 -83 105 -83c94 0 124 52 129 113h155c-8 -141 -99 -231 -284 -231z" />
    <glyph glyph-name="uni20B8" unicode="&#x20b8;" horiz-adv-x="585" 
d="M24 649v66h537v-66h-537zM211 459h-187v127h537v-127h-187v-459h-163v459z" />
    <glyph glyph-name="uni20BD" unicode="&#x20bd;" horiz-adv-x="671" 
d="M364 373c81 0 122 36 122 109v4c0 76 -45 106 -121 106h-82v-219h81zM283 135v-135h-162v135h-97v66h97v62h-97v66h97v386h247c176 0 274 -76 274 -228v-4c0 -151 -105 -224 -268 -224h-91v-58h219v-66h-219z" />
    <glyph glyph-name="uni2116" unicode="&#x2116;" horiz-adv-x="1149" 
d="M921 332c-114 0 -201 72 -201 190v6c0 120 87 195 202 195c112 0 200 -73 200 -192v-5c0 -120 -87 -194 -201 -194zM922 424c51 0 78 37 78 101v5c0 65 -27 102 -78 102s-79 -36 -79 -100v-5c0 -69 26 -103 79 -103zM77 715h188l238 -464v464h144v-715h-162l-264 501
v-501h-144v715zM734 266h374v-85h-374v85z" />
    <glyph glyph-name="trademark" unicode="&#x2122;" horiz-adv-x="756" 
d="M348 715h109l70 -183l71 183h111v-322h-89v208l-84 -208h-28l-83 208v-208h-77v322zM125 645h-88v70h265v-70h-88v-252h-89v252z" />
    <glyph glyph-name="Omega" unicode="&#x2126;" horiz-adv-x="822" 
d="M209 357c0 -128 54 -214 151 -279v-78h-316v121h121c-65 43 -123 138 -123 247v6c0 188 143 351 369 351c228 0 369 -155 369 -348v-7c0 -120 -62 -206 -123 -249h121v-121h-316v78c92 57 151 143 151 279v8c0 131 -67 233 -202 233s-202 -99 -202 -233v-8z" />
    <glyph glyph-name="onethird" unicode="&#x2153;" horiz-adv-x="792" 
d="M112 610l-82 -49v89l97 65h95v-363h-110v258zM599 715h84l-540 -715h-84zM605 -6c-53 0 -91 14 -116 35c-25 23 -38 54 -39 91h96c3 -28 18 -49 53 -49c32 0 48 16 48 41c0 28 -17 41 -50 41h-29v64h28c33 0 49 13 49 40c0 21 -13 36 -40 36s-45 -17 -49 -45h-96
c5 71 55 121 147 121c89 0 141 -39 141 -100c0 -41 -24 -67 -64 -78c43 -8 73 -38 73 -82c0 -69 -52 -115 -152 -115z" />
    <glyph glyph-name="twothirds" unicode="&#x2154;" horiz-adv-x="836" 
d="M658 715h84l-540 -715h-84zM15 366l128 134c39 40 63 69 63 100c0 24 -13 39 -38 39c-27 0 -42 -17 -47 -57h-99c4 91 60 138 151 138c93 0 139 -48 139 -113c0 -51 -29 -88 -72 -129l-49 -48h124v-78h-300v14zM639 -6c-53 0 -91 14 -116 35c-25 23 -38 54 -39 91h96
c3 -28 18 -49 53 -49c32 0 48 16 48 41c0 28 -17 41 -50 41h-29v64h28c33 0 49 13 49 40c0 21 -13 36 -40 36s-45 -17 -49 -45h-96c5 71 55 121 147 121c89 0 141 -39 141 -100c0 -41 -24 -67 -64 -78c43 -8 73 -38 73 -82c0 -69 -52 -115 -152 -115z" />
    <glyph glyph-name="oneeighth" unicode="&#x215b;" horiz-adv-x="785" 
d="M112 610l-82 -49v89l97 65h95v-363h-110v258zM594 715h84l-540 -715h-84zM597 -6c-96 0 -156 37 -156 108c0 43 23 75 67 90c-32 13 -52 36 -52 75c0 32 15 58 42 75c25 17 61 27 100 27c80 0 141 -35 141 -102c0 -39 -20 -61 -52 -74c44 -15 66 -47 66 -87
c0 -72 -60 -112 -156 -112zM597 69c28 0 49 17 49 46c0 27 -20 45 -49 45c-27 0 -49 -17 -49 -46s22 -45 49 -45zM598 219c24 0 42 15 42 39s-19 39 -42 39s-43 -15 -43 -39s20 -39 43 -39z" />
    <glyph glyph-name="threeeighths" unicode="&#x215c;" horiz-adv-x="822" 
d="M180 345c-53 0 -91 14 -116 35c-25 23 -38 54 -39 91h96c3 -28 18 -49 53 -49c32 0 48 16 48 41c0 28 -17 41 -50 41h-29v64h28c33 0 49 13 49 40c0 21 -13 36 -40 36s-45 -17 -49 -45h-96c5 71 55 121 147 121c89 0 141 -39 141 -100c0 -41 -24 -67 -64 -78
c43 -8 73 -38 73 -82c0 -69 -52 -115 -152 -115zM642 715h84l-540 -715h-84zM634 -6c-96 0 -156 37 -156 108c0 43 23 75 67 90c-32 13 -52 36 -52 75c0 32 15 58 42 75c25 17 61 27 100 27c80 0 141 -35 141 -102c0 -39 -20 -61 -52 -74c44 -15 66 -47 66 -87
c0 -72 -60 -112 -156 -112zM634 69c28 0 49 17 49 46c0 27 -20 45 -49 45c-27 0 -49 -17 -49 -46s22 -45 49 -45zM635 219c24 0 42 15 42 39s-19 39 -42 39s-43 -15 -43 -39s20 -39 43 -39z" />
    <glyph glyph-name="fiveeighths" unicode="&#x215d;" horiz-adv-x="810" 
d="M176 345c-100 0 -144 50 -147 118h99c4 -23 14 -38 46 -38c28 0 44 20 44 51s-17 49 -46 49c-27 0 -42 -11 -51 -26h-78l8 216h255v-78h-178l-3 -84c15 21 39 41 90 41c68 0 112 -41 112 -117c0 -81 -56 -132 -151 -132zM630 715h84l-540 -715h-84zM623 -6
c-96 0 -156 37 -156 108c0 43 23 75 67 90c-32 13 -52 36 -52 75c0 32 15 58 42 75c25 17 61 27 100 27c80 0 141 -35 141 -102c0 -39 -20 -61 -52 -74c44 -15 66 -47 66 -87c0 -72 -60 -112 -156 -112zM623 69c28 0 49 17 49 46c0 27 -20 45 -49 45c-27 0 -49 -17 -49 -46
s22 -45 49 -45zM624 219c24 0 42 15 42 39s-19 39 -42 39s-43 -15 -43 -39s20 -39 43 -39z" />
    <glyph glyph-name="seveneighths" unicode="&#x215e;" horiz-adv-x="781" 
d="M581 715h84l-540 -715h-84zM179 629h-152v86h288v-11l-132 -352h-109zM593 -6c-96 0 -156 37 -156 108c0 43 23 75 67 90c-32 13 -52 36 -52 75c0 32 15 58 42 75c25 17 61 27 100 27c80 0 141 -35 141 -102c0 -39 -20 -61 -52 -74c44 -15 66 -47 66 -87
c0 -72 -60 -112 -156 -112zM593 69c28 0 49 17 49 46c0 27 -20 45 -49 45c-27 0 -49 -17 -49 -46s22 -45 49 -45zM594 219c24 0 42 15 42 39s-19 39 -42 39s-43 -15 -43 -39s20 -39 43 -39z" />
    <glyph glyph-name="Delta" unicode="&#x2206;" horiz-adv-x="730" 
d="M28 20l226 695h225l223 -695v-20h-674v20zM209 127h297l-148 475z" />
    <glyph glyph-name="minus" unicode="&#x2212;" horiz-adv-x="565" 
d="M43 397h479v-113h-479v113z" />
    <glyph glyph-name="approxequal" unicode="&#x2248;" horiz-adv-x="561" 
d="M46 137c4 55 19 95 43 120c23 25 54 37 86 37c40 0 78 -10 114 -21s68 -21 93 -21c23 0 41 14 45 45h88c-3 -53 -18 -92 -41 -117c-24 -27 -54 -39 -86 -39c-40 0 -80 10 -115 21c-36 9 -68 20 -93 20s-41 -14 -46 -45h-88zM46 342c4 55 19 94 43 119c23 25 54 37 86 37
c40 0 78 -11 114 -20c36 -11 68 -21 93 -21c23 0 41 15 45 44h88c-3 -53 -18 -92 -41 -117c-24 -27 -54 -39 -86 -39c-40 0 -80 10 -115 21c-36 11 -68 21 -93 21s-41 -14 -46 -45h-88z" />
    <glyph glyph-name="notequal" unicode="&#x2260;" horiz-adv-x="542" 
d="M45 472h233l39 99h101l-39 -99h118v-104h-158l-33 -87h191v-103h-231l-38 -99h-101l38 99h-120v103h160l33 87h-193v104z" />
    <glyph glyph-name="lessequal" unicode="&#x2264;" horiz-adv-x="521" 
d="M52 352v29l408 218v-130l-200 -102l200 -101v-132zM52 100h408v-100h-408v100z" />
    <glyph glyph-name="greaterequal" unicode="&#x2265;" horiz-adv-x="521" 
d="M62 266l200 101l-200 102v130l408 -218v-29l-408 -218v132zM62 100h408v-100h-408v100z" />
    <glyph glyph-name="uni24C5" unicode="&#x24c5;" horiz-adv-x="855" 
d="M294 560h148c107 0 159 -47 159 -132v-3c0 -85 -57 -127 -154 -127h-45v-139h-108v401zM438 371c41 0 61 18 61 54v3c0 33 -20 50 -61 50h-36v-107h36zM427 32c87 0 167 33 226 90s95 140 95 237c0 96 -36 177 -93 234c-59 57 -138 90 -226 90c-89 0 -171 -34 -228 -91
c-59 -57 -94 -139 -94 -235c0 -97 37 -179 96 -235c57 -57 137 -90 224 -90zM427 -16c-104 0 -199 40 -267 108c-68 67 -110 160 -110 265c0 104 42 197 110 265s162 109 269 109s201 -41 269 -108c67 -68 108 -160 108 -264c0 -107 -42 -200 -110 -267
c-69 -67 -164 -108 -269 -108z" />
    <glyph glyph-name="zero.tab" unicode="&#xe44f;" 
d="M309 115c77 0 105 48 105 171v145c0 117 -31 170 -107 170s-109 -52 -109 -173v-143c0 -123 36 -170 111 -170zM306 -11c-160 0 -261 102 -261 295v143c0 97 26 172 73 223c45 49 112 75 189 75s143 -24 188 -72s72 -121 72 -220v-145c0 -196 -98 -299 -261 -299z" />
    <glyph glyph-name="one.tab" unicode="&#xe450;" 
d="M281 554l-184 -133v138l199 156h147v-715h-162v554z" />
    <glyph glyph-name="two.tab" unicode="&#xe451;" 
d="M36 26l244 276c69 81 110 140 110 207c0 60 -30 93 -86 93c-60 0 -93 -36 -102 -132h-148c4 77 25 141 68 186c41 44 103 69 187 69c157 0 241 -82 241 -209c0 -48 -16 -92 -41 -135s-61 -85 -102 -128l-127 -127h271v-126h-515v26z" />
    <glyph glyph-name="three.tab" unicode="&#xe452;" 
d="M304 -11c-175 0 -262 90 -269 238h143c5 -71 37 -118 120 -118c79 0 111 39 111 102c0 68 -33 103 -109 103h-56v108h54c71 0 104 34 104 94c0 51 -29 88 -93 88s-105 -39 -112 -107h-140c4 68 28 125 72 165s106 63 183 63c75 0 134 -21 175 -54c40 -35 62 -84 62 -140
c0 -80 -46 -131 -115 -155c80 -19 133 -76 133 -167c0 -136 -96 -220 -263 -220z" />
    <glyph glyph-name="four.tab" unicode="&#xe453;" 
d="M352 142h-319v54l278 519h187v-462h76v-111h-76v-142h-146v142zM354 253v337l-177 -337h177z" />
    <glyph glyph-name="five.tab" unicode="&#xe454;" 
d="M297 -11c-168 0 -246 85 -253 226h142c4 -32 12 -57 29 -73c16 -17 42 -27 81 -27c71 0 107 48 107 128c0 76 -42 122 -113 122c-64 0 -102 -23 -129 -58h-87l9 408h435v-123h-318l-3 -182c28 35 75 67 151 67c64 0 117 -22 154 -62c36 -41 57 -100 57 -172
c0 -79 -26 -142 -71 -186s-111 -68 -191 -68z" />
    <glyph glyph-name="six.tab" unicode="&#xe455;" 
d="M317 -11c-99 0 -166 34 -210 91s-63 138 -63 233v48c0 119 30 210 81 271s124 93 209 93c131 0 217 -62 228 -198h-139c-11 51 -34 80 -91 80c-85 0 -136 -74 -139 -230c29 49 81 87 161 87c63 0 117 -21 157 -60c39 -39 62 -96 62 -168c0 -75 -24 -136 -68 -179
s-108 -68 -188 -68zM315 109c68 0 114 50 114 123c0 76 -46 124 -115 124s-119 -46 -119 -117c0 -84 49 -130 120 -130z" />
    <glyph glyph-name="seven.tab" unicode="&#xe456;" 
d="M364 586h-308v129h509v-18l-265 -697h-163z" />
    <glyph glyph-name="eight.tab" unicode="&#xe457;" 
d="M306 -11c-73 0 -139 18 -186 54c-48 36 -77 88 -77 159c0 88 48 148 125 179c-61 27 -98 76 -98 148c0 61 28 110 72 145c44 33 103 51 166 51c64 0 123 -18 167 -51c43 -33 69 -83 69 -144c0 -72 -39 -120 -99 -148c80 -29 125 -91 125 -176c0 -71 -28 -124 -75 -161
c-48 -37 -113 -56 -189 -56zM307 110c65 0 114 39 114 108s-48 108 -113 108c-64 0 -116 -37 -116 -109c0 -35 13 -62 34 -79c21 -19 49 -28 81 -28zM309 426c56 0 97 34 97 93c0 56 -42 91 -98 91c-55 0 -98 -35 -98 -91c0 -59 44 -93 99 -93z" />
    <glyph glyph-name="nine.tab" unicode="&#xe458;" 
d="M288 -10c-147 0 -231 68 -244 203h140c11 -51 37 -85 102 -85c92 0 132 72 135 229c-31 -49 -83 -86 -163 -86c-63 0 -117 20 -156 59s-63 95 -63 168s24 136 68 180c44 43 108 68 188 68c183 0 273 -115 273 -322v-62c0 -228 -101 -352 -280 -352zM298 360
c69 0 119 44 119 116c0 83 -49 131 -120 131c-68 0 -114 -48 -114 -123c0 -76 46 -124 115 -124z" />
    <glyph glyph-name="cent.tab" unicode="&#xe459;" 
d="M286 -9c-69 7 -129 33 -172 78c-43 44 -68 107 -68 186v8c0 77 26 141 69 188c43 45 103 74 171 82v96h71v-96c55 -5 105 -23 144 -55c37 -33 64 -81 69 -146h-134c-7 52 -36 80 -79 91v-328c47 11 83 44 88 104h128c-7 -116 -87 -196 -216 -208v-126h-71v126zM190 257
c0 -91 36 -144 96 -160v325c-59 -16 -96 -70 -96 -157v-8z" />
    <glyph glyph-name="dollar.tab" unicode="&#xe45a;" 
d="M273 -10c-83 5 -142 33 -182 74c-40 40 -60 96 -64 159h142c3 -29 10 -56 26 -76c15 -21 39 -37 78 -42v194c-76 12 -133 33 -170 68c-37 33 -56 82 -56 147c0 57 22 108 62 145c39 36 96 60 164 65v89h70v-90c132 -12 209 -81 222 -209h-138c-9 51 -32 83 -84 94v-179
c72 -12 131 -30 171 -63s62 -81 62 -150c0 -59 -20 -113 -59 -153s-98 -68 -174 -73v-125h-70v125zM433 200c0 48 -19 71 -90 87v-182c57 11 90 46 90 95zM184 527c0 -23 5 -41 18 -54c12 -15 35 -24 71 -32v169c-60 -8 -89 -40 -89 -83z" />
    <glyph glyph-name="Euro.tab" unicode="&#xe45b;" 
d="M19 453h53c4 85 31 153 76 200c44 47 106 72 181 72c137 0 222 -73 233 -232h-135c-8 77 -37 113 -98 113c-71 0 -108 -50 -113 -153h173l-12 -67h-161v-61h150l-12 -66h-138c5 -103 39 -149 115 -149c64 0 96 36 105 123h133c-9 -165 -96 -244 -243 -244
c-151 0 -245 95 -254 270h-53v66h53v61h-53v67z" />
    <glyph glyph-name="a.alt" unicode="&#xe4c0;" horiz-adv-x="639" 
d="M262 -11c-60 0 -115 23 -156 68c-41 44 -67 110 -67 197v8c0 85 26 154 67 201s99 72 160 72c80 0 128 -36 159 -89v77h144v-523h-144v85c-28 -52 -88 -96 -163 -96zM304 102c71 0 125 50 125 157v8c0 107 -47 157 -120 157c-76 0 -122 -55 -122 -159v-8
c0 -104 49 -155 117 -155z" />
    <glyph glyph-name="t.alt" unicode="&#xe4d3;" horiz-adv-x="376" 
d="M100 420h-75v103h75v113h145v-113h102v-103h-102v-420h-145v420z" />
    <glyph glyph-name="f_i" unicode="&#xfb01;" horiz-adv-x="647" 
d="M94 420h-69v103h69v60c0 123 69 183 186 183c31 0 51 -2 71 -9v-109c-13 5 -28 8 -49 8c-45 0 -64 -29 -64 -69v-64h113v-103h-113v-420h-144v420zM510 594c-47 0 -82 34 -82 79s35 79 82 79s83 -34 83 -79s-36 -79 -83 -79zM439 523h144v-523h-144v523z" />
    <glyph glyph-name="f_l" unicode="&#xfb02;" horiz-adv-x="646" 
d="M94 420h-69v103h69v60c0 123 69 183 186 183c31 0 51 -2 71 -9v-109c-13 5 -28 8 -49 8c-45 0 -64 -29 -64 -69v-64h113v-103h-113v-420h-144v420zM439 760h144v-760h-144v760z" />
    <glyph glyph-name="five.oldtab" horiz-adv-x="600" 
d="M295 -105c-165 0 -245 86 -250 217h137c8 -61 35 -101 112 -101c71 0 109 50 109 130c0 77 -42 124 -113 124c-61 0 -101 -22 -129 -58h-83l8 412h425v-120h-312l-3 -190c27 35 74 65 150 65c124 0 205 -88 205 -228c0 -155 -100 -251 -256 -251z" />
    <glyph glyph-name="uni043F.locl" horiz-adv-x="600" 
d="M392 420h-184v-420h-143v523h470v-523h-143v420z" />
    <glyph glyph-name="adieresis.alt" horiz-adv-x="639" 
d="M262 -11c-60 0 -115 23 -156 68c-41 44 -67 110 -67 197v8c0 85 26 154 67 201s99 72 160 72c80 0 128 -36 159 -89v77h144v-523h-144v85c-28 -52 -88 -96 -163 -96zM304 102c71 0 125 50 125 157v8c0 107 -47 157 -120 157c-76 0 -122 -55 -122 -159v-8
c0 -104 49 -155 117 -155zM219 600c-41 0 -74 32 -74 72s33 72 74 72s74 -32 74 -72s-33 -72 -74 -72zM423 600c-41 0 -74 32 -74 72s33 72 74 72s74 -32 74 -72s-33 -72 -74 -72z" />
    <glyph glyph-name="acircumflex.alt" horiz-adv-x="639" 
d="M262 -11c-60 0 -115 23 -156 68c-41 44 -67 110 -67 197v8c0 85 26 154 67 201s99 72 160 72c80 0 128 -36 159 -89v77h144v-523h-144v85c-28 -52 -88 -96 -163 -96zM304 102c71 0 125 50 125 157v8c0 107 -47 157 -120 157c-76 0 -122 -55 -122 -159v-8
c0 -104 49 -155 117 -155zM267 751h109l114 -156h-102l-69 63l-70 -63h-99z" />
    <glyph glyph-name="abreve.alt" horiz-adv-x="627" 
d="M262 -11c-60 0 -115 23 -156 68c-41 44 -67 110 -67 197v8c0 85 26 154 67 201s99 72 160 72c80 0 128 -36 159 -89v77h144v-523h-144v85c-28 -52 -88 -96 -163 -96zM304 102c71 0 125 50 125 157v8c0 107 -47 157 -120 157c-76 0 -122 -55 -122 -159v-8
c0 -104 49 -155 117 -155zM319 598c-88 0 -147 57 -152 149h95c4 -33 22 -54 57 -54s54 21 61 54h93c-5 -92 -69 -149 -154 -149z" />
    <glyph glyph-name="aacute.alt" horiz-adv-x="639" 
d="M262 -11c-60 0 -115 23 -156 68c-41 44 -67 110 -67 197v8c0 85 26 154 67 201s99 72 160 72c80 0 128 -36 159 -89v77h144v-523h-144v85c-28 -52 -88 -96 -163 -96zM304 102c71 0 125 50 125 157v8c0 107 -47 157 -120 157c-76 0 -122 -55 -122 -159v-8
c0 -104 49 -155 117 -155zM318 753h152l-104 -159h-105z" />
    <glyph glyph-name="amacron.alt" horiz-adv-x="627" 
d="M262 -11c-60 0 -115 23 -156 68c-41 44 -67 110 -67 197v8c0 85 26 154 67 201s99 72 160 72c80 0 128 -36 159 -89v77h144v-523h-144v85c-28 -52 -88 -96 -163 -96zM304 102c71 0 125 50 125 157v8c0 107 -47 157 -120 157c-76 0 -122 -55 -122 -159v-8
c0 -104 49 -155 117 -155zM174 712h291v-87h-291v87z" />
    <glyph glyph-name="aogonek.alt" horiz-adv-x="627" 
d="M490 -182c-68 0 -112 30 -112 81c0 47 40 80 83 101h-42v85c-28 -52 -88 -96 -163 -96c-119 0 -223 92 -223 265v8c0 172 103 273 227 273c80 0 128 -36 159 -89v77h144v-514c-47 -31 -64 -55 -64 -80c0 -21 13 -31 33 -31c15 0 28 2 38 7v-72c-17 -8 -41 -15 -80 -15z
M298 102c71 0 125 50 125 157v8c0 107 -47 157 -120 157c-76 0 -122 -55 -122 -159v-8c0 -104 49 -155 117 -155z" />
    <glyph glyph-name="minus.sup" horiz-adv-x="363" 
d="M43 633h277v-78h-277v78z" />
    <glyph glyph-name="plus.sup" horiz-adv-x="363" 
d="M141 555h-98v78h98v102h80v-102h99v-78h-99v-101h-80v101z" />
    <glyph glyph-name="nine.sup" horiz-adv-x="378" 
d="M179 403c-87 0 -138 41 -145 110h100c4 -19 15 -31 44 -31c41 0 59 34 60 94c-17 -23 -38 -40 -83 -40c-71 0 -126 35 -126 114c0 77 57 128 152 128c113 0 166 -72 166 -177v-13c0 -117 -59 -185 -168 -185zM181 601c31 0 50 21 50 49c0 33 -19 55 -50 55
c-29 0 -48 -22 -48 -53s17 -51 48 -51z" />
    <glyph glyph-name="eight.sup" horiz-adv-x="368" 
d="M184 403c-96 0 -156 37 -156 108c0 43 23 75 67 90c-32 13 -52 36 -52 75c0 32 15 58 42 75c25 17 61 27 100 27c80 0 141 -35 141 -102c0 -39 -20 -61 -52 -74c44 -15 66 -47 66 -87c0 -72 -60 -112 -156 -112zM184 478c28 0 49 17 49 46c0 27 -20 45 -49 45
c-27 0 -49 -17 -49 -46s22 -45 49 -45zM185 628c24 0 42 15 42 39s-19 39 -42 39s-43 -15 -43 -39s20 -39 43 -39z" />
    <glyph glyph-name="seven.sup" horiz-adv-x="328" 
d="M176 687h-152v86h288v-11l-132 -352h-109z" />
    <glyph glyph-name="six.sup" horiz-adv-x="378" 
d="M196 403c-59 0 -101 18 -126 50c-27 32 -38 77 -38 129v10c0 59 17 105 48 137c29 32 73 49 122 49c84 0 132 -37 139 -108h-99c-4 17 -14 30 -39 30c-40 0 -60 -36 -63 -97c17 25 42 42 87 42c33 0 64 -9 87 -28c21 -19 35 -47 35 -86c0 -76 -57 -128 -153 -128z
M195 477c29 0 49 21 49 52s-18 52 -49 52s-49 -22 -49 -50c0 -33 20 -54 49 -54z" />
    <glyph glyph-name="five.sup" horiz-adv-x="356" 
d="M173 403c-100 0 -144 50 -147 118h99c4 -23 14 -38 46 -38c28 0 44 20 44 51s-17 49 -46 49c-27 0 -42 -11 -51 -26h-78l8 216h255v-78h-178l-3 -84c15 21 39 41 90 41c68 0 112 -41 112 -117c0 -81 -56 -132 -151 -132z" />
    <glyph glyph-name="four.sup" horiz-adv-x="379" 
d="M201 479h-181v40l155 254h131v-221h47v-73h-47v-69h-105v69zM204 552v147l-85 -147h85z" />
    <glyph glyph-name="f.short" horiz-adv-x="372" 
d="M94 420h-69v103h69v60c0 123 69 183 186 183c31 0 51 -2 71 -9v-109c-13 5 -28 8 -49 8c-45 0 -64 -29 -64 -69v-64h113v-103h-113v-420h-144v420z" />
    <glyph glyph-name="f_f.short" horiz-adv-x="687" 
d="M94 420h-69v103h69v54c0 121 69 183 186 183c31 0 51 -4 74 -11v-108c-15 4 -31 8 -52 8c-45 0 -64 -28 -64 -69v-57h171v60c0 123 69 183 186 183c31 0 51 -2 71 -9v-109c-15 5 -28 8 -49 8c-47 0 -64 -29 -64 -69v-64h113v-103h-113v-420h-144v420h-171v-420h-144v420z
" />
    <glyph glyph-name="three.sup" horiz-adv-x="363" 
d="M180 403c-53 0 -91 14 -116 35c-25 23 -38 54 -39 91h96c3 -28 18 -49 53 -49c32 0 48 16 48 41c0 28 -17 41 -50 41h-29v64h28c33 0 49 13 49 40c0 21 -13 36 -40 36s-45 -17 -49 -45h-96c5 71 55 121 147 121c89 0 141 -39 141 -100c0 -41 -24 -67 -64 -78
c43 -8 73 -38 73 -82c0 -69 -52 -115 -152 -115z" />
    <glyph glyph-name="two.sup" horiz-adv-x="341" 
d="M12 424l128 134c39 40 63 69 63 100c0 24 -13 39 -38 39c-27 0 -42 -17 -47 -57h-99c4 91 60 138 151 138c93 0 139 -48 139 -113c0 -51 -29 -88 -72 -129l-49 -48h124v-78h-300v14z" />
    <glyph glyph-name="one.sup" horiz-adv-x="279" 
d="M109 668l-82 -49v89l97 65h95v-363h-110v258z" />
    <glyph glyph-name="zero.sup" horiz-adv-x="408" 
d="M204 487c43 0 63 33 63 100v10c0 67 -21 99 -64 99c-41 0 -62 -33 -62 -100v-9c0 -67 22 -100 63 -100zM202 403c-108 0 -170 68 -170 183v10c0 116 71 182 172 182c49 0 92 -16 123 -45c31 -31 49 -75 49 -135v-9c0 -116 -66 -186 -174 -186z" />
    <glyph glyph-name="minus.sub" horiz-adv-x="363" 
d="M43 116h277v-78h-277v78z" />
    <glyph glyph-name="plus.sub" horiz-adv-x="363" 
d="M141 38h-98v78h98v102h80v-102h99v-78h-99v-101h-80v101z" />
    <glyph glyph-name="nine.sub" horiz-adv-x="378" 
d="M179 -114c-87 0 -138 41 -145 110h100c4 -19 15 -31 44 -31c41 0 59 34 60 94c-17 -23 -38 -40 -83 -40c-71 0 -126 35 -126 114c0 77 57 128 152 128c113 0 166 -72 166 -177v-13c0 -117 -59 -185 -168 -185zM181 84c31 0 50 21 50 49c0 33 -19 55 -50 55
c-29 0 -48 -22 -48 -53s17 -51 48 -51z" />
    <glyph glyph-name="eight.sub" horiz-adv-x="368" 
d="M184 -114c-96 0 -156 37 -156 108c0 43 23 75 67 90c-32 13 -52 36 -52 75c0 32 15 58 42 75c25 17 61 27 100 27c80 0 141 -35 141 -102c0 -39 -20 -61 -52 -74c44 -15 66 -47 66 -87c0 -72 -60 -112 -156 -112zM184 -39c28 0 49 17 49 46c0 27 -20 45 -49 45
c-27 0 -49 -17 -49 -46s22 -45 49 -45zM185 111c24 0 42 15 42 39s-19 39 -42 39s-43 -15 -43 -39s20 -39 43 -39z" />
    <glyph glyph-name="seven.sub" horiz-adv-x="328" 
d="M176 169h-152v86h288v-11l-132 -352h-109z" />
    <glyph glyph-name="six.sub" horiz-adv-x="378" 
d="M196 -114c-59 0 -101 18 -126 50c-27 32 -38 77 -38 129v10c0 59 17 105 48 137c29 32 73 49 122 49c84 0 132 -37 139 -108h-99c-4 17 -14 30 -39 30c-40 0 -60 -36 -63 -97c17 25 42 42 87 42c33 0 64 -9 87 -28c21 -19 35 -47 35 -86c0 -76 -57 -128 -153 -128z
M195 -40c29 0 49 21 49 52s-18 52 -49 52s-49 -22 -49 -50c0 -33 20 -54 49 -54z" />
    <glyph glyph-name="five.sub" horiz-adv-x="356" 
d="M173 -114c-100 0 -144 50 -147 118h99c4 -23 14 -38 46 -38c28 0 44 20 44 51s-17 49 -46 49c-27 0 -42 -11 -51 -26h-78l8 216h255v-78h-178l-3 -84c15 21 39 41 90 41c68 0 112 -41 112 -117c0 -81 -56 -132 -151 -132z" />
    <glyph glyph-name="four.sub" horiz-adv-x="379" 
d="M201 -39h-181v40l155 254h131v-221h47v-73h-47v-69h-105v69zM204 34v147l-85 -147h85z" />
    <glyph glyph-name="three.sub" horiz-adv-x="363" 
d="M180 -114c-53 0 -91 14 -116 35c-25 23 -38 54 -39 91h96c3 -28 18 -49 53 -49c32 0 48 16 48 41c0 28 -17 41 -50 41h-29v64h28c33 0 49 13 49 40c0 21 -13 36 -40 36s-45 -17 -49 -45h-96c5 71 55 121 147 121c89 0 141 -39 141 -100c0 -41 -24 -67 -64 -78
c43 -8 73 -38 73 -82c0 -69 -52 -115 -152 -115z" />
    <glyph glyph-name="two.sub" horiz-adv-x="341" 
d="M12 -94l128 134c39 40 63 69 63 100c0 24 -13 39 -38 39c-27 0 -42 -17 -47 -57h-99c4 91 60 138 151 138c93 0 139 -48 139 -113c0 -51 -29 -88 -72 -129l-49 -48h124v-78h-300v14z" />
    <glyph glyph-name="one.sub" horiz-adv-x="279" 
d="M109 150l-82 -49v89l97 65h95v-363h-110v258z" />
    <glyph glyph-name="zero.sub" horiz-adv-x="408" 
d="M204 -30c43 0 63 33 63 100v10c0 67 -21 99 -64 99c-41 0 -62 -33 -62 -100v-9c0 -67 22 -100 63 -100zM202 -114c-108 0 -170 68 -170 183v10c0 116 71 182 172 182c49 0 92 -16 123 -45c31 -31 49 -75 49 -135v-9c0 -116 -66 -186 -174 -186z" />
    <glyph glyph-name="nine.den" horiz-adv-x="378" 
d="M179 -6c-87 0 -138 41 -145 110h100c4 -19 15 -31 44 -31c41 0 59 34 60 94c-17 -23 -38 -40 -83 -40c-71 0 -126 35 -126 114c0 77 57 128 152 128c113 0 166 -72 166 -177v-13c0 -117 -59 -185 -168 -185zM181 192c31 0 50 21 50 49c0 33 -19 55 -50 55
c-29 0 -48 -22 -48 -53s17 -51 48 -51z" />
    <glyph glyph-name="eight.den" horiz-adv-x="368" 
d="M184 -6c-96 0 -156 37 -156 108c0 43 23 75 67 90c-32 13 -52 36 -52 75c0 32 15 58 42 75c25 17 61 27 100 27c80 0 141 -35 141 -102c0 -39 -20 -61 -52 -74c44 -15 66 -47 66 -87c0 -72 -60 -112 -156 -112zM184 69c28 0 49 17 49 46c0 27 -20 45 -49 45
c-27 0 -49 -17 -49 -46s22 -45 49 -45zM185 219c24 0 42 15 42 39s-19 39 -42 39s-43 -15 -43 -39s20 -39 43 -39z" />
    <glyph glyph-name="seven.den" horiz-adv-x="328" 
d="M176 277h-152v86h288v-11l-132 -352h-109z" />
    <glyph glyph-name="six.den" horiz-adv-x="378" 
d="M196 -6c-59 0 -101 18 -126 50c-27 32 -38 77 -38 129v10c0 59 17 105 48 137c29 32 73 49 122 49c84 0 132 -37 139 -108h-99c-4 17 -14 30 -39 30c-40 0 -60 -36 -63 -97c17 25 42 42 87 42c33 0 64 -9 87 -28c21 -19 35 -47 35 -86c0 -76 -57 -128 -153 -128zM195 68
c29 0 49 21 49 52s-18 52 -49 52s-49 -22 -49 -50c0 -33 20 -54 49 -54z" />
    <glyph glyph-name="five.den" horiz-adv-x="356" 
d="M173 -6c-100 0 -144 50 -147 118h99c4 -23 14 -38 46 -38c28 0 44 20 44 51s-17 49 -46 49c-27 0 -42 -11 -51 -26h-78l8 216h255v-78h-178l-3 -84c15 21 39 41 90 41c68 0 112 -41 112 -117c0 -81 -56 -132 -151 -132z" />
    <glyph glyph-name="four.den" horiz-adv-x="379" 
d="M201 69h-181v40l155 254h131v-221h47v-73h-47v-69h-105v69zM204 142v147l-85 -147h85z" />
    <glyph glyph-name="three.den" horiz-adv-x="363" 
d="M180 -6c-53 0 -91 14 -116 35c-25 23 -38 54 -39 91h96c3 -28 18 -49 53 -49c32 0 48 16 48 41c0 28 -17 41 -50 41h-29v64h28c33 0 49 13 49 40c0 21 -13 36 -40 36s-45 -17 -49 -45h-96c5 71 55 121 147 121c89 0 141 -39 141 -100c0 -41 -24 -67 -64 -78
c43 -8 73 -38 73 -82c0 -69 -52 -115 -152 -115z" />
    <glyph glyph-name="two.den" horiz-adv-x="341" 
d="M12 14l128 134c39 40 63 69 63 100c0 24 -13 39 -38 39c-27 0 -42 -17 -47 -57h-99c4 91 60 138 151 138c93 0 139 -48 139 -113c0 -51 -29 -88 -72 -129l-49 -48h124v-78h-300v14z" />
    <glyph glyph-name="one.den" horiz-adv-x="279" 
d="M109 258l-82 -49v89l97 65h95v-363h-110v258z" />
    <glyph glyph-name="zero.den" horiz-adv-x="408" 
d="M204 78c43 0 63 33 63 100v10c0 67 -21 99 -64 99c-41 0 -62 -33 -62 -100v-9c0 -67 22 -100 63 -100zM202 -6c-108 0 -170 68 -170 183v10c0 116 71 182 172 182c49 0 92 -16 123 -45c31 -31 49 -75 49 -135v-9c0 -116 -66 -186 -174 -186z" />
    <glyph glyph-name="nine.num" horiz-adv-x="377" 
d="M179 345c-87 0 -138 41 -145 110h100c4 -19 15 -31 44 -31c41 0 59 34 60 94c-17 -23 -38 -40 -83 -40c-71 0 -126 35 -126 114c0 77 57 128 152 128c113 0 166 -72 166 -177v-13c0 -117 -59 -185 -168 -185zM181 543c31 0 50 21 50 49c0 33 -19 55 -50 55
c-29 0 -48 -22 -48 -53s17 -51 48 -51z" />
    <glyph glyph-name="uni045D.bgr" 
d="M244 -11c-51 0 -95 15 -127 47s-51 82 -51 150v337h144v-317c0 -69 31 -105 91 -105c61 0 109 38 109 115v307h144v-523h-144v82c-27 -53 -79 -93 -166 -93zM160 753h152l57 -159h-105z" />
    <glyph glyph-name="eight.num" horiz-adv-x="368" 
d="M184 345c-96 0 -156 37 -156 108c0 43 23 75 67 90c-32 13 -52 36 -52 75c0 32 15 58 42 75c25 17 61 27 100 27c80 0 141 -35 141 -102c0 -39 -20 -61 -52 -74c44 -15 66 -47 66 -87c0 -72 -60 -112 -156 -112zM184 420c28 0 49 17 49 46c0 27 -20 45 -49 45
c-27 0 -49 -17 -49 -46s22 -45 49 -45zM185 570c24 0 42 15 42 39s-19 39 -42 39s-43 -15 -43 -39s20 -39 43 -39z" />
    <glyph glyph-name="aring.alt" horiz-adv-x="639" 
d="M262 -11c-60 0 -115 23 -156 68c-41 44 -67 110 -67 197v8c0 85 26 154 67 201s99 72 160 72c80 0 128 -36 159 -89v77h144v-523h-144v85c-28 -52 -88 -96 -163 -96zM304 102c71 0 125 50 125 157v8c0 107 -47 157 -120 157c-76 0 -122 -55 -122 -159v-8
c0 -104 49 -155 117 -155zM317 643c28 0 49 22 49 53s-21 54 -49 54c-29 0 -49 -23 -49 -54s20 -53 49 -53zM317 585c-32 0 -60 13 -81 33s-34 47 -34 78s13 59 34 79s49 33 81 33s60 -13 81 -33s34 -48 34 -79s-13 -58 -34 -78s-49 -33 -81 -33z" />
    <glyph glyph-name="uni20B4.old" horiz-adv-x="625" 
d="M309 -11c-157 0 -253 72 -253 196c0 27 5 52 14 75h-43v65h96c31 23 72 41 125 60h-221v64h367c17 19 22 40 22 69c0 49 -32 70 -92 70c-64 0 -95 -28 -106 -89h-144c12 137 99 204 250 204c147 0 241 -67 241 -180c0 -27 -4 -52 -12 -74h46v-64h-91
c-27 -24 -61 -43 -108 -60h199v-65h-357c-27 -20 -35 -43 -35 -76c0 -56 39 -80 102 -80c93 0 118 49 126 109h150c-8 -137 -95 -224 -276 -224z" />
    <glyph glyph-name="uni20B4.oldtab" horiz-adv-x="600" 
d="M296 -11c-152 0 -244 72 -244 196c0 29 5 54 14 75h-43v65h94c31 23 69 41 120 60h-214v64h356c16 19 21 40 21 69c0 49 -31 70 -90 70c-61 0 -92 -28 -103 -89h-138c11 137 96 204 241 204c141 0 233 -67 233 -180c0 -27 -4 -52 -12 -74h44v-64h-87
c-25 -23 -60 -43 -105 -60h192v-65h-344c-25 -20 -34 -43 -34 -76c0 -56 38 -80 99 -80c89 0 115 49 123 109h143c-8 -137 -93 -224 -266 -224z" />
    <glyph glyph-name="uni20B4.tab" horiz-adv-x="600" 
d="M296 -11c-147 0 -237 74 -237 202c0 31 5 57 14 78h-41v66h90c28 24 67 43 115 62h-205v66h343c15 19 19 42 19 71c0 51 -30 72 -83 72c-59 0 -86 -28 -97 -91h-138c13 141 94 210 235 210c137 0 225 -69 225 -186c0 -27 -4 -53 -11 -76h43v-66h-85
c-25 -25 -59 -45 -102 -62h187v-66h-333c-23 -21 -31 -46 -31 -79c0 -56 36 -83 92 -83c85 0 108 52 116 113h143c-8 -141 -90 -231 -259 -231z" />
    <glyph glyph-name="aringacute.alt" horiz-adv-x="627" 
d="M262 -11c-60 0 -115 23 -156 68c-41 44 -67 110 -67 197v8c0 85 26 154 67 201s99 72 160 72c80 0 128 -36 159 -89v77h144v-523h-144v85c-28 -52 -88 -96 -163 -96zM304 102c71 0 125 50 125 157v8c0 107 -47 157 -120 157c-76 0 -122 -55 -122 -159v-8
c0 -104 49 -155 117 -155zM317 632c28 0 49 22 49 53s-21 54 -49 54c-29 0 -49 -23 -49 -54s20 -53 49 -53zM317 574c-32 0 -60 13 -81 33s-34 47 -34 78s13 59 34 79s49 33 81 33s60 -13 81 -33s34 -48 34 -79s-13 -58 -34 -78s-49 -33 -81 -33zM320 967h157l-101 -139
h-109z" />
    <glyph glyph-name="uni20B8.old" horiz-adv-x="568" 
d="M24 629v65h520v-65h-520zM206 446h-182v122h520v-122h-181v-446h-157v446z" />
    <glyph glyph-name="uni20B8.oldtab" horiz-adv-x="600" 
d="M46 629v65h508v-65h-508zM221 446h-175v122h508v-122h-175v-446h-158v446z" />
    <glyph glyph-name="uni20B8.tab" horiz-adv-x="600" 
d="M48 647v68h504v-68h-504zM219 459h-171v127h504v-127h-170v-459h-163v459z" />
    <glyph glyph-name="atilde.alt" horiz-adv-x="639" 
d="M262 -11c-60 0 -115 23 -156 68c-41 44 -67 110 -67 197v8c0 85 26 154 67 201s99 72 160 72c80 0 128 -36 159 -89v77h144v-523h-144v85c-28 -52 -88 -96 -163 -96zM304 102c71 0 125 50 125 157v8c0 107 -47 157 -120 157c-76 0 -122 -55 -122 -159v-8
c0 -104 49 -155 117 -155zM379 598c-25 0 -47 10 -64 19l-26 13c-8 4 -16 6 -23 6c-17 0 -31 -16 -35 -37h-83c7 92 50 141 110 141c24 0 45 -10 64 -18c19 -9 35 -19 51 -19c19 0 30 14 34 37h84c-8 -93 -55 -142 -112 -142z" />
    <glyph glyph-name="uni20BD.old" horiz-adv-x="651" 
d="M277 131v-131h-158v131h-95v64h95v60h-95v64h95v383h242c172 0 268 -75 268 -224v-4c0 -148 -104 -219 -257 -219h-95v-60h211v-64h-211zM357 366c79 0 120 38 120 107v4c0 76 -43 104 -119 104h-81v-215h80z" />
    <glyph glyph-name="uni20BD.oldtab" horiz-adv-x="600" 
d="M325 362c75 0 113 35 113 106v4c0 75 -41 101 -113 101h-70v-211h70zM255 126v-126h-147v126h-91v65h91v60h-91v64h91v379h220c161 0 252 -73 252 -222v-4c0 -149 -99 -218 -247 -218h-78v-59h192v-65h-192z" />
    <glyph glyph-name="uni20BD.tab" horiz-adv-x="600" 
d="M323 373c73 0 110 36 110 109v4c0 76 -39 106 -110 106h-67v-219h67zM256 135v-135h-149v135h-90v66h90v62h-90v66h90v386h219c161 0 252 -76 252 -228v-4c0 -151 -98 -224 -247 -224h-75v-58h194v-66h-194z" />
    <glyph glyph-name="seven.num" horiz-adv-x="328" 
d="M176 629h-152v86h288v-11l-132 -352h-109z" />
    <glyph glyph-name="six.num" horiz-adv-x="377" 
d="M196 345c-59 0 -101 18 -126 50c-27 32 -38 77 -38 129v10c0 59 17 105 48 137c29 32 73 49 122 49c84 0 132 -37 139 -108h-99c-4 17 -14 30 -39 30c-40 0 -60 -36 -63 -97c17 25 42 42 87 42c33 0 64 -9 87 -28c21 -19 35 -47 35 -86c0 -76 -57 -128 -153 -128z
M195 419c29 0 49 21 49 52s-18 52 -49 52s-49 -22 -49 -50c0 -33 20 -54 49 -54z" />
    <glyph glyph-name="five.num" horiz-adv-x="355" 
d="M173 345c-100 0 -144 50 -147 118h99c4 -23 14 -38 46 -38c28 0 44 20 44 51s-17 49 -46 49c-27 0 -42 -11 -51 -26h-78l8 216h255v-78h-178l-3 -84c15 21 39 41 90 41c68 0 112 -41 112 -117c0 -81 -56 -132 -151 -132z" />
    <glyph glyph-name="four.num" horiz-adv-x="378" 
d="M201 421h-181v40l155 254h131v-221h47v-73h-47v-69h-105v69zM204 494v147l-85 -147h85z" />
    <glyph glyph-name="three.num" horiz-adv-x="363" 
d="M180 345c-53 0 -91 14 -116 35c-25 23 -38 54 -39 91h96c3 -28 18 -49 53 -49c32 0 48 16 48 41c0 28 -17 41 -50 41h-29v64h28c33 0 49 13 49 40c0 21 -13 36 -40 36s-45 -17 -49 -45h-96c5 71 55 121 147 121c89 0 141 -39 141 -100c0 -41 -24 -67 -64 -78
c43 -8 73 -38 73 -82c0 -69 -52 -115 -152 -115z" />
    <glyph glyph-name="two.num" horiz-adv-x="341" 
d="M12 366l128 134c39 40 63 69 63 100c0 24 -13 39 -38 39c-27 0 -42 -17 -47 -57h-99c4 91 60 138 151 138c93 0 139 -48 139 -113c0 -51 -29 -88 -72 -129l-49 -48h124v-78h-300v14z" />
    <glyph glyph-name="uni021B.alt" horiz-adv-x="364" 
d="M69 -201l47 170l130 -21l-95 -176zM100 420h-75v103h75v113h145v-113h102v-103h-102v-420h-145v420z" />
    <glyph glyph-name="uni0437.bgr" horiz-adv-x="510" 
d="M483 24c0 -128 -84 -217 -236 -217c-151 0 -223 85 -236 188h144c8 -49 35 -82 88 -82c63 0 94 40 94 113v5c0 73 -29 111 -105 111h-49v102h48c63 0 88 32 88 91v8c0 58 -25 87 -75 87c-44 0 -72 -23 -79 -90h-137c13 152 113 195 222 195c132 0 213 -77 213 -185v-6
c0 -71 -47 -130 -111 -145c80 -19 131 -69 131 -169v-6z" />
    <glyph glyph-name="uni0449.bgr" horiz-adv-x="946" 
d="M811 -127l-6 127h-90v81c-27 -51 -81 -93 -161 -93c-68 0 -119 28 -146 91c-43 -64 -110 -91 -175 -91c-97 0 -173 60 -173 200v335h144v-319c0 -68 31 -97 83 -97c55 0 101 36 101 107v309h143v-319c0 -68 31 -97 83 -97c55 0 101 37 101 108v308h144v-420h73v-230h-121
z" />
    <glyph glyph-name="one.num" horiz-adv-x="278" 
d="M109 610l-82 -49v89l97 65h95v-363h-110v258z" />
    <glyph glyph-name="uni044A.bgr" horiz-adv-x="605" 
d="M22 420v103h262v-170c15 3 40 5 75 4c144 0 220 -61 220 -174v-5c0 -120 -92 -188 -224 -188c-152 1 -214 72 -214 213v217h-119zM356 87c49 0 76 32 76 83v5c0 55 -29 83 -88 83c-27 1 -47 0 -60 -3v-78c0 -57 21 -90 72 -90z" />
    <glyph glyph-name="zero.num" horiz-adv-x="408" 
d="M204 429c43 0 63 33 63 100v10c0 67 -21 99 -64 99c-41 0 -62 -33 -62 -100v-9c0 -67 22 -100 63 -100zM202 345c-108 0 -170 68 -170 183v10c0 116 71 182 172 182c49 0 92 -16 123 -45c31 -31 49 -75 49 -135v-9c0 -116 -66 -186 -174 -186z" />
    <glyph glyph-name="nine.oldtab" horiz-adv-x="600" 
d="M291 267c67 0 116 48 116 120c0 84 -49 131 -117 131c-65 0 -114 -49 -114 -124c0 -79 47 -127 115 -127zM281 -106c-143 0 -226 71 -237 203h134c9 -51 37 -87 105 -87c89 0 123 74 126 237c-29 -49 -79 -83 -156 -83c-123 0 -216 79 -216 222c0 145 100 244 253 244
c183 0 264 -125 264 -313v-70c0 -228 -92 -353 -273 -353z" />
    <glyph glyph-name="eight.oldtab" horiz-adv-x="600" 
d="M301 -11c-144 0 -258 74 -258 211c0 88 50 149 129 178c-64 27 -102 75 -102 150c0 126 108 197 232 197c126 0 230 -71 230 -195c0 -76 -39 -124 -102 -151c80 -29 128 -90 128 -174c0 -138 -110 -216 -257 -216zM303 423c56 0 94 37 94 98c0 57 -42 95 -95 95
s-96 -36 -96 -96s45 -97 97 -97zM301 103c65 0 112 40 112 111c0 69 -46 110 -111 110c-63 0 -114 -40 -114 -111c0 -69 49 -110 113 -110z" />
    <glyph glyph-name="seven.oldtab" horiz-adv-x="600" 
d="M355 494h-306v124h506v-17l-273 -695h-162z" />
    <glyph glyph-name="six.oldtab" horiz-adv-x="600" 
d="M313 -11c-185 0 -266 128 -266 316v65c0 228 112 355 280 355c128 0 214 -62 226 -195h-136c-9 51 -36 80 -93 80c-83 0 -130 -77 -133 -242c31 47 80 87 160 87c125 0 213 -80 213 -222c0 -147 -96 -244 -251 -244zM313 103c65 0 113 48 113 123c0 79 -46 127 -114 127
c-67 0 -117 -47 -117 -120c0 -84 50 -130 118 -130z" />
    <glyph glyph-name="uni0431.locl" horiz-adv-x="615" 
d="M307 -11c-156 0 -275 104 -275 257v8c0 109 77 209 201 225l17 3c3 1 7 1 12 1c-104 40 -183 75 -183 158c0 76 52 119 148 119h152c72 0 131 4 159 11v-107c-27 -11 -75 -17 -160 -17h-142c-26 0 -39 -9 -39 -26c0 -20 38 -45 119 -78c172 -64 267 -137 267 -286v-8
c0 -155 -119 -260 -276 -260zM308 99c81 0 128 60 128 149v7c0 91 -47 150 -128 150c-80 0 -128 -57 -128 -148v-8c0 -92 45 -150 128 -150z" />
    <glyph glyph-name="slash.uc" horiz-adv-x="435" 
d="M300 777h119l-288 -861h-119z" />
    <glyph glyph-name="germandbls.alt" horiz-adv-x="676" 
d="M452 -9c-123 0 -192 62 -195 162h127c3 -40 24 -63 61 -63c35 0 58 17 58 60c0 20 -10 35 -26 48c-16 12 -38 24 -65 37c-28 15 -59 31 -82 54c-24 21 -40 50 -40 87c0 48 31 84 62 116s62 60 62 95c0 48 -28 71 -87 71c-69 0 -113 -39 -113 -119v-539h-144v536
c0 73 27 131 74 171c45 40 110 61 185 61c65 0 122 -15 162 -42c40 -28 64 -69 64 -121c0 -59 -32 -97 -64 -126c-33 -31 -65 -53 -65 -80c0 -12 7 -19 23 -30s41 -23 77 -43c29 -17 59 -38 80 -63c21 -27 36 -60 36 -101c0 -56 -20 -99 -53 -127c-35 -29 -81 -44 -137 -44z
" />
    <glyph glyph-name="four.oldtab" horiz-adv-x="600" 
d="M342 47h-318v50l276 521h187v-467h82v-104h-82v-141h-145v141zM345 151v346l-182 -346h182z" />
    <glyph glyph-name="three.oldtab" horiz-adv-x="600" 
d="M295 -105c-174 0 -260 97 -265 236h139c7 -72 40 -121 124 -121c80 0 115 41 115 108c0 69 -38 104 -114 104h-53v103h50c73 0 106 39 106 99c0 55 -31 92 -95 92c-67 0 -107 -39 -114 -110h-136c5 125 100 224 254 224c148 0 232 -81 232 -192c0 -81 -43 -132 -111 -156
c80 -19 133 -75 133 -167c0 -134 -100 -220 -265 -220z" />
    <glyph glyph-name="two.oldtab" horiz-adv-x="600" 
d="M35 25l236 223c71 68 112 117 112 178c0 53 -30 87 -89 87c-60 0 -95 -38 -106 -122h-137c11 146 101 239 251 239c147 0 234 -78 234 -193c0 -88 -60 -152 -144 -230l-101 -93h251v-114h-507v25z" />
    <glyph glyph-name="one.oldtab" horiz-adv-x="600" 
d="M283 468l-186 -127v132l204 146h134v-619h-152v468z" />
    <glyph glyph-name="zero.oldtab" horiz-adv-x="600" 
d="M299 -11c-160 0 -258 109 -258 277v89c0 169 106 275 259 275s259 -101 259 -272v-89c0 -170 -99 -280 -260 -280zM302 112c76 0 108 55 108 155v88c0 100 -33 155 -109 155s-111 -54 -111 -154v-90c0 -100 36 -154 112 -154z" />
    <glyph glyph-name="yen.oldtab" horiz-adv-x="600" 
d="M77 354h141l-180 340h160l114 -244l110 244h140l-172 -340h145v-65h-154v-59h154v-65h-154v-165h-153v165h-151v65h151v59h-151v65z" />
    <glyph glyph-name="sterling.oldtab" horiz-adv-x="600" 
d="M37 385h50c-8 31 -13 64 -13 103c0 136 111 215 242 215c149 0 226 -78 233 -215h-142c-9 67 -29 94 -86 94c-56 0 -90 -34 -90 -101c0 -35 3 -65 8 -96h171v-97h-154c4 -26 6 -53 6 -81c0 -23 -3 -40 -10 -59c43 -13 77 -32 108 -32c41 0 66 18 70 66h136
c-5 -116 -72 -191 -179 -191c-88 0 -142 55 -190 55c-35 0 -48 -22 -51 -46h-122c4 60 37 119 94 146c7 17 10 36 10 61c0 27 -6 53 -13 81h-78v97z" />
    <glyph glyph-name="Euro.oldtab" horiz-adv-x="600" 
d="M28 439h51c8 165 105 264 249 264c133 0 216 -70 227 -225h-131c-8 75 -35 109 -95 109c-69 0 -105 -49 -110 -148h168l-11 -64h-157v-59h145l-11 -65h-134c5 -100 38 -144 111 -144c63 0 94 35 103 119h129c-9 -160 -95 -237 -236 -237c-145 0 -238 91 -247 262h-51v65
h51v59h-51v64z" />
    <glyph glyph-name="uni0433.bgr" horiz-adv-x="502" 
d="M241 -11c-133 0 -214 58 -214 158c0 105 78 139 181 160c83 17 117 32 117 72c0 31 -21 52 -68 52c-51 0 -73 -20 -82 -63h-132c16 117 99 167 223 167c115 0 199 -51 199 -150c0 -107 -72 -138 -181 -162c-80 -16 -111 -32 -111 -75c0 -32 23 -53 76 -53
c64 0 85 27 92 74h134c-5 -119 -86 -180 -234 -180z" />
    <glyph glyph-name="uni043F.bgr" horiz-adv-x="615" 
d="M64 523h144v-84c27 53 83 96 171 96c103 0 176 -61 176 -202v-333h-144v312c0 72 -29 105 -93 105c-63 0 -110 -38 -110 -115v-302h-144v523z" />
    <glyph glyph-name="uni0448.bgr" horiz-adv-x="923" 
d="M859 0h-144v81c-27 -51 -81 -93 -161 -93c-68 0 -119 28 -146 91c-43 -64 -110 -91 -175 -91c-97 0 -173 60 -173 200v335h144v-319c0 -68 31 -97 83 -97c55 0 101 36 101 107v309h143v-319c0 -68 31 -97 83 -97c55 0 101 37 101 108v308h144v-523z" />
    <glyph glyph-name="uni044E.bgr" horiz-adv-x="822" 
d="M524 -10c-140 0 -242 86 -258 225h-58v-215h-143v760h143v-442h59c21 132 123 218 258 218c154 0 265 -105 265 -268v-8c0 -165 -112 -270 -266 -270zM525 99c76 0 118 60 118 159v8c0 100 -42 159 -118 159c-75 0 -118 -57 -118 -157v-8c0 -101 42 -161 118 -161z" />
    <glyph glyph-name="dollar.oldtab" horiz-adv-x="600" 
d="M182 511c0 -44 16 -67 86 -83v163c-56 -7 -86 -39 -86 -80zM426 194c0 47 -20 69 -89 85v-177c56 11 89 45 89 92zM268 -9c-164 11 -233 104 -241 225h140c8 -55 27 -102 101 -113v188c-151 24 -222 80 -222 208c0 112 86 192 222 203v87h69v-88
c129 -12 207 -77 219 -202h-136c-9 51 -32 79 -83 90v-172c144 -24 229 -72 229 -207c0 -115 -81 -209 -229 -220v-121h-69v122z" />
    <glyph glyph-name="braceright.tab" horiz-adv-x="312" 
d="M29 -51c69 3 89 30 76 117l-18 104c-15 76 19 118 99 145c-79 28 -114 70 -99 146l18 104c7 43 5 70 -7 89c-12 17 -34 24 -69 25v98c168 0 234 -64 202 -225l-19 -94c-11 -51 4 -85 75 -96v-94c-71 -12 -86 -46 -75 -98l19 -93c31 -159 -34 -225 -202 -225v97z" />
    <glyph glyph-name="braceleft.tab" horiz-adv-x="312" 
d="M283 -148c-168 0 -233 66 -202 225l19 93c5 25 4 48 -7 64s-32 27 -68 34v94c36 5 57 17 68 33s12 38 7 63l-19 94c-32 161 34 225 202 225v-98c-35 -1 -57 -8 -69 -25c-12 -19 -14 -46 -7 -89l18 -104c15 -76 -20 -118 -99 -146c80 -27 114 -69 99 -145l-18 -104
c-15 -87 7 -114 76 -117v-97z" />
    <glyph glyph-name="bracketright.tab" horiz-adv-x="312" 
d="M29 -49h90v726h-90v99h223v-924h-223v99z" />
    <glyph glyph-name="uni0434.bgr" horiz-adv-x="636" 
d="M303 132c76 0 129 54 129 143v7c0 89 -46 143 -126 143c-81 0 -126 -57 -126 -144v-8c0 -88 51 -141 123 -141zM296 -193c-169 0 -247 73 -260 182h144c9 -47 41 -76 116 -76c88 0 132 45 132 128v79c-29 -50 -91 -97 -168 -97c-127 0 -228 95 -228 250v7
c0 149 99 255 230 255c85 0 135 -37 166 -90v78h144v-482c-1 -156 -103 -234 -276 -234z" />
    <glyph glyph-name="bracketleft.tab" horiz-adv-x="312" 
d="M60 776h223v-99h-90v-726h90v-99h-223v924z" />
    <glyph glyph-name="uni0438.bgr" 
d="M238 -11c-101 0 -178 60 -178 197v337h144v-317c0 -70 30 -105 91 -105s109 38 109 115v307h144v-523h-144v82c-27 -52 -79 -93 -166 -93z" />
    <glyph glyph-name="agrave.alt" horiz-adv-x="639" 
d="M262 -11c-60 0 -115 23 -156 68c-41 44 -67 110 -67 197v8c0 85 26 154 67 201s99 72 160 72c80 0 128 -36 159 -89v77h144v-523h-144v85c-28 -52 -88 -96 -163 -96zM304 102c71 0 125 50 125 157v8c0 107 -47 157 -120 157c-76 0 -122 -55 -122 -159v-8
c0 -104 49 -155 117 -155zM169 753h152l57 -159h-105z" />
    <glyph glyph-name="parenright.tab" horiz-adv-x="312" 
d="M14 -148c29 53 59 117 82 193s37 165 37 268s-14 192 -37 269c-23 76 -53 140 -82 192h110c33 -49 69 -111 96 -187s46 -167 46 -274s-19 -198 -46 -274s-63 -138 -96 -187h-110z" />
    <glyph glyph-name="parenleft.tab" horiz-adv-x="312" 
d="M188 -148c-33 49 -69 111 -96 187s-46 167 -46 274s19 198 46 274s63 138 96 187h110c-31 -52 -59 -116 -82 -192c-23 -77 -37 -166 -37 -269s14 -192 37 -268s51 -140 82 -193h-110z" />
    <glyph glyph-name="uni044C.bgr" horiz-adv-x="524" 
d="M274 -10c-152 1 -214 72 -214 213v320h143v-170c15 3 40 5 75 4c144 0 220 -61 220 -174v-5c0 -120 -92 -188 -224 -188zM275 87c49 0 76 32 76 83v5c0 55 -29 83 -88 83c-27 1 -47 0 -60 -3v-78c0 -57 21 -90 72 -90z" />
    <glyph glyph-name="semicolon.tab" horiz-adv-x="312" 
d="M11 -86l88 247l136 -51l-136 -233zM161 281c-51 0 -89 39 -89 88c0 48 38 87 89 87s90 -39 90 -87c0 -24 -10 -46 -26 -62s-39 -26 -64 -26z" />
    <glyph glyph-name="uni0439.bgr" 
d="M300 599c-92 0 -148 58 -153 146h103c3 -32 17 -60 50 -60c35 0 50 27 54 60h102c-7 -88 -65 -146 -156 -146zM238 -11c-101 0 -178 60 -178 197v337h144v-317c0 -70 30 -105 91 -105s109 38 109 115v307h144v-523h-144v82c-27 -52 -79 -93 -166 -93z" />
    <glyph glyph-name="uni0414.bgr" horiz-adv-x="719" 
d="M215 128h269l-135 425zM144 -130h-141v258h60l201 587h190l202 -587h60v-258h-140l-5 130h-422z" />
    <glyph glyph-name="uni0416.bgr" horiz-adv-x="973" 
d="M406 325l-219 -325h-175l262 373l-250 342h168l214 -313v313h159v-314l217 314h165l-250 -336l264 -379h-179l-217 327v-327h-159v325z" />
    <glyph glyph-name="uni041A.bgr" horiz-adv-x="686" 
d="M239 322v-322h-162v715h162v-307l250 307h172l-283 -337l297 -378h-189z" />
    <glyph glyph-name="uni0436.bgr" horiz-adv-x="770" 
d="M313 250l-149 -250h-155l178 281l-165 242h149l142 -227v464h142v-465l143 228h148l-165 -239l180 -284h-158l-148 252v-252h-142v250z" />
    <glyph glyph-name="colon.tab" horiz-adv-x="312" 
d="M155 -9c-51 0 -88 39 -88 88c0 48 37 87 88 87s90 -39 90 -87c0 -24 -10 -46 -26 -62s-39 -26 -64 -26zM155 281c-51 0 -88 39 -88 88c0 48 37 87 88 87s90 -39 90 -87c0 -24 -10 -46 -26 -62s-39 -26 -64 -26z" />
    <glyph glyph-name="comma.tab" horiz-adv-x="312" 
d="M29 -86l88 247l136 -51l-136 -233z" />
    <glyph glyph-name="uni0432.bgr" horiz-adv-x="536" 
d="M42 495c0 192 91 275 230 275c136 0 215 -67 215 -192v-8c0 -77 -47 -152 -123 -166c92 -15 143 -75 143 -178v-6c0 -127 -93 -233 -234 -233c-144 0 -231 81 -231 253v255zM190 449h54c75 0 100 47 100 114v8c0 57 -19 93 -72 93c-60 0 -82 -51 -82 -146v-69zM272 93
c59 0 89 43 89 130v8c0 83 -32 120 -116 120h-55v-124c0 -83 19 -134 82 -134z" />
    <glyph glyph-name="period.tab" horiz-adv-x="312" 
d="M156 -9c-51 0 -89 39 -89 88c0 48 38 87 89 87s90 -39 90 -87c0 -24 -10 -46 -26 -62s-39 -26 -64 -26z" />
    <glyph glyph-name="uni0424.bgr" horiz-adv-x="901" 
d="M532 670c192 -5 330 -107 330 -304v-8c0 -199 -149 -297 -330 -302v-66h-161v66c-192 5 -330 104 -330 301v7c0 203 147 301 330 306v61h161v-61zM371 554c-92 -5 -169 -53 -169 -190v-7c0 -131 74 -181 169 -184v381zM532 172c92 3 168 52 168 186v8
c0 134 -73 182 -168 187v-381z" />
    <glyph glyph-name="greaterequal.tab" 
d="M107 266l200 101l-200 102v130l408 -218v-29l-408 -218v132zM107 100h408v-100h-408v100z" />
    <glyph glyph-name="lessequal.tab" 
d="M97 352v29l408 218v-130l-200 -102l200 -101v-132zM97 100h408v-100h-408v100z" />
    <glyph glyph-name="greater.tab" 
d="M99 205l225 117l-225 121v130l420 -236v-29l-420 -235v132z" />
    <glyph glyph-name="uni0442.bgr" horiz-adv-x="923" 
d="M64 523h144v-80c27 51 82 92 161 92c69 0 121 -28 146 -91c43 64 109 91 176 91c97 0 172 -60 172 -200v-335h-144v319c0 68 -30 97 -83 97c-55 0 -101 -36 -101 -107v-309h-143v319c0 68 -30 97 -83 97c-55 0 -101 -36 -101 -107v-309h-144v523z" />
    <glyph glyph-name="less.tab" 
d="M93 308v29l421 235v-132l-226 -117l226 -121v-130z" />
    <glyph glyph-name="approxequal.tab" 
d="M73 137c4 55 20 95 44 120c23 25 53 37 85 37c40 0 77 -10 113 -21c35 -11 66 -21 91 -21c23 0 41 14 45 45h88c-3 -53 -18 -92 -41 -117c-24 -27 -54 -39 -86 -39c-40 0 -79 10 -114 21c-35 9 -66 20 -91 20s-41 -14 -46 -45h-88zM73 342c4 55 20 94 44 119
c23 25 53 37 85 37c40 0 77 -11 113 -20c35 -11 66 -21 91 -21c23 0 41 15 45 44h88c-3 -53 -18 -92 -41 -117c-24 -27 -54 -39 -86 -39c-40 0 -79 10 -114 21s-66 21 -91 21s-41 -14 -46 -45h-88z" />
    <glyph glyph-name="notequal.tab" 
d="M80 472h233l39 99h101l-39 -99h118v-104h-158l-33 -87h191v-103h-231l-38 -99h-101l38 99h-120v103h160l33 87h-193v104z" />
    <glyph glyph-name="equal.tab" 
d="M84 281h444v-103h-444v103zM84 472h444v-104h-444v104z" />
    <glyph glyph-name="divide.tab" 
d="M306 60c-47 0 -83 35 -83 82c0 45 36 82 83 82s83 -37 83 -82c0 -47 -36 -82 -83 -82zM67 393h479v-104h-479v104zM306 458c-47 0 -83 35 -83 82s36 82 83 82s83 -35 83 -82s-36 -82 -83 -82z" />
    <glyph glyph-name="multiply.tab" 
d="M76 182l153 153l-154 154l77 78l154 -155l153 153l78 -77l-154 -153l155 -154l-78 -78l-154 155l-153 -153z" />
    <glyph glyph-name="plusminus.tab" 
d="M247 336h-180v108h180v172h118v-172h180v-108h-180v-171h-118v171zM67 100h480v-100h-480v100z" />
    <glyph glyph-name="minus.tab" 
d="M71 397h471v-113h-471v113z" />
    <glyph glyph-name="plus.tab" 
d="M247 286h-175v109h175v191h118v-191h176v-109h-176v-191h-118v191z" />
    <glyph glyph-name="perthousand.tab" horiz-adv-x="1012" 
d="M184 472c32 0 47 29 47 85c0 57 -15 85 -47 85c-31 0 -48 -25 -48 -85s17 -85 48 -85zM183 390c-85 0 -147 63 -147 166c0 52 16 93 43 122c27 28 64 44 105 44s77 -15 104 -43s43 -68 43 -120s-16 -95 -41 -123c-27 -29 -64 -46 -107 -46zM535 715h88l-466 -715h-88z
M504 71c32 0 47 29 47 86c0 56 -15 84 -47 84c-31 0 -47 -28 -47 -84c0 -60 16 -86 47 -86zM504 -11c-87 0 -147 64 -147 167c0 52 16 93 43 121s64 44 104 44c41 0 77 -15 104 -43s43 -69 43 -120c0 -52 -16 -95 -41 -123c-27 -29 -63 -46 -106 -46zM829 71
c32 0 47 29 47 86c0 56 -15 84 -47 84s-48 -28 -48 -84c0 -60 17 -86 48 -86zM828 -11c-87 0 -147 64 -147 167c0 51 16 92 43 121c27 28 64 44 105 44c40 0 77 -15 104 -43s43 -69 43 -120c0 -52 -15 -95 -42 -123c-27 -29 -63 -46 -106 -46z" />
    <glyph glyph-name="percent.tab" horiz-adv-x="812" 
d="M216 469c41 0 66 32 66 85c0 51 -25 84 -66 84s-66 -31 -66 -84c0 -56 25 -85 66 -85zM215 383c-51 0 -93 18 -124 49c-31 29 -49 73 -49 121s19 90 51 121c31 29 75 48 123 48s92 -18 123 -47s50 -72 50 -120c0 -49 -18 -92 -49 -123s-74 -49 -125 -49zM595 715h90
l-466 -715h-90zM597 76c41 0 65 31 65 84c0 51 -24 83 -65 83s-67 -31 -67 -83c0 -56 26 -84 67 -84zM596 -11c-51 0 -93 18 -124 49c-31 29 -49 73 -49 121s19 92 51 121c31 29 75 48 123 48s92 -18 123 -47s50 -72 50 -119c0 -49 -18 -92 -49 -123
c-31 -32 -74 -50 -125 -50z" />
    <glyph glyph-name="tbar.alt" horiz-adv-x="364" 
d="M19 335h75v85h-75v103h75v113h145v-113h102v-103h-102v-85h102v-85h-102v-250h-145v250h-75v85z" />
    <glyph glyph-name="tcaron.alt" horiz-adv-x="364" 
d="M100 420h-75v103h75v113h145v-113h102v-103h-102v-420h-145v420zM304 760h119l-49 -174h-80z" />
    <glyph glyph-name="uni041B.bgr" horiz-adv-x="708" 
d="M345 553l-172 -553h-152l238 715h190l239 -715h-172z" />
    <glyph glyph-name="tcommaaccent.alt" horiz-adv-x="364" 
d="M69 -201l47 170l130 -21l-95 -176zM100 420h-75v103h75v113h145v-113h102v-103h-102v-420h-145v420z" />
    <glyph glyph-name="space_uni0326.alt" horiz-adv-x="412" 
d="M135 600l95 175l82 -26l-47 -170z" />
    <glyph glyph-name="registered.alt" horiz-adv-x="843" 
d="M270 561h153c103 0 160 -41 160 -125v-2c0 -60 -32 -91 -75 -106l99 -168h-111l-86 147h-33v-147h-107v401zM418 378c40 0 60 17 60 51v3c0 35 -20 47 -59 47h-42v-101h41zM421 32c174 0 321 131 321 327c0 192 -143 324 -319 324c-180 0 -322 -134 -322 -326
c0 -195 148 -325 320 -325zM421 -16c-209 0 -377 162 -377 373c0 208 167 374 379 374c213 0 377 -165 377 -372c0 -212 -168 -375 -379 -375z" />
    <glyph glyph-name="caron.alt" horiz-adv-x="412" 
d="M178 760h119l-49 -174h-80z" />
    <glyph glyph-name="questiondown.uc" horiz-adv-x="544" 
d="M365 462c0 -39 -13 -71 -32 -98c-19 -28 -43 -52 -67 -75c-37 -35 -68 -67 -68 -107c0 -47 24 -74 77 -74c56 0 92 39 99 103h139c-3 -69 -29 -125 -72 -162c-44 -39 -104 -59 -175 -59c-75 0 -130 18 -167 50s-56 77 -56 130c0 35 10 64 25 89s36 47 57 68
c24 23 49 44 69 67s34 46 37 73v25h134v-30zM299 724c51 0 91 -38 91 -86c0 -24 -10 -46 -26 -62c-17 -16 -40 -25 -65 -25c-51 0 -91 38 -91 87c0 24 10 45 27 61c16 16 39 25 64 25z" />
    <glyph glyph-name="exclamdown.uc" horiz-adv-x="329" 
d="M105 492h118l22 -492h-162zM165 551c-51 0 -92 38 -92 87c0 24 11 45 28 61c16 16 39 25 64 25s48 -9 65 -25c16 -16 26 -37 26 -61c0 -49 -40 -87 -91 -87z" />
    <glyph glyph-name="hyphen.uc" horiz-adv-x="402" 
d="M60 386h282v-119h-282v119z" />
    <glyph glyph-name="endash.uc" horiz-adv-x="547" 
d="M51 374h445v-92h-445v92z" />
    <glyph glyph-name="florin.tab" 
d="M101 414h109l20 134c17 124 89 176 201 176c32 0 52 -3 75 -11v-110c-15 5 -32 9 -57 9c-47 0 -70 -28 -77 -75l-18 -123h130v-102h-145l-72 -494h-144l72 494h-94v102z" />
    <glyph glyph-name="yen.tab" 
d="M76 356h145l-184 359h164l117 -253l112 253h145l-177 -359h149v-67h-158v-61h158v-66h-158v-162h-158v162h-155v66h155v61h-155v67z" />
    <glyph glyph-name="sterling.tab" 
d="M44 392h53c-8 33 -14 69 -14 112c0 69 26 126 69 163s103 58 170 58c153 0 228 -80 235 -221h-135c-11 68 -35 97 -95 97c-57 0 -95 -36 -95 -104c0 -39 4 -72 11 -105h180v-91h-164c5 -28 8 -57 8 -88c0 -21 -3 -41 -11 -60c45 -15 85 -33 116 -33c41 0 68 17 72 68h131
c-4 -120 -67 -197 -176 -197c-45 0 -83 13 -115 28c-33 13 -60 28 -85 28c-35 0 -48 -22 -51 -47h-117c5 65 34 130 95 155c7 16 9 36 9 59c0 31 -6 58 -13 87h-78v91z" />
    <glyph glyph-name="emdash.uc" horiz-adv-x="936" 
d="M51 374h834v-92h-834v92z" />
    <glyph glyph-name="guilsinglleft.uc" horiz-adv-x="324" 
d="M47 301l127 192h107l-122 -192l122 -192h-107z" />
    <glyph glyph-name="guilsinglright.uc" horiz-adv-x="324" 
d="M165 301l-121 192h107l126 -192l-126 -192h-107z" />
    <glyph glyph-name="space.tab" horiz-adv-x="300" 
 />
    <glyph glyph-name="nine.old" horiz-adv-x="648" 
d="M303 -105c-149 0 -237 75 -252 202h145c11 -47 42 -85 111 -85c49 0 82 17 105 57c21 39 31 99 34 184c-32 -51 -86 -89 -170 -89c-67 0 -124 21 -165 60s-66 94 -66 163c0 73 25 134 72 177c47 41 114 66 198 66c104 0 176 -35 221 -95c44 -60 63 -145 63 -242v-30
c0 -235 -103 -368 -296 -368zM315 266c73 0 123 52 123 121c0 81 -50 130 -123 130c-72 0 -119 -51 -119 -124c0 -76 46 -127 119 -127z" />
    <glyph glyph-name="eight.old" horiz-adv-x="635" 
d="M317 -11c-76 0 -145 18 -194 54s-80 89 -80 157c0 88 57 149 138 178c-64 27 -109 75 -109 150c0 63 29 113 74 146s108 51 173 51c67 0 128 -18 173 -51c44 -33 72 -83 72 -144c0 -76 -45 -124 -109 -151c83 -29 136 -90 136 -174c0 -69 -30 -123 -78 -159
c-49 -37 -119 -57 -196 -57zM318 103c69 0 120 42 120 111s-51 110 -119 110c-33 0 -65 -10 -86 -29c-23 -19 -36 -46 -36 -81s13 -63 36 -82c21 -19 52 -29 85 -29zM320 423c59 0 101 37 101 97c0 57 -45 95 -102 95s-103 -36 -103 -96s48 -96 104 -96z" />
    <glyph glyph-name="uni0442.locl" horiz-adv-x="488" 
d="M471 420h-155v-420h-144v420h-155v103h454v-103z" />
    <glyph glyph-name="seven.old" horiz-adv-x="566" 
d="M346 494h-316v124h514v-17l-271 -695h-161z" />
    <glyph glyph-name="six.old" horiz-adv-x="648" 
d="M334 -11c-104 0 -176 35 -221 95c-45 59 -64 142 -64 238v32c0 120 31 212 84 275s128 96 215 96c137 0 224 -66 240 -195h-144c-11 48 -37 78 -98 78c-88 0 -139 -78 -143 -241c31 51 86 88 170 88c65 0 124 -21 165 -60s66 -95 66 -166c0 -72 -26 -133 -73 -174
c-47 -43 -114 -66 -197 -66zM333 102c72 0 119 50 119 125s-46 126 -119 126c-36 0 -67 -13 -88 -34c-23 -21 -35 -52 -35 -87c0 -80 51 -130 123 -130z" />
    <glyph glyph-name="five.old" horiz-adv-x="609" 
d="M297 -105c-85 0 -149 23 -192 62s-65 92 -69 155h142c4 -29 13 -54 32 -71c17 -19 45 -29 86 -29c72 0 115 53 115 129s-47 124 -119 124c-67 0 -107 -23 -135 -58h-86l9 412h443v-121h-328l-3 -189c31 35 81 63 158 63c63 0 115 -21 154 -60c37 -40 60 -98 60 -171
c0 -75 -26 -136 -73 -179s-114 -67 -194 -67z" />
    <glyph glyph-name="four.old" horiz-adv-x="662" 
d="M383 47h-357v51l314 520h194v-466h95v-105h-95v-141h-151v141zM386 152v350l-203 -350h203z" />
    <glyph glyph-name="three.old" horiz-adv-x="622" 
d="M310 -105c-89 0 -157 24 -202 65c-45 43 -69 100 -72 171h139c7 -72 42 -121 129 -121c84 0 120 42 120 109c0 69 -40 103 -120 103h-55v103h51c79 0 111 38 111 98c0 56 -33 93 -97 93c-68 0 -111 -42 -119 -110h-137c4 63 28 119 72 159c43 40 107 65 188 65
c76 0 136 -21 176 -54c40 -35 62 -83 62 -138c0 -80 -43 -130 -115 -157c84 -21 136 -73 136 -170c0 -64 -25 -118 -70 -157c-45 -37 -112 -59 -197 -59z" />
    <glyph glyph-name="two.old" horiz-adv-x="582" 
d="M21 25l236 223c35 33 65 63 86 92c20 28 33 56 33 87c0 52 -32 86 -92 86s-99 -38 -110 -122h-137c4 73 29 133 73 174s106 65 182 65c73 0 133 -20 174 -53c41 -35 63 -83 63 -140c0 -44 -16 -82 -41 -118c-27 -37 -63 -73 -106 -112l-100 -93h253v-114h-514v25z" />
    <glyph glyph-name="one.old" horiz-adv-x="430" 
d="M181 468l-142 -92v131l161 112h133v-619h-152v468z" />
    <glyph glyph-name="zero.old" horiz-adv-x="675" 
d="M339 108c92 0 136 65 136 189v27c0 121 -46 189 -137 189s-138 -64 -138 -188v-28c0 -125 47 -189 139 -189zM337 -11c-87 0 -159 29 -210 82c-52 52 -82 128 -82 224v28c0 96 30 173 82 226c52 52 126 81 211 81s158 -28 210 -79c52 -52 82 -128 82 -224v-28
c0 -96 -29 -174 -80 -227c-52 -53 -125 -83 -213 -83z" />
    <glyph glyph-name="yen.old" horiz-adv-x="614" 
d="M75 345h140l-192 349h169l126 -259l123 259h151l-183 -349h141v-64h-159v-60h159v-64h-159v-157h-157v157h-159v64h159v60h-159v64z" />
    <glyph glyph-name="sterling.old" horiz-adv-x="636" 
d="M44 384h55c-8 31 -14 66 -14 105c0 67 27 121 71 158c44 36 105 56 176 56c80 0 139 -22 179 -59c40 -39 61 -92 65 -157h-144c-11 65 -36 95 -96 95c-56 0 -95 -38 -95 -101c0 -35 3 -66 10 -97h185v-96h-167c4 -27 7 -52 7 -81c0 -20 -3 -40 -11 -59
c47 -15 86 -33 117 -33c43 0 68 19 71 67h140c-3 -55 -19 -103 -50 -136c-32 -35 -76 -55 -133 -55c-47 0 -87 13 -120 28c-35 13 -63 27 -88 27c-35 0 -49 -22 -52 -46h-120c3 32 12 64 29 92c16 27 41 48 73 60c5 16 9 32 9 55c0 28 -6 54 -13 81h-84v96z" />
    <glyph glyph-name="Euro.old" horiz-adv-x="694" 
d="M31 438h65c11 77 42 143 91 190c48 47 115 75 196 75c156 0 249 -83 264 -236h-145c-11 76 -53 117 -121 117c-79 0 -121 -57 -133 -146h181l-12 -64h-172v-59h161l-11 -65h-147c12 -88 55 -138 135 -138c73 0 115 44 126 129h145c-19 -159 -110 -252 -274 -252
c-83 0 -149 27 -197 74c-48 45 -78 111 -87 187h-65v65h62v59h-62v64z" />
    <glyph glyph-name="dollar.old" horiz-adv-x="640" 
d="M283 -9c-83 5 -142 32 -182 72c-40 39 -60 92 -64 153h144c4 -28 10 -53 26 -73c15 -20 39 -35 76 -40v188c-153 24 -225 80 -225 208c0 55 22 103 61 139s96 60 164 65v86h71v-87c132 -13 211 -78 223 -203h-139c-9 51 -32 79 -84 90v-172c72 -12 131 -30 172 -62
c40 -32 62 -77 62 -145c0 -57 -20 -110 -59 -149c-40 -39 -99 -66 -175 -71v-121h-71v122zM444 194c0 47 -19 69 -90 85v-177c56 11 90 45 90 92zM196 511c0 -44 16 -68 87 -83v163c-57 -8 -87 -40 -87 -80z" />
    <glyph glyph-name="guillemotleft.uc" horiz-adv-x="499" 
d="M47 301l127 192h103l-122 -192l122 -192h-103zM226 301l127 192h103l-122 -192l122 -192h-103z" />
    <glyph glyph-name="guillemotright.uc" horiz-adv-x="499" 
d="M165 301l-121 192h103l126 -192l-126 -192h-103zM344 301l-121 192h103l126 -192l-126 -192h-103z" />
    <glyph glyph-name="uni043A.bgr" horiz-adv-x="555" 
d="M208 247v-247h-144v760h144v-461l169 224h154l-191 -239l206 -284h-164z" />
    </font>
</defs>
</svg>
